blackwide.ufo
<glyph name="exclam" format="1">
  <advance width="357"/>
  <unicode hex="0021"/>
  <outline>
    <contour>
      <point x="285" y="70"/>
      <point x="96" y="70"/>
      <point x="285" y="70" type="curve"/>
      <point x="285" y="122"/>
      <point x="244" y="146"/>
      <point x="189" y="146" type="curve"/>
      <point x="134" y="146"/>
      <point x="96" y="119"/>
      <point x="96" y="70" type="curve"/>
      <point x="285" y="70"/>
      <point x="96" y="70"/>
      <point x="285" y="70" type="curve"/>
      <point x="285" y="17"/>
      <point x="244" y="-5"/>
      <point x="188" y="-5" type="curve"/>
      <point x="133" y="-5"/>
      <point x="96" y="20"/>
      <point x="96" y="70" type="curve"/>
    </contour>
    <contour>
      <point x="268.8" y="247.201709402"/>
      <point x="108.2" y="247.201709402"/>
      <point x="268.8" y="247.201709402" type="curve"/>
      <point x="268.8" y="388.873417077"/>
      <point x="269" y="581"/>
      <point x="269" y="722" type="curve"/>
      <point x="108" y="722"/>
      <point x="269" y="722"/>
      <point x="108" y="722" type="curve"/>
      <point x="108" y="581"/>
      <point x="108.2" y="388.873417077"/>
      <point x="108.2" y="247.201709402" type="curve"/>
    </contour>
  </outline>
</glyph>
<glyph name="quotedbl" format="1">
  <advance width="590"/>
  <unicode hex="0022"/>
  <outline>
    <contour>
      <point x="270.1" y="658"/>
      <point x="109.5" y="658"/>
      <point x="270.1" y="658" type="curve"/>
      <point x="270.1" y="720.66604"/>
      <point x="270.1" y="783.33396"/>
      <point x="270.1" y="846" type="curve"/>
      <point x="109.5" y="846"/>
      <point x="270.1" y="846"/>
      <point x="109.5" y="846" type="curve"/>
      <point x="109.5" y="783.33396"/>
      <point x="109.5" y="720.66604"/>
      <point x="109.5" y="658" type="curve"/>
    </contour>
    <contour>
      <point x="508.9" y="658"/>
      <point x="355.6" y="658"/>
      <point x="508.9" y="658" type="curve"/>
      <point x="508.9" y="720.66604"/>
      <point x="508.9" y="783.33396"/>
      <point x="508.9" y="846" type="curve"/>
      <point x="355.6" y="846"/>
      <point x="508.9" y="846"/>
      <point x="355.6" y="846" type="curve"/>
      <point x="355.6" y="783.33396"/>
      <point x="355.6" y="720.66604"/>
      <point x="355.6" y="658" type="curve"/>
    </contour>
  </outline>
</glyph>
<glyph name="numbersign" format="1">
  <advance width="860"/>
  <unicode hex="0023"/>
  <outline>
    <contour>
      <point x="27.1" y="213.802849003"/>
      <point x="78.2" y="330.602849003"/>
      <point x="27.1" y="213.802849003" type="curve"/>
      <point x="238.264555" y="213.802849003"/>
      <point x="449.435445" y="213.802849003"/>
      <point x="660.6" y="213.802849003" type="curve"/>
      <point x="710" y="331"/>
      <point x="661" y="214"/>
      <point x="710" y="331" type="curve"/>
      <point x="496" y="331"/>
      <point x="286.931246" y="330.602849003"/>
      <point x="78.2" y="330.602849003" type="curve"/>
    </contour>
    <contour>
      <point x="122" y="425"/>
      <point x="170" y="542"/>
      <point x="122" y="425" type="curve"/>
      <point x="333" y="425"/>
      <point x="544" y="425"/>
      <point x="752" y="425" type="curve"/>
      <point x="799" y="542"/>
      <point x="752" y="425"/>
      <point x="799" y="542" type="curve"/>
      <point x="591" y="542"/>
      <point x="382" y="542"/>
      <point x="170" y="542" type="curve"/>
    </contour>
    <contour>
      <point x="530" y="39"/>
      <point x="369" y="39"/>
      <point x="530" y="39" type="curve"/>
      <point x="530" y="39"/>
      <point x="812" y="722"/>
      <point x="812" y="722" type="curve"/>
      <point x="651" y="722"/>
      <point x="812" y="722"/>
      <point x="651" y="722" type="curve"/>
      <point x="651" y="722"/>
      <point x="369" y="39"/>
      <point x="369" y="39" type="curve"/>
    </contour>
    <contour>
      <point x="186.5" y="46"/>
      <point x="33.2" y="46.0"/>
      <point x="186.5" y="46" type="curve"/>
      <point x="186.5" y="46"/>
      <point x="466.4" y="722"/>
      <point x="466.4" y="722" type="curve"/>
      <point x="305.8" y="722"/>
      <point x="466.4" y="722"/>
      <point x="305.8" y="722" type="curve"/>
      <point x="305.8" y="722"/>
      <point x="33.2" y="46.0"/>
      <point x="33.2" y="46.0" type="curve"/>
    </contour>
  </outline>
</glyph>
<glyph name="percent" format="1">
  <advance width="1129"/>
  <unicode hex="0025"/>
  <outline>
    <contour>
      <point x="730" y="202"/>
      <point x="577" y="202"/>
      <point x="730" y="202" type="curve"/>
      <point x="730" y="262"/>
      <point x="777" y="296"/>
      <point x="841" y="296" type="curve"/>
      <point x="905" y="296"/>
      <point x="954" y="260"/>
      <point x="954" y="200" type="curve"/>
      <point x="954" y="142"/>
      <point x="909" y="106"/>
      <point x="849" y="106" type="curve"/>
      <point x="782" y="106"/>
      <point x="730" y="140"/>
      <point x="730" y="202" type="curve"/>
      <point x="577" y="202"/>
      <point x="730" y="202"/>
      <point x="577" y="202" type="curve"/>
      <point x="577" y="64"/>
      <point x="693" y="-10"/>
      <point x="842" y="-10" type="curve"/>
      <point x="995" y="-10"/>
      <point x="1115" y="63"/>
      <point x="1115" y="206" type="curve"/>
      <point x="1115" y="342"/>
      <point x="996" y="413"/>
      <point x="848" y="413" type="curve"/>
      <point x="693" y="414"/>
      <point x="577" y="343"/>
      <point x="577" y="202" type="curve"/>
    </contour>
    <contour>
      <point x="168" y="632"/>
      <point x="15" y="632"/>
      <point x="168" y="632" type="curve"/>
      <point x="168" y="692"/>
      <point x="215" y="726"/>
      <point x="279" y="726" type="curve"/>
      <point x="344" y="727"/>
      <point x="393" y="691"/>
      <point x="393" y="630" type="curve"/>
      <point x="393" y="572"/>
      <point x="348" y="537"/>
      <point x="288" y="537" type="curve"/>
      <point x="221" y="537"/>
      <point x="168" y="570"/>
      <point x="168" y="632" type="curve"/>
      <point x="15" y="632"/>
      <point x="168" y="632"/>
      <point x="15" y="632" type="curve"/>
      <point x="15" y="493"/>
      <point x="127" y="420"/>
      <point x="280" y="420" type="curve"/>
      <point x="433" y="420"/>
      <point x="553" y="493"/>
      <point x="553" y="636" type="curve"/>
      <point x="553" y="773"/>
      <point x="434" y="842"/>
      <point x="286" y="843" type="curve"/>
      <point x="131" y="843"/>
      <point x="15" y="773"/>
      <point x="15" y="632" type="curve"/>
    </contour>
    <contour>
      <point x="374" y="0"/>
      <point x="213" y="0"/>
      <point x="374" y="0" type="curve"/>
      <point x="558" y="284"/>
      <point x="743" y="568"/>
      <point x="927" y="852" type="curve"/>
      <point x="767" y="852"/>
      <point x="927" y="852"/>
      <point x="767" y="852" type="curve"/>
      <point x="582" y="568"/>
      <point x="398" y="284"/>
      <point x="213" y="0" type="curve"/>
    </contour>
  </outline>
</glyph>
<glyph name="quotesingle" format="1">
  <advance width="207"/>
  <unicode hex="0027"/>
  <outline>
    <contour>
      <point x="186" y="658"/>
      <point x="26" y="658"/>
      <point x="186" y="658" type="curve"/>
      <point x="186" y="721"/>
      <point x="186" y="783"/>
      <point x="186" y="846" type="curve"/>
      <point x="26" y="846"/>
      <point x="186" y="846"/>
      <point x="26" y="846" type="curve"/>
      <point x="26" y="783"/>
      <point x="26" y="721"/>
      <point x="26" y="658" type="curve"/>
    </contour>
  </outline>
</glyph>
<glyph name="parenleft" format="1">
  <advance width="565"/>
  <unicode hex="0028"/>
  <outline>
    <contour>
      <point x="516.1" y="-202.12"/>
      <point x="421.2" y="-283.88"/>
      <point x="516.1" y="-202.12" type="curve"/>
      <point x="330.522725962" y="-61.0788053252"/>
      <point x="231" y="93"/>
      <point x="231" y="326" type="curve"/>
      <point x="231" y="560"/>
      <point x="330.235791099" y="712.902451783"/>
      <point x="514.8" y="857.54" type="curve"/>
      <point x="419.9" y="933.46"/>
      <point x="514.8" y="857.54"/>
      <point x="419.9" y="933.46" type="curve"/>
      <point x="200.81637294" y="767.981419041"/>
      <point x="72.7" y="599.947018914"/>
      <point x="72.7" y="326" type="curve"/>
      <point x="72.7" y="51.1477453708"/>
      <point x="201.300138413" y="-116.692069279"/>
      <point x="421.2" y="-283.88" type="curve"/>
    </contour>
  </outline>
</glyph>
<glyph name="plus" format="1">
  <advance width="845"/>
  <unicode hex="002B"/>
  <outline>
    <contour>
      <point x="73" y="249"/>
      <point x="73" y="377"/>
      <point x="73" y="249" type="curve"/>
      <point x="73" y="249"/>
      <point x="719" y="249"/>
      <point x="719" y="249" type="curve"/>
      <point x="719" y="377"/>
      <point x="719" y="249"/>
      <point x="719" y="377" type="curve"/>
      <point x="719" y="377"/>
      <point x="73" y="377"/>
      <point x="73" y="377" type="curve"/>
    </contour>
    <contour>
      <point x="486" y="18"/>
      <point x="316" y="18"/>
      <point x="476" y="18" type="curve"/>
      <point x="476" y="18"/>
      <point x="476" y="588"/>
      <point x="476" y="588" type="curve"/>
      <point x="316" y="588"/>
      <point x="486" y="588"/>
      <point x="326" y="588" type="curve"/>
      <point x="326" y="588"/>
      <point x="326" y="18"/>
      <point x="326" y="18" type="curve"/>
    </contour>
  </outline>
</glyph>
<glyph name="hyphen" format="1">
  <advance width="472"/>
  <unicode hex="002D"/>
  <outline>
    <contour>
      <point x="118.3" y="220.032364672"/>
      <point x="118.3" y="348.512364672"/>
      <point x="118.3" y="220.032364672" type="curve"/>
      <point x="244.398739" y="220.032364672"/>
      <point x="370.501261" y="220.032364672"/>
      <point x="496.6" y="220.032364672" type="curve"/>
      <point x="496.6" y="348.512364672"/>
      <point x="496.6" y="220.032364672"/>
      <point x="496.6" y="348.512364672" type="curve"/>
      <point x="370.501261" y="348.512364672"/>
      <point x="244.398739" y="348.512364672"/>
      <point x="118.3" y="348.512364672" type="curve"/>
    </contour>
  </outline>
</glyph>
<glyph name="period" format="1">
  <advance width="240"/>
  <unicode hex="002E"/>
  <outline>
    <contour>
      <point x="215" y="65"/>
      <point x="26" y="65"/>
      <point x="215" y="65" type="curve"/>
      <point x="215" y="117"/>
      <point x="174" y="141"/>
      <point x="119" y="141" type="curve"/>
      <point x="64" y="141"/>
      <point x="26" y="114"/>
      <point x="26" y="65" type="curve"/>
      <point x="215" y="65"/>
      <point x="26" y="65"/>
      <point x="215" y="65" type="curve"/>
      <point x="215" y="12"/>
      <point x="174" y="-10"/>
      <point x="118" y="-10" type="curve"/>
      <point x="63" y="-10"/>
      <point x="26" y="15"/>
      <point x="26" y="65" type="curve"/>
    </contour>
  </outline>
</glyph>
<glyph name="one" format="1">
  <advance width="552"/>
  <unicode hex="0031"/>
  <outline>
    <contour>
      <point x="337" y="0"/>
      <point x="337" y="117"/>
      <point x="337" y="0" type="curve"/>
      <point x="401" y="0"/>
      <point x="466" y="0"/>
      <point x="531" y="0" type="curve"/>
      <point x="531" y="117"/>
      <point x="531" y="0"/>
      <point x="531" y="117" type="curve"/>
      <point x="337" y="117"/>
      <point x="531" y="117"/>
      <point x="337" y="117" type="curve"/>
    </contour>
    <contour>
      <point x="337" y="117"/>
      <point x="337" y="0"/>
      <point x="337" y="117" type="curve"/>
      <point x="143" y="117"/>
      <point x="337" y="117"/>
      <point x="143" y="117" type="curve"/>
      <point x="143" y="0"/>
      <point x="143" y="117"/>
      <point x="143" y="0" type="curve"/>
      <point x="207" y="0"/>
      <point x="272" y="0"/>
      <point x="337" y="0" type="curve"/>
    </contour>
    <contour>
      <point x="80" y="462"/>
      <point x="14" y="571"/>
      <point x="80" y="462" type="curve"/>
      <point x="372" y="643"/>
      <point x="80" y="462"/>
      <point x="372" y="643" type="curve"/>
      <point x="254" y="722"/>
      <point x="372" y="643"/>
      <point x="254" y="722" type="curve"/>
      <point x="14" y="571"/>
      <point x="254" y="722"/>
      <point x="14" y="571" type="curve"/>
    </contour>
    <contour>
      <point x="414" y="0"/>
      <point x="254" y="0"/>
      <point x="414" y="0" type="curve"/>
      <point x="414" y="241"/>
      <point x="414" y="481"/>
      <point x="414" y="722" type="curve"/>
      <point x="254" y="722"/>
      <point x="414" y="722"/>
      <point x="254" y="722" type="curve"/>
      <point x="254" y="481"/>
      <point x="254" y="241"/>
      <point x="254" y="0" type="curve"/>
    </contour>
  </outline>
</glyph>
<glyph name="four" format="1">
  <advance width="779"/>
  <unicode hex="0034"/>
  <outline>
    <contour>
      <point x="486" y="117"/>
      <point x="486" y="0"/>
      <point x="486" y="117" type="curve"/>
      <point x="292" y="117"/>
      <point x="486" y="117"/>
      <point x="292" y="117" type="curve"/>
      <point x="292" y="0"/>
      <point x="292" y="117"/>
      <point x="292" y="0" type="curve"/>
      <point x="356" y="0"/>
      <point x="421" y="0"/>
      <point x="486" y="0" type="curve"/>
    </contour>
    <contour>
      <point x="486" y="0"/>
      <point x="486" y="117"/>
      <point x="486" y="0" type="curve"/>
      <point x="550" y="0"/>
      <point x="615" y="0"/>
      <point x="679" y="0" type="curve"/>
      <point x="679" y="117"/>
      <point x="679" y="0"/>
      <point x="679" y="117" type="curve"/>
      <point x="486" y="117"/>
      <point x="679" y="117"/>
      <point x="486" y="117" type="curve"/>
    </contour>
    <contour>
      <point x="83" y="223"/>
      <point x="22" y="352"/>
      <point x="83" y="223" type="curve"/>
      <point x="534" y="631"/>
      <point x="84" y="224"/>
      <point x="533" y="631" type="curve"/>
      <point x="408" y="695"/>
      <point x="533" y="631"/>
      <point x="407" y="695" type="curve"/>
      <point x="22" y="351"/>
      <point x="407" y="694"/>
      <point x="22" y="352" type="curve"/>
    </contour>
    <contour>
      <point x="743" y="352"/>
      <point x="743" y="223"/>
      <point x="743" y="352" type="curve"/>
      <point x="743" y="352"/>
      <point x="22" y="352"/>
      <point x="22" y="352" type="curve"/>
      <point x="83" y="223"/>
      <point x="22" y="352"/>
      <point x="83" y="223" type="curve"/>
      <point x="83" y="223"/>
      <point x="743" y="223"/>
      <point x="743" y="223" type="curve"/>
    </contour>
    <contour>
      <point x="407" y="695"/>
      <point x="567" y="695"/>
      <point x="407" y="695" type="curve"/>
      <point x="407" y="695"/>
      <point x="407" y="50"/>
      <point x="407" y="50" type="curve"/>
      <point x="567" y="50"/>
      <point x="407" y="50"/>
      <point x="567" y="50" type="curve"/>
      <point x="567" y="50"/>
      <point x="567" y="695"/>
      <point x="567" y="695" type="curve"/>
    </contour>
  </outline>
</glyph>
<glyph name="five" format="1">
  <advance width="692"/>
  <unicode hex="0035"/>
  <outline>
    <contour>
      <point x="93.0" y="722"/>
      <point x="246.3" y="605.2"/>
      <point x="93.0" y="722" type="curve"/>
      <point x="93.0" y="628.768168795"/>
      <point x="93" y="536"/>
      <point x="93" y="390" type="curve"/>
      <point x="246" y="355"/>
      <point x="93" y="390"/>
      <point x="246.3" y="354.701709402" type="curve"/>
      <point x="246.3" y="438.200304607"/>
      <point x="246.3" y="521.701404795"/>
      <point x="246.3" y="605.2" type="curve"/>
    </contour>
    <contour>
      <point x="246" y="355"/>
      <point x="93" y="390"/>
      <point x="246.3" y="354.701709402" type="curve"/>
      <point x="264.19058484" y="360.745259909"/>
      <point x="298.103917157" y="363.044957265"/>
      <point x="324.2" y="363.044957265" type="curve"/>
      <point x="423.882150532" y="363.044957265"/>
      <point x="508.6" y="329.915670539"/>
      <point x="508.6" y="242.891168091" type="curve"/>
      <point x="508.6" y="154.94576493"/>
      <point x="420.181531704" y="116.8"/>
      <point x="320.2" y="116.8" type="curve"/>
      <point x="252.618197371" y="116.8"/>
      <point x="197" y="123"/>
      <point x="134" y="148" type="curve"/>
      <point x="54" y="43"/>
      <point x="134" y="148"/>
      <point x="54" y="43" type="curve"/>
      <point x="142" y="10"/>
      <point x="219.389509956" y="-5.0"/>
      <point x="312.9" y="-5" type="curve"/>
      <point x="503.536804578" y="-5.0"/>
      <point x="669.2" y="71.5283763502"/>
      <point x="669.2" y="242.891168091" type="curve"/>
      <point x="669.2" y="406.450863613"/>
      <point x="521.221186293" y="485.684957265"/>
      <point x="338.8" y="485.684957265" type="curve"/>
      <point x="253.933069516" y="485.684957265"/>
      <point x="152" y="465"/>
      <point x="93" y="390" type="curve"/>
    </contour>
    <contour>
      <point x="626" y="722"/>
      <point x="626" y="605"/>
      <point x="626" y="722" type="curve"/>
      <point x="430" y="722"/>
      <point x="261.33165" y="722"/>
      <point x="93.0" y="722" type="curve"/>
      <point x="246.3" y="605.2"/>
      <point x="93.0" y="722"/>
      <point x="246.3" y="605.2" type="curve"/>
      <point x="363.532161" y="605.2"/>
      <point x="481" y="605"/>
      <point x="626" y="605" type="curve"/>
    </contour>
  </outline>
</glyph>
<glyph name="six" format="1">
  <advance width="755"/>
  <unicode hex="0036"/>
  <outline>
    <contour>
      <point x="177.6" y="223.174358974"/>
      <point x="68.1" y="281.574358974"/>
      <point x="177.6" y="223.174358974" type="curve"/>
      <point x="229.073562162" y="305.45801969"/>
      <point x="298.696408833" y="331.146951567"/>
      <point x="397" y="331.146951567" type="curve"/>
      <point x="495.779987372" y="331.146951567"/>
      <point x="574.9" y="307.598338722"/>
      <point x="574.9" y="221.435840456" type="curve"/>
      <point x="574.9" y="143.754880543"/>
      <point x="501" y="125"/>
      <point x="413" y="125" type="curve"/>
      <point x="294" y="125"/>
      <point x="201" y="161"/>
      <point x="200.8" y="260.898062678" type="curve"/>
      <point x="201" y="504"/>
      <point x="441" y="561"/>
      <point x="697" y="614" type="curve"/>
      <point x="665" y="727"/>
      <point x="697" y="614"/>
      <point x="665.3" y="727.367407407" type="curve"/>
      <point x="325.056871472" y="663.580584612"/>
      <point x="47.5" y="572.993749899"/>
      <point x="47.5" y="255.058062678" type="curve"/>
      <point x="47.5" y="67.5741468543"/>
      <point x="200.36367781" y="-12.4668376068"/>
      <point x="405.2" y="-12.4668376068" type="curve"/>
      <point x="593.800092899" y="-12.4668376068"/>
      <point x="735.5" y="57.1113819273"/>
      <point x="735.5" y="227.275840456" type="curve"/>
      <point x="735.5" y="392.455885778"/>
      <point x="594.866619404" y="453.786951567"/>
      <point x="411.6" y="453.786951567" type="curve"/>
      <point x="257.620483783" y="453.786951567"/>
      <point x="199" y="400"/>
      <point x="68.1" y="281.574358974" type="curve"/>
    </contour>
  </outline>
</glyph>
<glyph name="seven" format="1">
  <advance width="762"/>
  <unicode hex="0037"/>
  <outline>
    <contour>
      <point x="207" y="485"/>
      <point x="84" y="485"/>
      <point x="207" y="485" type="curve"/>
      <point x="207" y="605"/>
      <point x="207" y="485"/>
      <point x="207" y="605" type="curve"/>
      <point x="84" y="605"/>
      <point x="207" y="605"/>
      <point x="84" y="605" type="curve"/>
      <point x="84" y="485"/>
      <point x="84" y="605"/>
      <point x="84" y="485" type="curve"/>
    </contour>
    <contour>
      <point x="84" y="605"/>
      <point x="84" y="722"/>
      <point x="84" y="605" type="curve"/>
      <point x="301" y="605"/>
      <point x="516" y="605"/>
      <point x="733" y="605" type="curve"/>
      <point x="733" y="722"/>
      <point x="733" y="605"/>
      <point x="733" y="722" type="curve"/>
      <point x="456" y="722"/>
      <point x="272" y="722"/>
      <point x="84" y="722" type="curve"/>
    </contour>
    <contour>
      <point x="649" y="722"/>
      <point x="733" y="605"/>
      <point x="649" y="722" type="curve"/>
      <point x="53" y="0"/>
      <point x="649" y="722"/>
      <point x="53" y="0" type="curve"/>
      <point x="236" y="0"/>
      <point x="53" y="0"/>
      <point x="236" y="0" type="curve"/>
      <point x="733" y="605"/>
      <point x="236" y="0"/>
      <point x="733" y="605" type="curve"/>
    </contour>
  </outline>
</glyph>
<glyph name="eight" format="1">
  <advance width="690"/>
  <unicode hex="0038"/>
  <outline>
    <contour>
      <point x="41.9" y="534.283760684"/>
      <point x="202.5" y="534.283760684"/>
      <point x="41.9" y="534.283760684" type="curve"/>
      <point x="41.9" y="399.394601146"/>
      <point x="165" y="382"/>
      <point x="301" y="338" type="curve"/>
      <point x="411" y="302"/>
      <point x="516" y="299"/>
      <point x="516.4" y="196.337321937" type="curve"/>
      <point x="516" y="126"/>
      <point x="440" y="113"/>
      <point x="348" y="113" type="curve"/>
      <point x="254" y="113"/>
      <point x="178" y="125"/>
      <point x="177.8" y="196.337321937" type="curve"/>
      <point x="178" y="301"/>
      <point x="288" y="303"/>
      <point x="399" y="340" type="curve"/>
      <point x="531" y="386"/>
      <point x="652.3" y="399.97178848"/>
      <point x="652.3" y="532.55954416" type="curve"/>
      <point x="652.3" y="686.89524075"/>
      <point x="524.056047715" y="727"/>
      <point x="347.5" y="727" type="curve"/>
      <point x="175.215414207" y="727"/>
      <point x="41.9" y="685.191838227"/>
      <point x="41.9" y="534.283760684" type="curve"/>
      <point x="202.5" y="534.283760684"/>
      <point x="41.9" y="534.283760684"/>
      <point x="202.5" y="534.283760684" type="curve"/>
      <point x="203" y="594"/>
      <point x="265" y="608"/>
      <point x="340" y="608" type="curve"/>
      <point x="425" y="608"/>
      <point x="492" y="598"/>
      <point x="491.7" y="532.55954416" type="curve"/>
      <point x="492" y="444"/>
      <point x="394" y="449"/>
      <point x="298" y="418" type="curve"/>
      <point x="149" y="368"/>
      <point x="17.2" y="345.378340691"/>
      <point x="17.2" y="196.337321937" type="curve"/>
      <point x="17.2" y="36.2641417559"/>
      <point x="156.686939306" y="-5.0"/>
      <point x="340.2" y="-5" type="curve"/>
      <point x="529.139562373" y="-5.0"/>
      <point x="677" y="30.8802888215"/>
      <point x="677" y="196.337321937" type="curve"/>
      <point x="677" y="342.608617429"/>
      <point x="545" y="368"/>
      <point x="399" y="417" type="curve"/>
      <point x="302" y="451"/>
      <point x="203" y="448"/>
      <point x="202.5" y="534.283760684" type="curve"/>
    </contour>
  </outline>
</glyph>
<glyph name="semicolon" format="1">
  <advance width="269"/>
  <unicode hex="003B"/>
  <outline>
    <contour>
      <point x="83" y="-99"/>
      <point x="-78" y="-99"/>
      <point x="83" y="-99" type="curve"/>
      <point x="243" y="82"/>
      <point x="82" y="-99"/>
      <point x="244" y="82" type="curve"/>
      <point x="39" y="82"/>
      <point x="244" y="82"/>
      <point x="39" y="82" type="curve"/>
      <point x="-77" y="-98"/>
      <point x="39" y="82"/>
      <point x="-78" y="-99" type="curve"/>
    </contour>
    <contour>
      <point x="233" y="375"/>
      <point x="44" y="375"/>
      <point x="233" y="375" type="curve"/>
      <point x="233" y="427"/>
      <point x="192" y="451"/>
      <point x="137" y="451" type="curve"/>
      <point x="82" y="451"/>
      <point x="44" y="424"/>
      <point x="44" y="375" type="curve"/>
      <point x="233" y="375"/>
      <point x="44" y="375"/>
      <point x="233" y="375" type="curve"/>
      <point x="233" y="322"/>
      <point x="192" y="300"/>
      <point x="136" y="300" type="curve"/>
      <point x="81" y="300"/>
      <point x="44" y="325"/>
      <point x="44" y="375" type="curve"/>
    </contour>
  </outline>
</glyph>
<glyph name="C" format="1">
  <advance width="931"/>
  <unicode hex="0043"/>
  <outline>
    <contour>
      <point x="758.36" y="654.282962963"/>
      <point x="881" y="654.282962963"/>
      <point x="758.36" y="654.282962963" type="curve"/>
      <point x="758.36" y="534.282962963"/>
      <point x="758" y="604"/>
      <point x="758" y="484" type="curve"/>
      <point x="881" y="484"/>
      <point x="758" y="484"/>
      <point x="881" y="484" type="curve"/>
      <point x="881" y="604"/>
      <point x="881" y="534.282962963"/>
      <point x="881" y="654.282962963" type="curve"/>
    </contour>
    <contour>
      <point x="881" y="654.282962963"/>
      <point x="793.4" y="560.842962963"/>
      <point x="881" y="654.282962963" type="curve"/>
      <point x="779.88468489" y="695.729800674"/>
      <point x="673.708622241" y="727"/>
      <point x="555.5" y="727" type="curve"/>
      <point x="272.559989959" y="727"/>
      <point x="69.2" y="608.257806575"/>
      <point x="69.2" y="343.855213675" type="curve"/>
      <point x="69.2" y="100.470654305"/>
      <point x="258.498511297" y="-5"/>
      <point x="522.2" y="-5" type="curve"/>
      <point x="676.761454724" y="-5"/>
      <point x="771" y="22"/>
      <point x="881" y="87" type="curve"/>
      <point x="810" y="186"/>
      <point x="881" y="87"/>
      <point x="809.5" y="186.158176638" type="curve"/>
      <point x="715.721902764" y="133.467059496"/>
      <point x="639.424953918" y="116.8"/>
      <point x="529.5" y="116.8" type="curve"/>
      <point x="355.097073987" y="116.8"/>
      <point x="229.8" y="187.756337113"/>
      <point x="229.8" y="349.695213675" type="curve"/>
      <point x="229.8" y="524.026890636"/>
      <point x="362.45678047" y="605.2"/>
      <point x="548.2" y="605.2" type="curve"/>
      <point x="636.629971262" y="605.2"/>
      <point x="718.424488026" y="593.082975083"/>
      <point x="793.4" y="560.842962963" type="curve"/>
    </contour>
  </outline>
</glyph>
<glyph name="D" format="1">
  <advance width="988"/>
  <unicode hex="0044"/>
  <outline>
    <contour>
      <point x="228" y="117"/>
      <point x="228" y="0"/>
      <point x="228" y="117" type="curve"/>
      <point x="34" y="117"/>
      <point x="228" y="117"/>
      <point x="34" y="117" type="curve"/>
      <point x="34" y="0"/>
      <point x="34" y="117"/>
      <point x="34" y="0" type="curve"/>
      <point x="98" y="0"/>
      <point x="163" y="0"/>
      <point x="228" y="0" type="curve"/>
    </contour>
    <contour>
      <point x="228" y="722"/>
      <point x="228" y="605"/>
      <point x="228" y="722" type="curve"/>
      <point x="163" y="722"/>
      <point x="98" y="722"/>
      <point x="34" y="722" type="curve"/>
      <point x="34" y="605"/>
      <point x="34" y="722"/>
      <point x="34" y="605" type="curve"/>
      <point x="228" y="605"/>
      <point x="34" y="605"/>
      <point x="228" y="605" type="curve"/>
    </contour>
    <contour>
      <point x="145" y="722"/>
      <point x="305" y="722"/>
      <point x="145" y="722" type="curve"/>
      <point x="145" y="481"/>
      <point x="145" y="241"/>
      <point x="145" y="0" type="curve"/>
      <point x="305" y="0"/>
      <point x="145" y="0"/>
      <point x="305" y="0" type="curve"/>
      <point x="305" y="241"/>
      <point x="305" y="481"/>
      <point x="305" y="722" type="curve"/>
    </contour>
    <contour>
      <point x="228" y="0"/>
      <point x="228" y="117"/>
      <point x="228" y="0" type="curve"/>
      <point x="312" y="0"/>
      <point x="397" y="0"/>
      <point x="482" y="0" type="curve"/>
      <point x="770" y="0"/>
      <point x="962" y="92"/>
      <point x="962" y="354" type="curve"/>
      <point x="962" y="624"/>
      <point x="768" y="722"/>
      <point x="474" y="722" type="curve"/>
      <point x="392" y="722"/>
      <point x="310" y="722"/>
      <point x="228" y="722" type="curve"/>
      <point x="228" y="605"/>
      <point x="228" y="722"/>
      <point x="228" y="605" type="curve"/>
      <point x="307" y="605"/>
      <point x="387" y="605"/>
      <point x="466" y="605" type="curve"/>
      <point x="669" y="605"/>
      <point x="803" y="535"/>
      <point x="803" y="349" type="curve"/>
      <point x="803" y="180"/>
      <point x="679" y="117"/>
      <point x="494" y="117" type="curve"/>
      <point x="405" y="117"/>
      <point x="317" y="117"/>
      <point x="228" y="117" type="curve"/>
    </contour>
  </outline>
</glyph>
<glyph name="E" format="1">
  <advance width="788"/>
  <unicode hex="0045"/>
  <outline>
    <contour>
      <point x="766" y="58"/>
      <point x="643" y="58"/>
      <point x="766" y="58" type="curve"/>
      <point x="766" y="178"/>
      <point x="766" y="58"/>
      <point x="766" y="178" type="curve"/>
      <point x="643" y="178"/>
      <point x="766" y="178"/>
      <point x="643" y="178" type="curve"/>
      <point x="643" y="58"/>
      <point x="643" y="178"/>
      <point x="643" y="58" type="curve"/>
    </contour>
    <contour>
      <point x="599" y="664"/>
      <point x="722" y="664"/>
      <point x="599" y="664" type="curve"/>
      <point x="599" y="544"/>
      <point x="599" y="664"/>
      <point x="599" y="544" type="curve"/>
      <point x="722" y="544"/>
      <point x="599" y="544"/>
      <point x="722" y="544" type="curve"/>
      <point x="722" y="664"/>
      <point x="722" y="544"/>
      <point x="722" y="664" type="curve"/>
    </contour>
    <contour>
      <point x="210" y="117"/>
      <point x="210" y="0"/>
      <point x="210" y="117" type="curve"/>
      <point x="16" y="117"/>
      <point x="210" y="117"/>
      <point x="16" y="117" type="curve"/>
      <point x="16" y="0"/>
      <point x="16" y="117"/>
      <point x="16" y="0" type="curve"/>
      <point x="80" y="0"/>
      <point x="145" y="0"/>
      <point x="210" y="0" type="curve"/>
    </contour>
    <contour>
      <point x="210" y="722"/>
      <point x="210" y="605"/>
      <point x="210" y="722" type="curve"/>
      <point x="145" y="722"/>
      <point x="80" y="722"/>
      <point x="16" y="722" type="curve"/>
      <point x="16" y="605"/>
      <point x="16" y="722"/>
      <point x="16" y="605" type="curve"/>
      <point x="210" y="605"/>
      <point x="16" y="605"/>
      <point x="210" y="605" type="curve"/>
    </contour>
    <contour>
      <point x="214" y="314"/>
      <point x="214" y="431"/>
      <point x="214" y="314" type="curve"/>
      <point x="356" y="314"/>
      <point x="498" y="314"/>
      <point x="640" y="314" type="curve"/>
      <point x="640" y="431"/>
      <point x="640" y="314"/>
      <point x="640" y="431" type="curve"/>
      <point x="498" y="431"/>
      <point x="356" y="431"/>
      <point x="214" y="431" type="curve"/>
    </contour>
    <contour>
      <point x="194" y="605"/>
      <point x="194" y="722"/>
      <point x="194" y="605" type="curve"/>
      <point x="370" y="605"/>
      <point x="546" y="605"/>
      <point x="722" y="605" type="curve"/>
      <point x="722" y="722"/>
      <point x="722" y="605"/>
      <point x="722" y="722" type="curve"/>
      <point x="546" y="722"/>
      <point x="370" y="722"/>
      <point x="194" y="722" type="curve"/>
    </contour>
    <contour>
      <point x="289" y="0"/>
      <point x="128" y="0"/>
      <point x="289" y="0" type="curve"/>
      <point x="289" y="0"/>
      <point x="289" y="722"/>
      <point x="289" y="722" type="curve"/>
      <point x="128" y="722"/>
      <point x="289" y="722"/>
      <point x="128" y="722" type="curve"/>
      <point x="128" y="481"/>
      <point x="128" y="241"/>
      <point x="128" y="0" type="curve"/>
    </contour>
    <contour>
      <point x="194" y="0"/>
      <point x="194" y="117"/>
      <point x="194" y="0" type="curve"/>
      <point x="385" y="0"/>
      <point x="575" y="0"/>
      <point x="766" y="0" type="curve"/>
      <point x="766" y="117"/>
      <point x="766" y="0"/>
      <point x="766" y="117" type="curve"/>
      <point x="575" y="117"/>
      <point x="385" y="117"/>
      <point x="194" y="117" type="curve"/>
    </contour>
  </outline>
</glyph>
<glyph name="J" format="1">
  <advance width="644"/>
  <unicode hex="004A"/>
  <outline>
    <contour>
      <point x="430.3" y="722"/>
      <point x="430.3" y="605.2"/>
      <point x="430.3" y="722" type="curve"/>
      <point x="365.667313" y="722"/>
      <point x="301.032687" y="722"/>
      <point x="236.4" y="722" type="curve"/>
      <point x="236.4" y="605.2"/>
      <point x="236.4" y="722"/>
      <point x="236.4" y="605.2" type="curve"/>
      <point x="430.3" y="605.2"/>
      <point x="236.4" y="605.2"/>
      <point x="430.3" y="605.2" type="curve"/>
    </contour>
    <contour>
      <point x="430.3" y="605.2"/>
      <point x="430.3" y="722"/>
      <point x="430.3" y="605.2" type="curve"/>
      <point x="624.2" y="605.2"/>
      <point x="430.3" y="605.2"/>
      <point x="624.2" y="605.2" type="curve"/>
      <point x="624.2" y="722"/>
      <point x="624.2" y="605.2"/>
      <point x="624.2" y="722" type="curve"/>
      <point x="559.567313" y="722"/>
      <point x="494.932687" y="722"/>
      <point x="430.3" y="722" type="curve"/>
    </contour>
    <contour>
      <point x="22" y="45"/>
      <point x="95" y="138"/>
      <point x="22" y="45" type="curve"/>
      <point x="66" y="22"/>
      <point x="129" y="-5"/>
      <point x="204" y="-5" type="curve"/>
      <point x="387" y="-5"/>
      <point x="509" y="72"/>
      <point x="509" y="247" type="curve"/>
      <point x="509" y="404"/>
      <point x="509" y="565"/>
      <point x="509" y="722" type="curve"/>
      <point x="349" y="722"/>
      <point x="509" y="722"/>
      <point x="349" y="722" type="curve"/>
      <point x="349" y="565"/>
      <point x="349" y="404"/>
      <point x="349" y="247" type="curve"/>
      <point x="349" y="160"/>
      <point x="293" y="111"/>
      <point x="204" y="111" type="curve"/>
      <point x="161" y="111"/>
      <point x="132" y="122"/>
      <point x="95" y="138" type="curve"/>
    </contour>
  </outline>
</glyph>
<glyph name="K" format="1">
  <advance width="994"/>
  <unicode hex="004B"/>
  <outline>
    <contour>
      <point x="738" y="117"/>
      <point x="730" y="0"/>
      <point x="738" y="117" type="curve"/>
      <point x="541" y="117"/>
      <point x="644" y="117"/>
      <point x="447" y="117" type="curve"/>
      <point x="447" y="0"/>
      <point x="447" y="117"/>
      <point x="447" y="0" type="curve"/>
      <point x="510" y="0"/>
      <point x="667" y="0"/>
      <point x="730" y="0" type="curve"/>
    </contour>
    <contour>
      <point x="726" y="722"/>
      <point x="726" y="605"/>
      <point x="726" y="722" type="curve"/>
      <point x="661" y="722"/>
      <point x="499" y="722"/>
      <point x="434" y="722" type="curve"/>
      <point x="434" y="605"/>
      <point x="434" y="722"/>
      <point x="434" y="605" type="curve"/>
      <point x="628" y="605"/>
      <point x="532" y="605"/>
      <point x="726" y="605" type="curve"/>
    </contour>
    <contour>
      <point x="735" y="0"/>
      <point x="735" y="117"/>
      <point x="735" y="0" type="curve"/>
      <point x="799" y="0"/>
      <point x="864" y="0"/>
      <point x="929" y="0" type="curve"/>
      <point x="929" y="117"/>
      <point x="929" y="0"/>
      <point x="929" y="117" type="curve"/>
      <point x="735" y="117"/>
      <point x="929" y="117"/>
      <point x="735" y="117" type="curve"/>
    </contour>
    <contour>
      <point x="726" y="605"/>
      <point x="726" y="722"/>
      <point x="726" y="605" type="curve"/>
      <point x="920" y="605"/>
      <point x="696" y="605"/>
      <point x="890" y="605" type="curve"/>
      <point x="890" y="722"/>
      <point x="890" y="605"/>
      <point x="890" y="722" type="curve"/>
      <point x="825" y="722"/>
      <point x="790" y="722"/>
      <point x="726" y="722" type="curve"/>
    </contour>
    <contour>
      <point x="214" y="722"/>
      <point x="214" y="605"/>
      <point x="214" y="722" type="curve"/>
      <point x="149" y="722"/>
      <point x="85" y="722"/>
      <point x="20" y="722" type="curve"/>
      <point x="20" y="605"/>
      <point x="20" y="722"/>
      <point x="20" y="605" type="curve"/>
      <point x="214" y="605"/>
      <point x="20" y="605"/>
      <point x="214" y="605" type="curve"/>
    </contour>
    <contour>
      <point x="214" y="605"/>
      <point x="214" y="722"/>
      <point x="214" y="605" type="curve"/>
      <point x="408" y="605"/>
      <point x="195" y="605"/>
      <point x="389" y="605" type="curve"/>
      <point x="389" y="722"/>
      <point x="389" y="605"/>
      <point x="389" y="722" type="curve"/>
      <point x="324" y="722"/>
      <point x="279" y="722"/>
      <point x="214" y="722" type="curve"/>
    </contour>
    <contour>
      <point x="214" y="0"/>
      <point x="214" y="117"/>
      <point x="214" y="0" type="curve"/>
      <point x="279" y="0"/>
      <point x="214" y="0"/>
      <point x="408" y="0" type="curve"/>
      <point x="408" y="117"/>
      <point x="408" y="0"/>
      <point x="408" y="117" type="curve"/>
      <point x="214" y="117"/>
      <point x="408" y="117"/>
      <point x="214" y="117" type="curve"/>
    </contour>
    <contour>
      <point x="214" y="117"/>
      <point x="214" y="0"/>
      <point x="214" y="117" type="curve"/>
      <point x="20" y="117"/>
      <point x="214" y="117"/>
      <point x="20" y="117" type="curve"/>
      <point x="20" y="0"/>
      <point x="20" y="117"/>
      <point x="20" y="0" type="curve"/>
      <point x="85" y="0"/>
      <point x="149" y="0"/>
      <point x="214" y="0" type="curve"/>
    </contour>
    <contour>
      <point x="618" y="722"/>
      <point x="912" y="722"/>
      <point x="649" y="722" type="curve"/>
      <point x="476" y="610"/>
      <point x="309" y="492"/>
      <point x="137" y="380" type="curve"/>
      <point x="364" y="380"/>
      <point x="131" y="380"/>
      <point x="358" y="380" type="curve"/>
      <point x="562" y="514"/>
      <point x="699" y="606"/>
      <point x="881" y="722" type="curve"/>
    </contour>
    <contour>
      <point x="294" y="0"/>
      <point x="134" y="0"/>
      <point x="294" y="0" type="curve"/>
      <point x="294" y="0"/>
      <point x="294" y="722"/>
      <point x="294" y="722" type="curve"/>
      <point x="134" y="722"/>
      <point x="294" y="722"/>
      <point x="134" y="722" type="curve"/>
      <point x="134" y="481"/>
      <point x="134" y="241"/>
      <point x="134" y="0" type="curve"/>
    </contour>
    <contour>
      <point x="946" y="0"/>
      <point x="655" y="0"/>
      <point x="925" y="0" type="curve"/>
      <point x="733" y="129"/>
      <point x="550" y="251"/>
      <point x="358" y="380" type="curve"/>
      <point x="131" y="380"/>
      <point x="364" y="380"/>
      <point x="137" y="380" type="curve"/>
      <point x="319" y="256"/>
      <point x="494" y="124"/>
      <point x="676" y="0" type="curve"/>
    </contour>
  </outline>
</glyph>
<glyph name="L" format="1">
  <advance width="772"/>
  <unicode hex="004C"/>
  <outline>
    <contour>
      <point x="765" y="58"/>
      <point x="643" y="58"/>
      <point x="765" y="58" type="curve"/>
      <point x="765" y="178"/>
      <point x="765" y="58"/>
      <point x="765" y="178" type="curve"/>
      <point x="643" y="178"/>
      <point x="765" y="178"/>
      <point x="643" y="178" type="curve"/>
      <point x="643" y="58"/>
      <point x="643" y="178"/>
      <point x="643" y="58" type="curve"/>
    </contour>
    <contour>
      <point x="217" y="117"/>
      <point x="217" y="0"/>
      <point x="217" y="117" type="curve"/>
      <point x="23" y="117"/>
      <point x="217" y="117"/>
      <point x="23" y="117" type="curve"/>
      <point x="23" y="0"/>
      <point x="23" y="117"/>
      <point x="23" y="0" type="curve"/>
      <point x="87" y="0"/>
      <point x="152" y="0"/>
      <point x="217" y="0" type="curve"/>
    </contour>
    <contour>
      <point x="217" y="722"/>
      <point x="217" y="605"/>
      <point x="217" y="722" type="curve"/>
      <point x="152" y="722"/>
      <point x="87" y="722"/>
      <point x="23" y="722" type="curve"/>
      <point x="23" y="605"/>
      <point x="23" y="722"/>
      <point x="23" y="605" type="curve"/>
      <point x="217" y="605"/>
      <point x="23" y="605"/>
      <point x="217" y="605" type="curve"/>
    </contour>
    <contour>
      <point x="217" y="605"/>
      <point x="217" y="722"/>
      <point x="217" y="605" type="curve"/>
      <point x="411" y="605"/>
      <point x="217" y="605"/>
      <point x="411" y="605" type="curve"/>
      <point x="411" y="722"/>
      <point x="411" y="605"/>
      <point x="411" y="722" type="curve"/>
      <point x="346" y="722"/>
      <point x="281" y="722"/>
      <point x="217" y="722" type="curve"/>
    </contour>
    <contour>
      <point x="298" y="0"/>
      <point x="138" y="0"/>
      <point x="298" y="0" type="curve"/>
      <point x="298" y="241"/>
      <point x="298" y="481"/>
      <point x="298" y="722" type="curve"/>
      <point x="138" y="722"/>
      <point x="298" y="722"/>
      <point x="138" y="722" type="curve"/>
      <point x="138" y="481"/>
      <point x="138" y="241"/>
      <point x="138" y="0" type="curve"/>
    </contour>
    <contour>
      <point x="217" y="0"/>
      <point x="217" y="117"/>
      <point x="217" y="0" type="curve"/>
      <point x="400" y="0"/>
      <point x="582" y="0"/>
      <point x="765" y="0" type="curve"/>
      <point x="765" y="117"/>
      <point x="765" y="0"/>
      <point x="765" y="117" type="curve"/>
      <point x="582" y="117"/>
      <point x="400" y="117"/>
      <point x="217" y="117" type="curve"/>
    </contour>
  </outline>
</glyph>
<glyph name="P" format="1">
  <advance width="796"/>
  <unicode hex="0050"/>
  <outline>
    <contour>
      <point x="211" y="722"/>
      <point x="211" y="605"/>
      <point x="211" y="722" type="curve"/>
      <point x="147" y="722"/>
      <point x="82" y="722"/>
      <point x="17" y="722" type="curve"/>
      <point x="17" y="605"/>
      <point x="17" y="722"/>
      <point x="17" y="605" type="curve"/>
      <point x="211" y="605"/>
      <point x="17" y="605"/>
      <point x="211" y="605" type="curve"/>
    </contour>
    <contour>
      <point x="211" y="117"/>
      <point x="211" y="0"/>
      <point x="211" y="117" type="curve"/>
      <point x="17" y="117"/>
      <point x="211" y="117"/>
      <point x="17" y="117" type="curve"/>
      <point x="17" y="0"/>
      <point x="17" y="117"/>
      <point x="17" y="0" type="curve"/>
      <point x="82" y="0"/>
      <point x="147" y="0"/>
      <point x="211" y="0" type="curve"/>
    </contour>
    <contour>
      <point x="211" y="0"/>
      <point x="211" y="117"/>
      <point x="211" y="0" type="curve"/>
      <point x="276" y="0"/>
      <point x="211" y="0"/>
      <point x="405" y="0" type="curve"/>
      <point x="405" y="117"/>
      <point x="405" y="0"/>
      <point x="405" y="117" type="curve"/>
      <point x="211" y="117"/>
      <point x="405" y="117"/>
      <point x="211" y="117" type="curve"/>
    </contour>
    <contour>
      <point x="188" y="287"/>
      <point x="239" y="392"/>
      <point x="188" y="287" type="curve"/>
      <point x="262" y="261"/>
      <point x="328" y="242"/>
      <point x="407" y="242" type="curve"/>
      <point x="601" y="245"/>
      <point x="762" y="306"/>
      <point x="762" y="478" type="curve"/>
      <point x="762" y="657"/>
      <point x="593" y="722"/>
      <point x="391" y="722" type="curve"/>
      <point x="332" y="722"/>
      <point x="274" y="722"/>
      <point x="215" y="722" type="curve"/>
      <point x="215" y="605"/>
      <point x="215" y="722"/>
      <point x="215" y="605" type="curve"/>
      <point x="266" y="605"/>
      <point x="318" y="605"/>
      <point x="369" y="605" type="curve"/>
      <point x="493" y="605"/>
      <point x="602" y="580"/>
      <point x="602" y="472" type="curve"/>
      <point x="602" y="387"/>
      <point x="518" y="359"/>
      <point x="421" y="359" type="curve"/>
      <point x="353" y="359"/>
      <point x="303" y="370"/>
      <point x="239" y="392" type="curve"/>
    </contour>
    <contour>
      <point x="290" y="0"/>
      <point x="130" y="0"/>
      <point x="290" y="0" type="curve"/>
      <point x="290" y="241"/>
      <point x="290" y="481"/>
      <point x="290" y="722" type="curve"/>
      <point x="130" y="722"/>
      <point x="290" y="722"/>
      <point x="130" y="722" type="curve"/>
      <point x="130" y="481"/>
      <point x="130" y="241"/>
      <point x="130" y="0" type="curve"/>
    </contour>
  </outline>
</glyph>
<glyph name="R" format="1">
  <advance width="1007"/>
  <unicode hex="0052"/>
  <outline>
    <contour>
      <point x="792" y="0"/>
      <point x="792" y="117"/>
      <point x="792" y="0" type="curve"/>
      <point x="856" y="0"/>
      <point x="921" y="0"/>
      <point x="986" y="0" type="curve"/>
      <point x="986" y="117"/>
      <point x="986" y="0"/>
      <point x="986" y="117" type="curve"/>
      <point x="792" y="117"/>
      <point x="986" y="117"/>
      <point x="792" y="117" type="curve"/>
    </contour>
    <contour>
      <point x="207" y="722"/>
      <point x="207" y="605"/>
      <point x="207" y="722" type="curve"/>
      <point x="142" y="722"/>
      <point x="77" y="722"/>
      <point x="13" y="722" type="curve"/>
      <point x="13" y="605"/>
      <point x="13" y="722"/>
      <point x="13" y="605" type="curve"/>
      <point x="207" y="605"/>
      <point x="13" y="605"/>
      <point x="207" y="605" type="curve"/>
    </contour>
    <contour>
      <point x="207" y="117"/>
      <point x="207" y="0"/>
      <point x="207" y="117" type="curve"/>
      <point x="13" y="117"/>
      <point x="207" y="117"/>
      <point x="13" y="117" type="curve"/>
      <point x="13" y="0"/>
      <point x="13" y="117"/>
      <point x="13" y="0" type="curve"/>
      <point x="77" y="0"/>
      <point x="142" y="0"/>
      <point x="207" y="0" type="curve"/>
    </contour>
    <contour>
      <point x="207" y="0"/>
      <point x="207" y="117"/>
      <point x="207" y="0" type="curve"/>
      <point x="271" y="0"/>
      <point x="207" y="0"/>
      <point x="401" y="0" type="curve"/>
      <point x="401" y="117"/>
      <point x="401" y="0"/>
      <point x="401" y="117" type="curve"/>
      <point x="207" y="117"/>
      <point x="401" y="117"/>
      <point x="207" y="117" type="curve"/>
    </contour>
    <contour>
      <point x="378" y="354"/>
      <point x="575" y="354"/>
      <point x="378" y="354" type="curve"/>
      <point x="489" y="236"/>
      <point x="600" y="118"/>
      <point x="711" y="0" type="curve"/>
      <point x="908" y="0"/>
      <point x="711" y="0"/>
      <point x="908" y="0" type="curve"/>
      <point x="797" y="118"/>
      <point x="686" y="236"/>
      <point x="575" y="354" type="curve"/>
    </contour>
    <contour>
      <point x="288" y="0"/>
      <point x="128" y="0"/>
      <point x="288" y="0" type="curve"/>
      <point x="288" y="241"/>
      <point x="288" y="481"/>
      <point x="288" y="722" type="curve"/>
      <point x="128" y="722"/>
      <point x="288" y="722"/>
      <point x="128" y="722" type="curve"/>
      <point x="128" y="481"/>
      <point x="128" y="241"/>
      <point x="128" y="0" type="curve"/>
    </contour>
    <contour>
      <point x="211" y="294"/>
      <point x="211" y="411"/>
      <point x="211" y="294" type="curve"/>
      <point x="281" y="294"/>
      <point x="352" y="294"/>
      <point x="423" y="294" type="curve"/>
      <point x="625" y="294"/>
      <point x="781" y="341"/>
      <point x="781" y="518" type="curve"/>
      <point x="781" y="680"/>
      <point x="638" y="722"/>
      <point x="454" y="722" type="curve"/>
      <point x="373" y="722"/>
      <point x="292" y="722"/>
      <point x="211" y="722" type="curve"/>
      <point x="211" y="605"/>
      <point x="211" y="722"/>
      <point x="211" y="605" type="curve"/>
      <point x="282" y="605"/>
      <point x="353" y="605"/>
      <point x="425" y="605" type="curve"/>
      <point x="532" y="605"/>
      <point x="620" y="597"/>
      <point x="620" y="506" type="curve"/>
      <point x="620" y="423"/>
      <point x="541" y="411"/>
      <point x="444" y="411" type="curve"/>
      <point x="366" y="411"/>
      <point x="288" y="411"/>
      <point x="211" y="411" type="curve"/>
    </contour>
  </outline>
</glyph>
<glyph name="T" format="1">
  <advance width="863"/>
  <unicode hex="0054"/>
  <outline>
    <contour>
      <point x="33.8" y="662.737891738"/>
      <point x="156.44" y="662.737891738"/>
      <point x="33.8" y="662.737891738" type="curve"/>
      <point x="33.8" y="542.737891738"/>
      <point x="33.8" y="662.737891738"/>
      <point x="33.8" y="542.737891738" type="curve"/>
      <point x="156.44" y="542.737891738"/>
      <point x="33.8" y="542.737891738"/>
      <point x="156.44" y="542.737891738" type="curve"/>
      <point x="156.44" y="662.737891738"/>
      <point x="156.44" y="542.737891738"/>
      <point x="156.44" y="662.737891738" type="curve"/>
    </contour>
    <contour>
      <point x="717.16" y="662.737891738"/>
      <point x="839.8" y="662.737891738"/>
      <point x="717.16" y="662.737891738" type="curve"/>
      <point x="717.16" y="542.737891738"/>
      <point x="717.16" y="662.737891738"/>
      <point x="717.16" y="542.737891738" type="curve"/>
      <point x="839.8" y="542.737891738"/>
      <point x="717.16" y="542.737891738"/>
      <point x="839.8" y="542.737891738" type="curve"/>
      <point x="839.8" y="662.737891738"/>
      <point x="839.8" y="542.737891738"/>
      <point x="839.8" y="662.737891738" type="curve"/>
    </contour>
    <contour>
      <point x="435.5" y="0"/>
      <point x="435.5" y="116.8"/>
      <point x="435.5" y="0" type="curve"/>
      <point x="500.132687" y="0"/>
      <point x="564.767313" y="0"/>
      <point x="629.4" y="0" type="curve"/>
      <point x="629.4" y="116.8"/>
      <point x="629.4" y="0"/>
      <point x="629.4" y="116.8" type="curve"/>
      <point x="435.5" y="116.8"/>
      <point x="629.4" y="116.8"/>
      <point x="435.5" y="116.8" type="curve"/>
    </contour>
    <contour>
      <point x="435.5" y="116.8"/>
      <point x="435.5" y="0"/>
      <point x="435.5" y="116.8" type="curve"/>
      <point x="241.6" y="116.8"/>
      <point x="435.5" y="116.8"/>
      <point x="241.6" y="116.8" type="curve"/>
      <point x="241.6" y="0"/>
      <point x="241.6" y="116.8"/>
      <point x="241.6" y="0" type="curve"/>
      <point x="306.232687" y="-7.91495991648e-15"/>
      <point x="370.867313" y="7.91495991648e-15"/>
      <point x="435.5" y="0" type="curve"/>
    </contour>
    <contour>
      <point x="517.1" y="0"/>
      <point x="356.5" y="7.86687121695e-15"/>
      <point x="517.1" y="0" type="curve"/>
      <point x="517.1" y="236.6643"/>
      <point x="517.1" y="473.3357"/>
      <point x="517.1" y="710" type="curve"/>
      <point x="356.5" y="710"/>
      <point x="517.1" y="710"/>
      <point x="356.5" y="710" type="curve"/>
      <point x="356.5" y="473.3357"/>
      <point x="356.5" y="236.6643"/>
      <point x="356.5" y="7.86687121695e-15" type="curve"/>
    </contour>
    <contour>
      <point x="34" y="593"/>
      <point x="33.8" y="726.977891738"/>
      <point x="33.8" y="598.497891738" type="curve"/>
      <point x="302.46398" y="598.497891738"/>
      <point x="571.13602" y="598.497891738"/>
      <point x="839.8" y="598.497891738" type="curve"/>
      <point x="839.8" y="726.977891738"/>
      <point x="840" y="593"/>
      <point x="840" y="722" type="curve"/>
      <point x="571" y="722"/>
      <point x="302" y="722"/>
      <point x="34" y="722" type="curve"/>
    </contour>
  </outline>
</glyph>
<glyph name="U" format="1">
  <advance width="1074"/>
  <unicode hex="0055"/>
  <outline>
    <contour>
      <point x="862" y="605"/>
      <point x="862" y="722"/>
      <point x="862" y="605" type="curve"/>
      <point x="1056" y="605"/>
      <point x="862" y="605"/>
      <point x="1056" y="605" type="curve"/>
      <point x="1056" y="722"/>
      <point x="1056" y="605"/>
      <point x="1056" y="722" type="curve"/>
      <point x="992" y="722"/>
      <point x="927" y="722"/>
      <point x="862" y="722" type="curve"/>
    </contour>
    <contour>
      <point x="862" y="722"/>
      <point x="862" y="605"/>
      <point x="862" y="722" type="curve"/>
      <point x="798" y="722"/>
      <point x="733" y="722"/>
      <point x="669" y="722" type="curve"/>
      <point x="669" y="605"/>
      <point x="669" y="722"/>
      <point x="669" y="605" type="curve"/>
      <point x="862" y="605"/>
      <point x="669" y="605"/>
      <point x="862" y="605" type="curve"/>
    </contour>
    <contour>
      <point x="212" y="722"/>
      <point x="212" y="605"/>
      <point x="212" y="722" type="curve"/>
      <point x="148" y="722"/>
      <point x="83" y="722"/>
      <point x="19" y="722" type="curve"/>
      <point x="18" y="605"/>
      <point x="19" y="722"/>
      <point x="18" y="605" type="curve"/>
      <point x="212" y="605"/>
      <point x="18" y="605"/>
      <point x="212" y="605" type="curve"/>
    </contour>
    <contour>
      <point x="212" y="605"/>
      <point x="212" y="722"/>
      <point x="212" y="605" type="curve"/>
      <point x="406" y="605"/>
      <point x="212" y="605"/>
      <point x="406" y="605" type="curve"/>
      <point x="406" y="722"/>
      <point x="406" y="605"/>
      <point x="406" y="722" type="curve"/>
      <point x="342" y="722"/>
      <point x="277" y="722"/>
      <point x="212" y="722" type="curve"/>
    </contour>
    <contour>
      <point x="137" y="672"/>
      <point x="283" y="672"/>
      <point x="137" y="672" type="curve"/>
      <point x="137" y="539"/>
      <point x="137" y="416"/>
      <point x="137" y="283" type="curve"/>
      <point x="137" y="66"/>
      <point x="291" y="-5"/>
      <point x="533" y="-5" type="curve"/>
      <point x="779" y="-5"/>
      <point x="935" y="73"/>
      <point x="935" y="296" type="curve"/>
      <point x="935" y="425"/>
      <point x="935" y="544"/>
      <point x="935" y="672" type="curve"/>
      <point x="789" y="672"/>
      <point x="935" y="672"/>
      <point x="789" y="672" type="curve"/>
      <point x="789" y="536"/>
      <point x="789" y="419"/>
      <point x="789" y="283" type="curve"/>
      <point x="789" y="160"/>
      <point x="689" y="124"/>
      <point x="547" y="124" type="curve"/>
      <point x="389" y="124"/>
      <point x="283" y="164"/>
      <point x="283" y="304" type="curve"/>
      <point x="283" y="429"/>
      <point x="283" y="547"/>
      <point x="283" y="672" type="curve"/>
    </contour>
  </outline>
</glyph>
<glyph name="X" format="1">
  <advance width="980"/>
  <unicode hex="0058"/>
  <outline>
    <contour>
      <point x="217" y="0"/>
      <point x="217" y="117"/>
      <point x="217" y="0" type="curve"/>
      <point x="282" y="0"/>
      <point x="217" y="0"/>
      <point x="411" y="0" type="curve"/>
      <point x="411" y="117"/>
      <point x="411" y="0"/>
      <point x="411" y="117" type="curve"/>
      <point x="217" y="117"/>
      <point x="411" y="117"/>
      <point x="217" y="117" type="curve"/>
    </contour>
    <contour>
      <point x="217" y="117"/>
      <point x="217" y="0"/>
      <point x="217" y="117" type="curve"/>
      <point x="23" y="117"/>
      <point x="217" y="117"/>
      <point x="23" y="117" type="curve"/>
      <point x="23" y="0"/>
      <point x="23" y="117"/>
      <point x="23" y="0" type="curve"/>
      <point x="88" y="0"/>
      <point x="153" y="0"/>
      <point x="217" y="0" type="curve"/>
    </contour>
    <contour>
      <point x="746" y="0"/>
      <point x="746" y="117"/>
      <point x="746" y="0" type="curve"/>
      <point x="811" y="0"/>
      <point x="875" y="0"/>
      <point x="940" y="0" type="curve"/>
      <point x="940" y="117"/>
      <point x="940" y="0"/>
      <point x="940" y="117" type="curve"/>
      <point x="746" y="117"/>
      <point x="940" y="117"/>
      <point x="746" y="117" type="curve"/>
    </contour>
    <contour>
      <point x="746" y="117"/>
      <point x="746" y="0"/>
      <point x="746" y="117" type="curve"/>
      <point x="552" y="117"/>
      <point x="746" y="117"/>
      <point x="552" y="117" type="curve"/>
      <point x="552" y="0"/>
      <point x="552" y="117"/>
      <point x="552" y="0" type="curve"/>
      <point x="617" y="0"/>
      <point x="681" y="0"/>
      <point x="746" y="0" type="curve"/>
    </contour>
    <contour>
      <point x="710" y="605"/>
      <point x="710" y="722"/>
      <point x="710" y="605" type="curve"/>
      <point x="904" y="605"/>
      <point x="710" y="605"/>
      <point x="904" y="605" type="curve"/>
      <point x="904" y="722"/>
      <point x="904" y="605"/>
      <point x="904" y="722" type="curve"/>
      <point x="839" y="722"/>
      <point x="775" y="722"/>
      <point x="710" y="722" type="curve"/>
    </contour>
    <contour>
      <point x="710" y="722"/>
      <point x="710" y="605"/>
      <point x="710" y="722" type="curve"/>
      <point x="646" y="722"/>
      <point x="581" y="722"/>
      <point x="516" y="722" type="curve"/>
      <point x="516" y="605"/>
      <point x="516" y="722"/>
      <point x="516" y="605" type="curve"/>
      <point x="710" y="605"/>
      <point x="516" y="605"/>
      <point x="710" y="605" type="curve"/>
    </contour>
    <contour>
      <point x="266" y="722"/>
      <point x="266" y="605"/>
      <point x="266" y="722" type="curve"/>
      <point x="202" y="722"/>
      <point x="137" y="722"/>
      <point x="72" y="722" type="curve"/>
      <point x="72" y="605"/>
      <point x="72" y="722"/>
      <point x="72" y="605" type="curve"/>
      <point x="266" y="605"/>
      <point x="72" y="605"/>
      <point x="266" y="605" type="curve"/>
    </contour>
    <contour>
      <point x="266" y="605"/>
      <point x="266" y="722"/>
      <point x="266" y="605" type="curve"/>
      <point x="460" y="605"/>
      <point x="266" y="605"/>
      <point x="460" y="605" type="curve"/>
      <point x="460" y="722"/>
      <point x="460" y="605"/>
      <point x="460" y="722" type="curve"/>
      <point x="396" y="722"/>
      <point x="331" y="722"/>
      <point x="266" y="722" type="curve"/>
    </contour>
    <contour>
      <point x="694" y="722"/>
      <point x="884" y="722"/>
      <point x="694" y="722" type="curve"/>
      <point x="477" y="480"/>
      <point x="254" y="242"/>
      <point x="37" y="0" type="curve"/>
      <point x="248" y="0"/>
      <point x="37" y="0"/>
      <point x="248" y="0" type="curve"/>
      <point x="462" y="239"/>
      <point x="670" y="483"/>
      <point x="884" y="722" type="curve"/>
    </contour>
    <contour>
      <point x="88.4" y="722"/>
      <point x="278.2" y="722"/>
      <point x="88.4" y="722" type="curve"/>
      <point x="300.737013238" y="482.337784377"/>
      <point x="509.662986762" y="239.662215623"/>
      <point x="722" y="1.00123815489e-14" type="curve"/>
      <point x="926.4" y="-2.00247630977e-14"/>
      <point x="722" y="1.00123815489e-14"/>
      <point x="926.4" y="-2.00247630977e-14" type="curve"/>
      <point x="711.463619218" y="241.67469009"/>
      <point x="493.136380782" y="480.32530991"/>
      <point x="278.2" y="722" type="curve"/>
    </contour>
  </outline>
</glyph>
<glyph name="Z" format="1">
  <advance width="876"/>
  <unicode hex="005A"/>
  <outline>
    <contour>
      <point x="79" y="664"/>
      <point x="201" y="664"/>
      <point x="79" y="664" type="curve"/>
      <point x="79" y="544"/>
      <point x="79" y="664"/>
      <point x="79" y="544" type="curve"/>
      <point x="201" y="544"/>
      <point x="79" y="544"/>
      <point x="201" y="544" type="curve"/>
      <point x="201" y="664"/>
      <point x="201" y="544"/>
      <point x="201" y="664" type="curve"/>
    </contour>
    <contour>
      <point x="844" y="58"/>
      <point x="721" y="58"/>
      <point x="844" y="58" type="curve"/>
      <point x="844" y="178"/>
      <point x="844" y="58"/>
      <point x="844" y="178" type="curve"/>
      <point x="721" y="178"/>
      <point x="844" y="178"/>
      <point x="721" y="178" type="curve"/>
      <point x="721" y="58"/>
      <point x="721" y="178"/>
      <point x="721" y="58" type="curve"/>
    </contour>
    <contour>
      <point x="79" y="605"/>
      <point x="79" y="722"/>
      <point x="79" y="605" type="curve"/>
      <point x="289" y="605"/>
      <point x="556.835435" y="605.2"/>
      <point x="767" y="605.2" type="curve"/>
      <point x="755.401432537" y="618.850064709"/>
      <point x="731.798567463" y="611.656260078"/>
      <point x="720.2" y="625.306324786" type="curve"/>
      <point x="711.792380136" y="637.637258091"/>
      <point x="707.107619864" y="652.131174957"/>
      <point x="698.7" y="664.462108262" type="curve"/>
      <point x="689.728118088" y="655.421669686"/>
      <point x="673.271881912" y="664.019355955"/>
      <point x="664.3" y="654.978917379" type="curve"/>
      <point x="461" y="483"/>
      <point x="664.3" y="654.978917379"/>
      <point x="33.5" y="116.8" type="curve"/>
      <point x="33.5" y="57.5378917379"/>
      <point x="33.5" y="116.8"/>
      <point x="33.5" y="57.5378917379" type="curve"/>
      <point x="33.5" y="0"/>
      <point x="33.5" y="57.5378917379"/>
      <point x="33.5" y="0" type="curve"/>
      <point x="91" y="0"/>
      <point x="33.5" y="0"/>
      <point x="91" y="0" type="curve"/>
      <point x="843.7" y="0"/>
      <point x="593" y="0"/>
      <point x="844" y="0" type="curve"/>
      <point x="844" y="117"/>
      <point x="844" y="0"/>
      <point x="844" y="117" type="curve"/>
      <point x="593" y="117"/>
      <point x="341.897491" y="116.8"/>
      <point x="91" y="116.8" type="curve"/>
      <point x="103.274800553" y="108.416361979"/>
      <point x="119.525199447" y="108.428367366"/>
      <point x="131.8" y="100.044729345" type="curve"/>
      <point x="141.746835862" y="86.7385687807"/>
      <point x="147.653164138" y="70.8440523019"/>
      <point x="157.6" y="57.5378917379" type="curve"/>
      <point x="167.422246854" y="65.9943833695"/>
      <point x="183.477753146" y="58.5645909895"/>
      <point x="193.3" y="67.0210826211" type="curve"/>
      <point x="405" y="248"/>
      <point x="193.3" y="67.0210826211"/>
      <point x="830.1" y="605.2" type="curve"/>
      <point x="830.1" y="664.462108262"/>
      <point x="830.1" y="605.2"/>
      <point x="830.1" y="664.462108262" type="curve"/>
      <point x="830.1" y="722"/>
      <point x="830.1" y="664.462108262"/>
      <point x="830.1" y="722" type="curve"/>
      <point x="767" y="722"/>
      <point x="830.1" y="722"/>
      <point x="767" y="722" type="curve"/>
      <point x="556.835435" y="722"/>
      <point x="289" y="722"/>
      <point x="79" y="722" type="curve"/>
    </contour>
  </outline>
</glyph>
<glyph name="e" format="1">
  <advance width="724"/>
  <unicode hex="0065"/>
  <outline>
    <contour>
      <point x="117" y="222"/>
      <point x="117" y="339"/>
      <point x="117" y="222" type="curve"/>
      <point x="286" y="222"/>
      <point x="456" y="222"/>
      <point x="625" y="222" type="curve"/>
      <point x="643" y="218"/>
      <point x="643" y="254"/>
      <point x="661" y="250" type="curve"/>
      <point x="664" y="264"/>
      <point x="688" y="260"/>
      <point x="691" y="274" type="curve"/>
      <point x="691" y="278"/>
      <point x="691" y="282"/>
      <point x="691" y="286" type="curve"/>
      <point x="691" y="464"/>
      <point x="562" y="537"/>
      <point x="375" y="537" type="curve"/>
      <point x="175" y="537"/>
      <point x="35" y="465"/>
      <point x="35" y="278" type="curve"/>
      <point x="35" y="74"/>
      <point x="188" y="-5"/>
      <point x="404" y="-5" type="curve"/>
      <point x="508" y="-5"/>
      <point x="577" y="15"/>
      <point x="653" y="63" type="curve"/>
      <point x="565" y="160"/>
      <point x="653" y="63"/>
      <point x="565" y="160" type="curve"/>
      <point x="509" y="126"/>
      <point x="467" y="112"/>
      <point x="404" y="112" type="curve"/>
      <point x="282" y="112"/>
      <point x="196" y="161"/>
      <point x="196" y="278" type="curve"/>
      <point x="196" y="377"/>
      <point x="265" y="420"/>
      <point x="367" y="420" type="curve"/>
      <point x="465" y="420"/>
      <point x="538" y="393"/>
      <point x="538" y="303" type="curve"/>
      <point x="538" y="293"/>
      <point x="538" y="284"/>
      <point x="538" y="274" type="curve"/>
      <point x="553" y="284"/>
      <point x="565" y="300"/>
      <point x="581" y="309" type="curve"/>
      <point x="596" y="319"/>
      <point x="610" y="330"/>
      <point x="625" y="339" type="curve"/>
      <point x="456" y="339"/>
      <point x="286" y="339"/>
      <point x="117" y="339" type="curve"/>
    </contour>
    <contour>
      <point x="117" y="222"/>
      <point x="117" y="339"/>
      <point x="117" y="222" type="curve"/>
      <point x="286" y="222"/>
      <point x="456" y="222"/>
      <point x="625" y="222" type="curve"/>
      <point x="691" y="222"/>
      <point x="625" y="222"/>
      <point x="691" y="222" type="curve"/>
      <point x="691" y="274"/>
      <point x="691" y="222"/>
      <point x="691" y="274" type="curve"/>
      <point x="691" y="280"/>
      <point x="691" y="285"/>
      <point x="691" y="291" type="curve"/>
      <point x="691" y="467"/>
      <point x="561" y="537"/>
      <point x="375" y="537" type="curve"/>
      <point x="175" y="537"/>
      <point x="35" y="465"/>
      <point x="35" y="278" type="curve"/>
      <point x="35" y="74"/>
      <point x="188" y="-5"/>
      <point x="404" y="-5" type="curve"/>
      <point x="508" y="-5"/>
      <point x="577" y="15"/>
      <point x="653" y="63" type="curve"/>
      <point x="565" y="160"/>
      <point x="653" y="63"/>
      <point x="565" y="160" type="curve"/>
      <point x="509" y="126"/>
      <point x="467" y="112"/>
      <point x="404" y="112" type="curve"/>
      <point x="282" y="112"/>
      <point x="196" y="161"/>
      <point x="196" y="278" type="curve"/>
      <point x="196" y="377"/>
      <point x="265" y="420"/>
      <point x="367" y="420" type="curve"/>
      <point x="465" y="420"/>
      <point x="538" y="393"/>
      <point x="538" y="303" type="curve"/>
      <point x="538" y="293"/>
      <point x="538" y="284"/>
      <point x="538" y="274" type="curve"/>
      <point x="553" y="284"/>
      <point x="565" y="300"/>
      <point x="581" y="309" type="curve"/>
      <point x="596" y="319"/>
      <point x="610" y="330"/>
      <point x="625" y="339" type="curve"/>
      <point x="456" y="339"/>
      <point x="286" y="339"/>
      <point x="117" y="339" type="curve"/>
    </contour>
  </outline>
</glyph>
<glyph name="h" format="1">
  <advance width="921"/>
  <unicode hex="0068"/>
  <outline>
    <contour>
      <point x="704" y="-1"/>
      <point x="704" y="116"/>
      <point x="704" y="-1" type="curve"/>
      <point x="769" y="-1"/>
      <point x="833" y="0"/>
      <point x="898" y="0" type="curve"/>
      <point x="898" y="117"/>
      <point x="898" y="0"/>
      <point x="898" y="117" type="curve"/>
      <point x="704" y="116"/>
      <point x="898" y="117"/>
      <point x="704" y="116" type="curve"/>
    </contour>
    <contour>
      <point x="222" y="-1"/>
      <point x="222" y="116"/>
      <point x="222" y="-1" type="curve"/>
      <point x="282" y="-1"/>
      <point x="222" y="-1"/>
      <point x="403" y="0" type="curve"/>
      <point x="403" y="117"/>
      <point x="403" y="0"/>
      <point x="403" y="117" type="curve"/>
      <point x="222" y="116"/>
      <point x="403" y="117"/>
      <point x="222" y="116" type="curve"/>
    </contour>
    <contour>
      <point x="222" y="799"/>
      <point x="222" y="683"/>
      <point x="222" y="799" type="curve"/>
      <point x="157" y="799"/>
      <point x="92" y="800"/>
      <point x="28" y="800" type="curve"/>
      <point x="28" y="683"/>
      <point x="28" y="800"/>
      <point x="28" y="683" type="curve"/>
      <point x="222" y="683"/>
      <point x="28" y="683"/>
      <point x="222" y="683" type="curve"/>
    </contour>
    <contour>
      <point x="222" y="116"/>
      <point x="222" y="-1"/>
      <point x="222" y="116" type="curve"/>
      <point x="28" y="117"/>
      <point x="222" y="116"/>
      <point x="28" y="117" type="curve"/>
      <point x="28" y="0"/>
      <point x="28" y="117"/>
      <point x="28" y="0" type="curve"/>
      <point x="92" y="0"/>
      <point x="157" y="-1"/>
      <point x="222" y="-1" type="curve"/>
    </contour>
    <contour>
      <point x="704" y="116"/>
      <point x="704" y="-1"/>
      <point x="704" y="116" type="curve"/>
      <point x="523" y="117"/>
      <point x="704" y="116"/>
      <point x="523" y="117" type="curve"/>
      <point x="523" y="0"/>
      <point x="523" y="117"/>
      <point x="523" y="0" type="curve"/>
      <point x="583" y="0"/>
      <point x="644" y="-1"/>
      <point x="704" y="-1" type="curve"/>
    </contour>
    <contour>
      <point x="266" y="297"/>
      <point x="182" y="356"/>
      <point x="266" y="297" type="curve"/>
      <point x="308.370107285" y="379.673380068"/>
      <point x="398.0" y="421.0"/>
      <point x="489" y="421" type="curve"/>
      <point x="572.0" y="421.0"/>
      <point x="625.0" y="385.468468468"/>
      <point x="625" y="305" type="curve"/>
      <point x="625" y="204"/>
      <point x="625" y="102"/>
      <point x="625" y="0" type="curve"/>
      <point x="786" y="0"/>
      <point x="625" y="0"/>
      <point x="786" y="0" type="curve"/>
      <point x="786" y="106"/>
      <point x="786" y="211"/>
      <point x="786" y="317" type="curve"/>
      <point x="786.0" y="474.564814815"/>
      <point x="675.0" y="538.0"/>
      <point x="508" y="538" type="curve"/>
      <point x="371.0" y="538.0"/>
      <point x="235.24572831" y="480.922670265"/>
      <point x="182" y="356" type="curve"/>
    </contour>
    <contour>
      <point x="302" y="0"/>
      <point x="141" y="0"/>
      <point x="302" y="0" type="curve"/>
      <point x="302" y="267"/>
      <point x="302" y="533"/>
      <point x="302" y="800" type="curve"/>
      <point x="141" y="800"/>
      <point x="302" y="800"/>
      <point x="141" y="800" type="curve"/>
      <point x="141" y="533"/>
      <point x="141" y="267"/>
      <point x="141" y="0" type="curve"/>
    </contour>
  </outline>
</glyph>
<glyph name="k" format="1">
  <advance width="881"/>
  <unicode hex="006B"/>
  <outline>
    <contour>
      <point x="219" y="116"/>
      <point x="219" y="-1"/>
      <point x="219" y="116" type="curve"/>
      <point x="26" y="117"/>
      <point x="219" y="116"/>
      <point x="26" y="117" type="curve"/>
      <point x="26" y="0"/>
      <point x="26" y="117"/>
      <point x="26" y="0" type="curve"/>
      <point x="90" y="0"/>
      <point x="155" y="-1"/>
      <point x="219" y="-1" type="curve"/>
    </contour>
    <contour>
      <point x="629" y="-1"/>
      <point x="629" y="116"/>
      <point x="629" y="-1" type="curve"/>
      <point x="710" y="-1"/>
      <point x="791" y="0"/>
      <point x="871" y="0" type="curve"/>
      <point x="871" y="117"/>
      <point x="871" y="0"/>
      <point x="871" y="117" type="curve"/>
      <point x="629" y="116"/>
      <point x="871" y="117"/>
      <point x="629" y="116" type="curve"/>
    </contour>
    <contour>
      <point x="664" y="416"/>
      <point x="664" y="533"/>
      <point x="664" y="416" type="curve"/>
      <point x="841" y="416"/>
      <point x="664" y="416"/>
      <point x="841" y="416" type="curve"/>
      <point x="841" y="533"/>
      <point x="841" y="416"/>
      <point x="841" y="533" type="curve"/>
      <point x="782" y="533"/>
      <point x="722" y="533"/>
      <point x="664" y="533" type="curve"/>
    </contour>
    <contour>
      <point x="219" y="-1"/>
      <point x="219" y="116"/>
      <point x="219" y="-1" type="curve"/>
      <point x="267" y="-1"/>
      <point x="219" y="-1"/>
      <point x="363" y="0" type="curve"/>
      <point x="363" y="117"/>
      <point x="363" y="0"/>
      <point x="363" y="117" type="curve"/>
      <point x="219" y="116"/>
      <point x="363" y="117"/>
      <point x="219" y="116" type="curve"/>
    </contour>
    <contour>
      <point x="664" y="533"/>
      <point x="664" y="416"/>
      <point x="664" y="533" type="curve"/>
      <point x="551" y="533"/>
      <point x="439" y="533"/>
      <point x="328" y="533" type="curve"/>
      <point x="328" y="416"/>
      <point x="328" y="533"/>
      <point x="328" y="416" type="curve"/>
      <point x="664" y="416"/>
      <point x="328" y="416"/>
      <point x="664" y="416" type="curve"/>
    </contour>
    <contour>
      <point x="222" y="799"/>
      <point x="222" y="683"/>
      <point x="222" y="799" type="curve"/>
      <point x="157" y="799"/>
      <point x="93" y="800"/>
      <point x="28" y="800" type="curve"/>
      <point x="28" y="683"/>
      <point x="28" y="800"/>
      <point x="28" y="683" type="curve"/>
      <point x="222" y="683"/>
      <point x="28" y="683"/>
      <point x="222" y="683" type="curve"/>
    </contour>
    <contour>
      <point x="301" y="0"/>
      <point x="140" y="0"/>
      <point x="301" y="0" type="curve"/>
      <point x="301" y="0"/>
      <point x="301" y="800"/>
      <point x="301" y="800" type="curve"/>
      <point x="140" y="800"/>
      <point x="301" y="800"/>
      <point x="140" y="800" type="curve"/>
      <point x="140" y="533"/>
      <point x="140" y="267"/>
      <point x="140" y="0" type="curve"/>
    </contour>
    <contour>
      <point x="582" y="533"/>
      <point x="830" y="533"/>
      <point x="582" y="533" type="curve"/>
      <point x="437" y="451"/>
      <point x="300" y="357"/>
      <point x="155" y="275" type="curve"/>
      <point x="373" y="275"/>
      <point x="155" y="275"/>
      <point x="373" y="275" type="curve"/>
      <point x="525" y="361"/>
      <point x="678" y="447"/>
      <point x="830" y="533" type="curve"/>
    </contour>
    <contour>
      <point x="864" y="0"/>
      <point x="615" y="0"/>
      <point x="864" y="0" type="curve"/>
      <point x="700" y="92"/>
      <point x="537" y="183"/>
      <point x="373" y="275" type="curve"/>
      <point x="155" y="275"/>
      <point x="373" y="275"/>
      <point x="155" y="275" type="curve"/>
      <point x="311" y="187"/>
      <point x="459" y="87"/>
      <point x="615" y="0" type="curve"/>
    </contour>
  </outline>
</glyph>
<glyph name="n" format="1">
  <advance width="915"/>
  <unicode hex="006E"/>
  <outline>
    <contour>
      <point x="278" y="297"/>
      <point x="195" y="356"/>
      <point x="278" y="297" type="curve"/>
      <point x="319" y="375"/>
      <point x="404" y="416"/>
      <point x="493" y="416" type="curve"/>
      <point x="579" y="416"/>
      <point x="638" y="384"/>
      <point x="638" y="305" type="curve"/>
      <point x="638" y="204"/>
      <point x="638" y="102"/>
      <point x="638" y="0" type="curve"/>
      <point x="798" y="0"/>
      <point x="638" y="0"/>
      <point x="798" y="0" type="curve"/>
      <point x="798" y="106"/>
      <point x="798" y="211"/>
      <point x="798" y="317" type="curve"/>
      <point x="798" y="470"/>
      <point x="691" y="533"/>
      <point x="526" y="533" type="curve"/>
      <point x="388" y="533"/>
      <point x="281" y="487"/>
      <point x="195" y="356" type="curve"/>
    </contour>
    <contour>
      <point x="717" y="0"/>
      <point x="717" y="117"/>
      <point x="717" y="0" type="curve"/>
      <point x="781" y="0"/>
      <point x="846" y="0"/>
      <point x="911" y="0" type="curve"/>
      <point x="911" y="117"/>
      <point x="911" y="0"/>
      <point x="911" y="117" type="curve"/>
      <point x="717" y="117"/>
      <point x="911" y="117"/>
      <point x="717" y="117" type="curve"/>
    </contour>
    <contour>
      <point x="234" y="117"/>
      <point x="234" y="0"/>
      <point x="234" y="117" type="curve"/>
      <point x="41" y="117"/>
      <point x="234" y="117"/>
      <point x="41" y="117" type="curve"/>
      <point x="41" y="0"/>
      <point x="41" y="117"/>
      <point x="41" y="0" type="curve"/>
      <point x="105" y="0"/>
      <point x="170" y="0"/>
      <point x="234" y="0" type="curve"/>
    </contour>
    <contour>
      <point x="234" y="0"/>
      <point x="234" y="117"/>
      <point x="234" y="0" type="curve"/>
      <point x="295" y="0"/>
      <point x="234" y="0"/>
      <point x="415" y="0" type="curve"/>
      <point x="415" y="117"/>
      <point x="415" y="0"/>
      <point x="415" y="117" type="curve"/>
      <point x="234" y="117"/>
      <point x="415" y="117"/>
      <point x="234" y="117" type="curve"/>
    </contour>
    <contour>
      <point x="315" y="0"/>
      <point x="154" y="0"/>
      <point x="315" y="0" type="curve"/>
      <point x="315" y="178"/>
      <point x="315" y="355"/>
      <point x="315" y="533" type="curve"/>
      <point x="154" y="533"/>
      <point x="315" y="533"/>
      <point x="154" y="533" type="curve"/>
      <point x="154" y="355"/>
      <point x="154" y="178"/>
      <point x="154" y="0" type="curve"/>
    </contour>
    <contour>
      <point x="234" y="533"/>
      <point x="234" y="416"/>
      <point x="234" y="533" type="curve"/>
      <point x="170" y="533"/>
      <point x="105" y="533"/>
      <point x="41" y="533" type="curve"/>
      <point x="41" y="416"/>
      <point x="41" y="533"/>
      <point x="41" y="416" type="curve"/>
      <point x="234" y="416"/>
      <point x="41" y="416"/>
      <point x="234" y="416" type="curve"/>
    </contour>
    <contour>
      <point x="717" y="117"/>
      <point x="717" y="0"/>
      <point x="717" y="117" type="curve"/>
      <point x="536" y="117"/>
      <point x="717" y="117"/>
      <point x="536" y="117" type="curve"/>
      <point x="536" y="0"/>
      <point x="536" y="117"/>
      <point x="536" y="0" type="curve"/>
      <point x="596" y="0"/>
      <point x="656" y="0"/>
      <point x="717" y="0" type="curve"/>
    </contour>
  </outline>
</glyph>
<glyph name="o" format="1">
  <advance width="799"/>
  <unicode hex="006F"/>
  <outline>
    <contour>
      <point x="209" y="268" type="curve"/>
      <point x="209" y="367"/>
      <point x="285" y="421"/>
      <point x="401" y="421" type="curve"/>
      <point x="525" y="421"/>
      <point x="609" y="368"/>
      <point x="609" y="266" type="curve"/>
      <point x="609" y="160"/>
      <point x="526" y="112"/>
      <point x="413" y="112" type="curve"/>
      <point x="294" y="112"/>
      <point x="209" y="160"/>
      <point x="209" y="268" type="curve"/>
      <point x="48" y="268"/>
      <point x="209" y="268"/>
      <point x="48" y="268" type="curve"/>
      <point x="48" y="78"/>
      <point x="199" y="-5"/>
      <point x="405" y="-5" type="curve"/>
      <point x="615" y="-5"/>
      <point x="769" y="74"/>
      <point x="769" y="266" type="curve"/>
      <point x="769" y="448"/>
      <point x="621" y="538"/>
      <point x="409" y="538" type="curve"/>
      <point x="197" y="538"/>
      <point x="48" y="448"/>
      <point x="48" y="268" type="curve"/>
      <point x="209" y="268"/>
      <point x="48" y="268"/>
    </contour>
  </outline>
</glyph>
<glyph name="p" format="1">
  <advance width="870"/>
  <unicode hex="0070"/>
  <outline>
    <contour>
      <point x="229" y="-183"/>
      <point x="229" y="-300"/>
      <point x="229" y="-183" type="curve"/>
      <point x="35" y="-183"/>
      <point x="229" y="-183"/>
      <point x="35" y="-183" type="curve"/>
      <point x="35" y="-300"/>
      <point x="35" y="-183"/>
      <point x="35" y="-300" type="curve"/>
      <point x="100" y="-300"/>
      <point x="164" y="-300"/>
      <point x="229" y="-300" type="curve"/>
    </contour>
    <contour>
      <point x="229" y="-300"/>
      <point x="229" y="-183"/>
      <point x="229" y="-300" type="curve"/>
      <point x="289" y="-300"/>
      <point x="350" y="-300"/>
      <point x="410" y="-300" type="curve"/>
      <point x="410" y="-183"/>
      <point x="410" y="-300"/>
      <point x="410" y="-183" type="curve"/>
      <point x="229" y="-183"/>
      <point x="410" y="-183"/>
      <point x="229" y="-183" type="curve"/>
    </contour>
    <contour>
      <point x="230" y="533"/>
      <point x="230" y="416"/>
      <point x="230" y="533" type="curve"/>
      <point x="166" y="533"/>
      <point x="101" y="533"/>
      <point x="37" y="533" type="curve"/>
      <point x="36" y="416"/>
      <point x="37" y="533"/>
      <point x="36" y="416" type="curve"/>
      <point x="230" y="416"/>
      <point x="36" y="416"/>
      <point x="230" y="416" type="curve"/>
    </contour>
    <contour>
      <point x="269" y="340"/>
      <point x="188" y="422"/>
      <point x="269" y="340" type="curve"/>
      <point x="317" y="381"/>
      <point x="403" y="423"/>
      <point x="503" y="423" type="curve"/>
      <point x="621" y="423"/>
      <point x="695" y="358"/>
      <point x="695" y="263" type="curve"/>
      <point x="697" y="155"/>
      <point x="610" y="111"/>
      <point x="505" y="112" type="curve"/>
      <point x="421" y="112"/>
      <point x="375" y="121"/>
      <point x="280" y="168" type="curve"/>
      <point x="178" y="104"/>
      <point x="280" y="168"/>
      <point x="178" y="104" type="curve"/>
      <point x="294" y="15"/>
      <point x="379" y="-5"/>
      <point x="505" y="-5" type="curve"/>
      <point x="699" y="-5"/>
      <point x="856" y="80"/>
      <point x="855" y="269" type="curve"/>
      <point x="855" y="437"/>
      <point x="711" y="540"/>
      <point x="510" y="540" type="curve"/>
      <point x="374" y="540"/>
      <point x="256" y="480"/>
      <point x="188" y="422" type="curve"/>
    </contour>
    <contour>
      <point x="309" y="-300"/>
      <point x="149" y="-300"/>
      <point x="309" y="-300" type="curve"/>
      <point x="309" y="-22"/>
      <point x="309" y="255"/>
      <point x="309" y="533" type="curve"/>
      <point x="149" y="533"/>
      <point x="309" y="533"/>
      <point x="149" y="533" type="curve"/>
      <point x="149" y="255"/>
      <point x="149" y="-22"/>
      <point x="149" y="-300" type="curve"/>
    </contour>
  </outline>
</glyph>
<glyph name="r" format="1">
  <advance width="569"/>
  <unicode hex="0072"/>
  <outline>
    <contour>
      <point x="226" y="0"/>
      <point x="226" y="117"/>
      <point x="226" y="0" type="curve"/>
      <point x="286" y="0"/>
      <point x="346" y="0"/>
      <point x="407" y="0" type="curve"/>
      <point x="407" y="117"/>
      <point x="407" y="0"/>
      <point x="407" y="117" type="curve"/>
      <point x="226" y="117"/>
      <point x="407" y="117"/>
      <point x="226" y="117" type="curve"/>
    </contour>
    <contour>
      <point x="226" y="117"/>
      <point x="226" y="0"/>
      <point x="226" y="117" type="curve"/>
      <point x="32" y="117"/>
      <point x="226" y="117"/>
      <point x="32" y="117" type="curve"/>
      <point x="32" y="0"/>
      <point x="32" y="117"/>
      <point x="32" y="0" type="curve"/>
      <point x="96" y="0"/>
      <point x="161" y="0"/>
      <point x="226" y="0" type="curve"/>
    </contour>
    <contour>
      <point x="224" y="533"/>
      <point x="224" y="416"/>
      <point x="224" y="533" type="curve"/>
      <point x="160" y="533"/>
      <point x="95" y="533"/>
      <point x="31" y="533" type="curve"/>
      <point x="30" y="416"/>
      <point x="31" y="533"/>
      <point x="30" y="416" type="curve"/>
      <point x="224" y="416"/>
      <point x="30" y="416"/>
      <point x="224" y="416" type="curve"/>
    </contour>
    <contour>
      <point x="306" y="0"/>
      <point x="145" y="0"/>
      <point x="306" y="0" type="curve"/>
      <point x="306" y="178"/>
      <point x="306" y="355"/>
      <point x="306" y="533" type="curve"/>
      <point x="145" y="533"/>
      <point x="306" y="533"/>
      <point x="145" y="533" type="curve"/>
      <point x="145" y="355"/>
      <point x="145" y="178"/>
      <point x="145" y="0" type="curve"/>
    </contour>
    <contour>
      <point x="265" y="308"/>
      <point x="213" y="396"/>
      <point x="265" y="308" type="curve"/>
      <point x="337" y="420"/>
      <point x="437" y="417"/>
      <point x="549" y="417" type="curve"/>
      <point x="549" y="539"/>
      <point x="549" y="416"/>
      <point x="549" y="538" type="curve"/>
      <point x="411" y="538"/>
      <point x="300" y="503"/>
      <point x="213" y="396" type="curve"/>
    </contour>
  </outline>
</glyph>
<glyph name="t" format="1">
  <advance width="554"/>
  <unicode hex="0074"/>
  <outline>
    <contour>
      <point x="40" y="417"/>
      <point x="40" y="534"/>
      <point x="40" y="417" type="curve"/>
      <point x="40" y="417"/>
      <point x="496" y="417"/>
      <point x="496" y="417" type="curve"/>
      <point x="496" y="534"/>
      <point x="496" y="417"/>
      <point x="496" y="534" type="curve"/>
      <point x="496" y="534"/>
      <point x="40" y="534"/>
      <point x="40" y="534" type="curve"/>
    </contour>
    <contour>
      <point x="490" y="131"/>
      <point x="529" y="27"/>
      <point x="490" y="131" type="curve"/>
      <point x="457" y="118"/>
      <point x="431" y="116"/>
      <point x="396" y="116" type="curve"/>
      <point x="349" y="116"/>
      <point x="320" y="133"/>
      <point x="320" y="178" type="curve"/>
      <point x="320" y="178"/>
      <point x="320" y="661"/>
      <point x="320" y="661" type="curve"/>
      <point x="160" y="586"/>
      <point x="320" y="661"/>
      <point x="160" y="586" type="curve"/>
      <point x="160" y="586"/>
      <point x="160" y="172"/>
      <point x="160" y="172" type="curve"/>
      <point x="160" y="45"/>
      <point x="249" y="-6"/>
      <point x="381" y="-6" type="curve"/>
      <point x="447" y="-6"/>
      <point x="492" y="10"/>
      <point x="529" y="27" type="curve"/>
    </contour>
  </outline>
</glyph>
<glyph name="v" format="1">
  <advance width="916"/>
  <unicode hex="0076"/>
  <outline>
    <contour>
      <point x="212" y="533"/>
      <point x="212" y="416"/>
      <point x="212" y="533" type="curve"/>
      <point x="147" y="533"/>
      <point x="82" y="533"/>
      <point x="18" y="533" type="curve"/>
      <point x="18" y="416"/>
      <point x="18" y="533"/>
      <point x="18" y="416" type="curve"/>
      <point x="212" y="416"/>
      <point x="18" y="416"/>
      <point x="212" y="416" type="curve"/>
    </contour>
    <contour>
      <point x="212" y="416"/>
      <point x="212" y="533"/>
      <point x="212" y="416" type="curve"/>
      <point x="406" y="416"/>
      <point x="212" y="416"/>
      <point x="406" y="416" type="curve"/>
      <point x="406" y="533"/>
      <point x="406" y="416"/>
      <point x="406" y="533" type="curve"/>
      <point x="341" y="533"/>
      <point x="276" y="533"/>
      <point x="212" y="533" type="curve"/>
    </contour>
    <contour>
      <point x="703" y="533"/>
      <point x="703" y="416"/>
      <point x="703" y="533" type="curve"/>
      <point x="639" y="533"/>
      <point x="574" y="533"/>
      <point x="509" y="533" type="curve"/>
      <point x="509" y="416"/>
      <point x="509" y="533"/>
      <point x="509" y="416" type="curve"/>
      <point x="703" y="416"/>
      <point x="509" y="416"/>
      <point x="703" y="416" type="curve"/>
    </contour>
    <contour>
      <point x="703" y="416"/>
      <point x="703" y="533"/>
      <point x="703" y="416" type="curve"/>
      <point x="897" y="416"/>
      <point x="703" y="416"/>
      <point x="897" y="416" type="curve"/>
      <point x="897" y="533"/>
      <point x="897" y="416"/>
      <point x="897" y="533" type="curve"/>
      <point x="833" y="533"/>
      <point x="768" y="533"/>
      <point x="703" y="533" type="curve"/>
    </contour>
    <contour>
      <point x="97" y="533"/>
      <point x="260" y="533"/>
      <point x="97" y="533" type="curve"/>
      <point x="187" y="355"/>
      <point x="277" y="178"/>
      <point x="367" y="0" type="curve"/>
      <point x="528" y="0"/>
      <point x="367" y="0"/>
      <point x="528" y="0" type="curve"/>
      <point x="439" y="178"/>
      <point x="349" y="355"/>
      <point x="260" y="533" type="curve"/>
    </contour>
    <contour>
      <point x="656" y="533"/>
      <point x="818" y="533"/>
      <point x="656" y="533" type="curve"/>
      <point x="656" y="533"/>
      <point x="373" y="0"/>
      <point x="373" y="0" type="curve"/>
      <point x="534" y="0"/>
      <point x="373" y="0"/>
      <point x="534" y="0" type="curve"/>
      <point x="629" y="178"/>
      <point x="723" y="355"/>
      <point x="818" y="533" type="curve"/>
    </contour>
  </outline>
</glyph>
<glyph name="dvI" format="1">
  <advance width="751"/>
  <unicode hex="0907"/>
  <outline>
    <contour>
      <point x="-11" y="605"/>
      <point x="-11" y="722"/>
      <point x="-11" y="605" type="curve"/>
      <point x="242" y="605"/>
      <point x="519" y="605"/>
      <point x="772" y="605" type="curve"/>
      <point x="772" y="722"/>
      <point x="772" y="605"/>
      <point x="772" y="722" type="curve"/>
      <point x="519" y="722"/>
      <point x="242" y="722"/>
      <point x="-11" y="722" type="curve"/>
    </contour>
    <contour>
      <point x="212" y="218"/>
      <point x="232" y="353"/>
      <point x="212" y="218" type="curve"/>
      <point x="302" y="246"/>
      <point x="357" y="267"/>
      <point x="452" y="267" type="curve"/>
      <point x="510" y="267"/>
      <point x="560" y="266"/>
      <point x="560" y="211" type="curve"/>
      <point x="560" y="135"/>
      <point x="468" y="145"/>
      <point x="365" y="145" type="curve"/>
      <point x="294" y="145"/>
      <point x="239" y="150"/>
      <point x="185" y="204" type="curve"/>
      <point x="83" y="131"/>
      <point x="185" y="204"/>
      <point x="83" y="131" type="curve"/>
      <point x="125" y="13"/>
      <point x="232" y="23"/>
      <point x="365" y="23" type="curve"/>
      <point x="563" y="23"/>
      <point x="721" y="49"/>
      <point x="721" y="220" type="curve"/>
      <point x="719" y="346"/>
      <point x="612" y="384"/>
      <point x="467" y="384" type="curve"/>
      <point x="377" y="385"/>
      <point x="295" y="376"/>
      <point x="232" y="353" type="curve"/>
    </contour>
    <contour>
      <point x="83" y="131"/>
      <point x="185" y="204"/>
      <point x="83" y="131" type="curve"/>
      <point x="183" y="53"/>
      <point x="278" y="-30"/>
      <point x="404" y="-128" type="curve"/>
      <point x="501" y="-33"/>
      <point x="404" y="-128"/>
      <point x="501" y="-33" type="curve"/>
      <point x="399" y="51"/>
      <point x="317" y="133"/>
      <point x="185" y="204" type="curve"/>
    </contour>
    <contour>
      <point x="640" y="451"/>
      <point x="480" y="568"/>
      <point x="640" y="451" type="curve"/>
      <point x="640" y="522"/>
      <point x="640" y="592"/>
      <point x="640" y="663" type="curve"/>
      <point x="480" y="663"/>
      <point x="640" y="663"/>
      <point x="480" y="663" type="curve"/>
      <point x="480" y="631"/>
      <point x="480" y="599"/>
      <point x="480" y="568" type="curve"/>
    </contour>
    <contour>
      <point x="480" y="568"/>
      <point x="640" y="451"/>
      <point x="480" y="568" type="curve"/>
      <point x="420" y="568"/>
      <point x="361" y="568"/>
      <point x="302" y="568" type="curve"/>
      <point x="150" y="568"/>
      <point x="27" y="546"/>
      <point x="27" y="409" type="curve"/>
      <point x="27" y="299"/>
      <point x="110" y="260"/>
      <point x="212" y="218" type="curve"/>
      <point x="232" y="353"/>
      <point x="212" y="218"/>
      <point x="232" y="353" type="curve"/>
      <point x="208" y="370"/>
      <point x="188" y="383"/>
      <point x="188" y="409" type="curve"/>
      <point x="188" y="455"/>
      <point x="243" y="451"/>
      <point x="302" y="451" type="curve"/>
      <point x="415" y="451"/>
      <point x="528" y="451"/>
      <point x="640" y="451" type="curve"/>
    </contour>
  </outline>
</glyph>
<glyph name="dvII" format="1">
  <advance width="785"/>
  <unicode hex="0908"/>
  <outline>
    <contour>
      <point x="631" y="451"/>
      <point x="471" y="568"/>
      <point x="631" y="451" type="curve"/>
      <point x="631" y="522"/>
      <point x="631" y="592"/>
      <point x="631" y="663" type="curve"/>
      <point x="471" y="663"/>
      <point x="631" y="663"/>
      <point x="471" y="663" type="curve"/>
      <point x="471" y="631"/>
      <point x="471" y="599"/>
      <point x="471" y="568" type="curve"/>
    </contour>
    <contour>
      <point x="201" y="232"/>
      <point x="224" y="364"/>
      <point x="201" y="232" type="curve"/>
      <point x="293" y="246"/>
      <point x="348" y="267"/>
      <point x="443" y="267" type="curve"/>
      <point x="501" y="267"/>
      <point x="551" y="253"/>
      <point x="551" y="209" type="curve"/>
      <point x="551" y="134"/>
      <point x="459" y="145"/>
      <point x="356" y="145" type="curve"/>
      <point x="285" y="145"/>
      <point x="230" y="150"/>
      <point x="206" y="213" type="curve"/>
      <point x="74" y="131"/>
      <point x="206" y="213"/>
      <point x="74" y="131" type="curve"/>
      <point x="116" y="13"/>
      <point x="223" y="23"/>
      <point x="356" y="23" type="curve"/>
      <point x="554" y="23"/>
      <point x="712" y="49"/>
      <point x="712" y="220" type="curve"/>
      <point x="710" y="346"/>
      <point x="602" y="391"/>
      <point x="458" y="391" type="curve"/>
      <point x="368" y="392"/>
      <point x="310" y="387"/>
      <point x="224" y="364" type="curve"/>
    </contour>
    <contour>
      <point x="471" y="568"/>
      <point x="631" y="451"/>
      <point x="471" y="568" type="curve"/>
      <point x="411" y="568"/>
      <point x="352" y="568"/>
      <point x="293" y="568" type="curve"/>
      <point x="141" y="568"/>
      <point x="18" y="546"/>
      <point x="18" y="409" type="curve"/>
      <point x="18" y="299"/>
      <point x="101" y="260"/>
      <point x="201" y="232" type="curve"/>
      <point x="224" y="364"/>
      <point x="201" y="232"/>
      <point x="224" y="364" type="curve"/>
      <point x="201" y="375"/>
      <point x="179" y="383"/>
      <point x="179" y="409" type="curve"/>
      <point x="179" y="463"/>
      <point x="234" y="451"/>
      <point x="293" y="451" type="curve"/>
      <point x="406" y="451"/>
      <point x="519" y="451"/>
      <point x="631" y="451" type="curve"/>
    </contour>
    <contour>
      <point x="-13" y="605"/>
      <point x="-13" y="722"/>
      <point x="-13" y="605" type="curve"/>
      <point x="240" y="605"/>
      <point x="542" y="605"/>
      <point x="795" y="605" type="curve"/>
      <point x="795" y="722"/>
      <point x="795" y="605"/>
      <point x="795" y="722" type="curve"/>
      <point x="542" y="722"/>
      <point x="240" y="722"/>
      <point x="-13" y="722" type="curve"/>
    </contour>
    <contour>
      <point x="74" y="131"/>
      <point x="206" y="213"/>
      <point x="74" y="131" type="curve"/>
      <point x="174" y="53"/>
      <point x="269" y="-30"/>
      <point x="398" y="-127" type="curve"/>
      <point x="515" y="-22"/>
      <point x="398" y="-127"/>
      <point x="515" y="-22" type="curve"/>
      <point x="413" y="58"/>
      <point x="308" y="133"/>
      <point x="206" y="213" type="curve"/>
    </contour>
    <contour>
      <point x="586" y="722"/>
      <point x="586" y="605"/>
      <point x="586" y="722" type="curve"/>
      <point x="508" y="722"/>
      <point x="452" y="753"/>
      <point x="453" y="819" type="curve"/>
      <point x="454" y="874"/>
      <point x="506" y="890"/>
      <point x="572" y="890" type="curve"/>
      <point x="629" y="890"/>
      <point x="670" y="887"/>
      <point x="723" y="869" type="curve"/>
      <point x="788" y="968"/>
      <point x="723" y="869"/>
      <point x="788" y="968" type="curve"/>
      <point x="717" y="993"/>
      <point x="662" y="1006"/>
      <point x="587" y="1006" type="curve"/>
      <point x="420" y="1006"/>
      <point x="293" y="949"/>
      <point x="292" y="808" type="curve"/>
      <point x="292" y="664"/>
      <point x="418" y="605"/>
      <point x="586" y="605" type="curve"/>
    </contour>
  </outline>
</glyph>
<glyph name="dvUU" format="1">
  <advance width="1153"/>
  <unicode hex="090A"/>
  <outline>
    <contour>
      <point x="1161" y="722"/>
      <point x="1161" y="605"/>
      <point x="1161" y="722" type="curve"/>
      <point x="785" y="722"/>
      <point x="360" y="722"/>
      <point x="-15" y="722" type="curve"/>
      <point x="-15" y="605"/>
      <point x="-15" y="722"/>
      <point x="-15" y="605" type="curve"/>
      <point x="360" y="605"/>
      <point x="785" y="605"/>
      <point x="1161" y="605" type="curve"/>
    </contour>
    <contour>
      <point x="347" y="610"/>
      <point x="347" y="715"/>
      <point x="347" y="610" type="curve"/>
      <point x="430" y="610"/>
      <point x="500" y="580"/>
      <point x="500" y="506" type="curve"/>
      <point x="500" y="410"/>
      <point x="378" y="429"/>
      <point x="262" y="429" type="curve"/>
      <point x="262" y="324"/>
      <point x="262" y="429"/>
      <point x="262" y="324" type="curve"/>
      <point x="466" y="324"/>
      <point x="661" y="341"/>
      <point x="661" y="518" type="curve"/>
      <point x="661" y="664"/>
      <point x="514" y="715"/>
      <point x="347" y="715" type="curve"/>
    </contour>
    <contour>
      <point x="42" y="104"/>
      <point x="151" y="180"/>
      <point x="42" y="104" type="curve"/>
      <point x="123" y="42"/>
      <point x="215" y="9"/>
      <point x="328" y="9" type="curve"/>
      <point x="520" y="3"/>
      <point x="688" y="51"/>
      <point x="688" y="214" type="curve"/>
      <point x="688" y="403"/>
      <point x="480" y="423"/>
      <point x="262" y="423" type="curve"/>
      <point x="262" y="324"/>
      <point x="262" y="423"/>
      <point x="262" y="324" type="curve"/>
      <point x="396" y="324"/>
      <point x="528" y="320"/>
      <point x="528" y="209" type="curve"/>
      <point x="528" y="132"/>
      <point x="438" y="123"/>
      <point x="342" y="125" type="curve"/>
      <point x="268" y="125"/>
      <point x="207" y="142"/>
      <point x="151" y="180" type="curve"/>
    </contour>
    <contour>
      <point x="634" y="257"/>
      <point x="510" y="327"/>
      <point x="634" y="257" type="curve"/>
      <point x="663" y="325"/>
      <point x="729" y="353"/>
      <point x="809" y="353" type="curve"/>
      <point x="881" y="353"/>
      <point x="947" y="334"/>
      <point x="948" y="271" type="curve"/>
      <point x="948" y="197"/>
      <point x="873" y="173"/>
      <point x="789" y="173" type="curve"/>
      <point x="789" y="44"/>
      <point x="789" y="173"/>
      <point x="789" y="44" type="curve"/>
      <point x="959" y="44"/>
      <point x="1109" y="108"/>
      <point x="1108" y="259" type="curve"/>
      <point x="1108" y="408"/>
      <point x="961" y="469"/>
      <point x="794" y="469" type="curve"/>
      <point x="667" y="469"/>
      <point x="602" y="430"/>
      <point x="510" y="327" type="curve"/>
    </contour>
  </outline>
</glyph>
<glyph name="dvvL" format="1">
  <advance width="1042"/>
  <unicode hex="090C"/>
  <outline>
    <contour>
      <point x="595" y="296"/>
      <point x="449" y="273"/>
      <point x="595" y="296" type="curve"/>
      <point x="572" y="367"/>
      <point x="635" y="429"/>
      <point x="716" y="429" type="curve"/>
      <point x="794" y="429"/>
      <point x="848" y="418"/>
      <point x="848" y="356" type="curve"/>
      <point x="848" y="305"/>
      <point x="800" y="288"/>
      <point x="758" y="258" type="curve"/>
      <point x="670" y="196"/>
      <point x="573" y="158"/>
      <point x="572" y="52" type="curve"/>
      <point x="572" y="-56"/>
      <point x="674" y="-99"/>
      <point x="793" y="-99" type="curve"/>
      <point x="868" y="-99"/>
      <point x="924" y="-83"/>
      <point x="966" y="-56" type="curve"/>
      <point x="911" y="51"/>
      <point x="966" y="-56"/>
      <point x="911" y="51" type="curve"/>
      <point x="876" y="34"/>
      <point x="847" y="15"/>
      <point x="807" y="15" type="curve"/>
      <point x="766" y="15"/>
      <point x="739" y="26"/>
      <point x="739" y="57" type="curve"/>
      <point x="739" y="105"/>
      <point x="796" y="123"/>
      <point x="845" y="158" type="curve"/>
      <point x="929" y="217"/>
      <point x="1009" y="263"/>
      <point x="1009" y="362" type="curve"/>
      <point x="1009" y="499"/>
      <point x="873" y="546"/>
      <point x="718" y="546" type="curve"/>
      <point x="518" y="546"/>
      <point x="400" y="426"/>
      <point x="449" y="273" type="curve"/>
    </contour>
    <contour>
      <point x="1060" y="722"/>
      <point x="1060" y="605"/>
      <point x="1060" y="722" type="curve"/>
      <point x="712" y="722"/>
      <point x="328" y="722"/>
      <point x="-20" y="722" type="curve"/>
      <point x="-20" y="605"/>
      <point x="-20" y="722"/>
      <point x="-20" y="605" type="curve"/>
      <point x="328" y="605"/>
      <point x="712" y="605"/>
      <point x="1060" y="605" type="curve"/>
    </contour>
    <contour>
      <point x="629" y="663"/>
      <point x="789" y="663"/>
      <point x="629" y="663" type="curve"/>
      <point x="629" y="605"/>
      <point x="629" y="547"/>
      <point x="629" y="489" type="curve"/>
      <point x="789" y="489"/>
      <point x="629" y="489"/>
      <point x="789" y="489" type="curve"/>
      <point x="789" y="547"/>
      <point x="789" y="605"/>
      <point x="789" y="663" type="curve"/>
    </contour>
    <contour>
      <point x="346" y="155"/>
      <point x="265" y="56"/>
      <point x="346" y="155" type="curve"/>
      <point x="259" y="191"/>
      <point x="187" y="235"/>
      <point x="187" y="325" type="curve"/>
      <point x="187" y="390"/>
      <point x="236" y="431"/>
      <point x="304" y="431" type="curve"/>
      <point x="381" y="431"/>
      <point x="441" y="418"/>
      <point x="504" y="374" type="curve"/>
      <point x="577" y="467"/>
      <point x="504" y="374"/>
      <point x="577" y="467" type="curve"/>
      <point x="496" y="526"/>
      <point x="418" y="548"/>
      <point x="319" y="548" type="curve"/>
      <point x="155" y="548"/>
      <point x="27" y="470"/>
      <point x="27" y="319" type="curve"/>
      <point x="27" y="181"/>
      <point x="133" y="109"/>
      <point x="265" y="56" type="curve"/>
    </contour>
  </outline>
</glyph>
<glyph name="dvAI" format="1">
  <advance width="786"/>
  <unicode hex="0910"/>
  <outline>
    <contour>
      <point x="516" y="223"/>
      <point x="421" y="328"/>
      <point x="516" y="223" type="curve"/>
      <point x="644" y="277"/>
      <point x="729" y="359"/>
      <point x="729" y="496" type="curve"/>
      <point x="729" y="550"/>
      <point x="729" y="604"/>
      <point x="729" y="658" type="curve"/>
      <point x="569" y="658"/>
      <point x="729" y="658"/>
      <point x="569" y="658" type="curve"/>
      <point x="569" y="598"/>
      <point x="569" y="538"/>
      <point x="569" y="479" type="curve"/>
      <point x="569" y="396"/>
      <point x="501" y="361"/>
      <point x="421" y="328" type="curve"/>
    </contour>
    <contour>
      <point x="800" y="722"/>
      <point x="800" y="605"/>
      <point x="800" y="722" type="curve"/>
      <point x="533" y="722"/>
      <point x="254" y="722"/>
      <point x="-13" y="722" type="curve"/>
      <point x="-13" y="605"/>
      <point x="-13" y="722"/>
      <point x="-13" y="605" type="curve"/>
      <point x="254" y="605"/>
      <point x="533" y="605"/>
      <point x="800" y="605" type="curve"/>
    </contour>
    <contour>
      <point x="610" y="106"/>
      <point x="559" y="-10"/>
      <point x="610" y="106" type="curve"/>
      <point x="408" y="162"/>
      <point x="238" y="237"/>
      <point x="238" y="434" type="curve"/>
      <point x="238" y="510"/>
      <point x="238" y="586"/>
      <point x="238" y="663" type="curve"/>
      <point x="77" y="663"/>
      <point x="238" y="663"/>
      <point x="77" y="663" type="curve"/>
      <point x="77" y="579"/>
      <point x="77" y="495"/>
      <point x="77" y="411" type="curve"/>
      <point x="77" y="157"/>
      <point x="296" y="58"/>
      <point x="559" y="-10" type="curve"/>
    </contour>
    <contour>
      <point x="32" y="947"/>
      <point x="185" y="947"/>
      <point x="32" y="947" type="curve"/>
      <point x="32" y="775"/>
      <point x="154" y="772"/>
      <point x="350" y="754" type="curve"/>
      <point x="465" y="744"/>
      <point x="569" y="748"/>
      <point x="569" y="670" type="curve"/>
      <point x="729" y="670"/>
      <point x="569" y="670"/>
      <point x="729" y="670" type="curve"/>
      <point x="729" y="841"/>
      <point x="572" y="861"/>
      <point x="372" y="876" type="curve"/>
      <point x="257" y="885"/>
      <point x="185" y="880"/>
      <point x="185" y="947" type="curve"/>
    </contour>
  </outline>
</glyph>
<glyph name="dvOcandra" format="1">
  <advance width="1442"/>
  <unicode hex="0911"/>
  <outline>
    <contour>
      <point x="882" y="0"/>
      <point x="882" y="117"/>
      <point x="882" y="0" type="curve"/>
      <point x="934" y="0"/>
      <point x="882" y="0"/>
      <point x="1037" y="0" type="curve"/>
      <point x="1037" y="117"/>
      <point x="1037" y="0"/>
      <point x="1037" y="117" type="curve"/>
      <point x="882" y="117"/>
      <point x="1037" y="117"/>
      <point x="882" y="117" type="curve"/>
    </contour>
    <contour>
      <point x="882" y="117"/>
      <point x="882" y="0"/>
      <point x="882" y="117" type="curve"/>
      <point x="714" y="117"/>
      <point x="882" y="117"/>
      <point x="714" y="117" type="curve"/>
      <point x="714" y="0"/>
      <point x="714" y="117"/>
      <point x="714" y="0" type="curve"/>
      <point x="770" y="0"/>
      <point x="826" y="0"/>
      <point x="882" y="0" type="curve"/>
    </contour>
    <contour>
      <point x="37" y="117"/>
      <point x="146" y="192"/>
      <point x="37" y="117" type="curve"/>
      <point x="119" y="54"/>
      <point x="219" y="26"/>
      <point x="323" y="26" type="curve"/>
      <point x="520" y="21"/>
      <point x="688" y="58"/>
      <point x="683" y="227" type="curve"/>
      <point x="679" y="417"/>
      <point x="476" y="413"/>
      <point x="257" y="413" type="curve"/>
      <point x="257" y="313"/>
      <point x="257" y="413"/>
      <point x="257" y="313" type="curve"/>
      <point x="391" y="313"/>
      <point x="519" y="340"/>
      <point x="523" y="221" type="curve"/>
      <point x="525" y="139"/>
      <point x="435" y="141"/>
      <point x="337" y="143" type="curve"/>
      <point x="268" y="143"/>
      <point x="202" y="153"/>
      <point x="146" y="192" type="curve"/>
    </contour>
    <contour>
      <point x="1460" y="722"/>
      <point x="1460" y="605"/>
      <point x="1460" y="722" type="curve"/>
      <point x="1276" y="722"/>
      <point x="1051" y="722"/>
      <point x="867" y="722" type="curve"/>
      <point x="867" y="605"/>
      <point x="867" y="722"/>
      <point x="867" y="605" type="curve"/>
      <point x="1051" y="605"/>
      <point x="1276" y="605"/>
      <point x="1460" y="605" type="curve"/>
    </contour>
    <contour>
      <point x="1237" y="117"/>
      <point x="1237" y="0"/>
      <point x="1237" y="117" type="curve"/>
      <point x="1069" y="117"/>
      <point x="1237" y="117"/>
      <point x="1069" y="117" type="curve"/>
      <point x="1069" y="0"/>
      <point x="1069" y="117"/>
      <point x="1069" y="0" type="curve"/>
      <point x="1125" y="0"/>
      <point x="1181" y="0"/>
      <point x="1237" y="0" type="curve"/>
    </contour>
    <contour>
      <point x="174" y="561"/>
      <point x="79" y="660"/>
      <point x="174" y="561" type="curve"/>
      <point x="229" y="588"/>
      <point x="272" y="605"/>
      <point x="334" y="605" type="curve"/>
      <point x="414" y="605"/>
      <point x="483" y="589"/>
      <point x="482" y="520" type="curve"/>
      <point x="481" y="420"/>
      <point x="371" y="438"/>
      <point x="257" y="438" type="curve"/>
      <point x="257" y="333"/>
      <point x="257" y="438"/>
      <point x="257" y="333" type="curve"/>
      <point x="463" y="333"/>
      <point x="642" y="355"/>
      <point x="643" y="532" type="curve"/>
      <point x="643" y="673"/>
      <point x="514" y="722"/>
      <point x="356" y="722" type="curve"/>
      <point x="249" y="722"/>
      <point x="174" y="707"/>
      <point x="79" y="660" type="curve"/>
    </contour>
    <contour>
      <point x="160" y="117"/>
      <point x="37" y="117"/>
      <point x="160" y="117" type="curve"/>
      <point x="160" y="237"/>
      <point x="160" y="154"/>
      <point x="160" y="274" type="curve"/>
      <point x="37" y="274"/>
      <point x="160" y="274"/>
      <point x="37" y="274" type="curve"/>
      <point x="37" y="154"/>
      <point x="37" y="237"/>
      <point x="37" y="117" type="curve"/>
    </contour>
    <contour>
      <point x="1237" y="0"/>
      <point x="1237" y="117"/>
      <point x="1237" y="0" type="curve"/>
      <point x="1297" y="0"/>
      <point x="1358" y="0"/>
      <point x="1418" y="0" type="curve"/>
      <point x="1418" y="117"/>
      <point x="1418" y="0"/>
      <point x="1418" y="117" type="curve"/>
      <point x="1237" y="117"/>
      <point x="1418" y="117"/>
      <point x="1237" y="117" type="curve"/>
    </contour>
    <contour>
      <point x="801" y="722"/>
      <point x="961" y="722"/>
      <point x="801" y="722" type="curve"/>
      <point x="801" y="481"/>
      <point x="801" y="241"/>
      <point x="801" y="0" type="curve"/>
      <point x="961" y="0"/>
      <point x="801" y="0"/>
      <point x="961" y="0" type="curve"/>
      <point x="961" y="241"/>
      <point x="961" y="481"/>
      <point x="961" y="722" type="curve"/>
    </contour>
    <contour>
      <point x="852" y="449"/>
      <point x="903" y="362"/>
      <point x="852" y="449" type="curve"/>
      <point x="676" y="395"/>
      <point x="541" y="397"/>
      <point x="358" y="417" type="curve"/>
      <point x="321" y="347"/>
      <point x="358" y="417"/>
      <point x="321" y="347" type="curve"/>
      <point x="538" y="320"/>
      <point x="700" y="285"/>
      <point x="903" y="362" type="curve"/>
    </contour>
    <contour>
      <point x="1154" y="722"/>
      <point x="1315" y="722"/>
      <point x="1154" y="722" type="curve"/>
      <point x="1154" y="481"/>
      <point x="1154" y="241"/>
      <point x="1154" y="0" type="curve"/>
      <point x="1315" y="0"/>
      <point x="1154" y="0"/>
      <point x="1315" y="0" type="curve"/>
      <point x="1315" y="241"/>
      <point x="1315" y="481"/>
      <point x="1315" y="722" type="curve"/>
    </contour>
    <contour>
      <point x="1205" y="948"/>
      <point x="1359" y="948"/>
      <point x="1205" y="948" type="curve"/>
      <point x="1205" y="885"/>
      <point x="1144" y="876"/>
      <point x="1072" y="876" type="curve"/>
      <point x="995" y="876"/>
      <point x="930" y="882"/>
      <point x="930" y="948" type="curve"/>
      <point x="776" y="948"/>
      <point x="930" y="948"/>
      <point x="776" y="948" type="curve"/>
      <point x="776" y="803"/>
      <point x="898" y="741"/>
      <point x="1057" y="741" type="curve"/>
      <point x="1226" y="741"/>
      <point x="1359" y="796"/>
      <point x="1359" y="948" type="curve"/>
    </contour>
  </outline>
</glyph>
<glyph name="dvKA" format="1">
  <advance width="1117"/>
  <unicode hex="0915"/>
  <outline>
    <contour>
      <point x="560.3" y="116.8"/>
      <point x="560.3" y="0"/>
      <point x="560.3" y="116.8" type="curve"/>
      <point x="366.4" y="116.8"/>
      <point x="560.3" y="116.8"/>
      <point x="366.4" y="116.8" type="curve"/>
      <point x="366.4" y="0"/>
      <point x="366.4" y="116.8"/>
      <point x="366.4" y="0" type="curve"/>
      <point x="431.032687" y="-7.91495991648e-15"/>
      <point x="495.667313" y="7.91495991648e-15"/>
      <point x="560.3" y="0" type="curve"/>
    </contour>
    <contour>
      <point x="560.3" y="0"/>
      <point x="560.3" y="116.8"/>
      <point x="560.3" y="0" type="curve"/>
      <point x="624.932687" y="0"/>
      <point x="689.567313" y="0"/>
      <point x="754.2" y="0" type="curve"/>
      <point x="754.2" y="116.8"/>
      <point x="754.2" y="0"/>
      <point x="754.2" y="116.8" type="curve"/>
      <point x="560.3" y="116.8"/>
      <point x="754.2" y="116.8"/>
      <point x="560.3" y="116.8" type="curve"/>
    </contour>
    <contour>
      <point x="-14.3" y="605.2"/>
      <point x="-14.3" y="722"/>
      <point x="-14.3" y="605.2" type="curve"/>
      <point x="371.36281" y="605.2"/>
      <point x="757.03719" y="605.2"/>
      <point x="1142.7" y="605.2" type="curve"/>
      <point x="1142.7" y="722"/>
      <point x="1142.7" y="605.2"/>
      <point x="1142.7" y="722" type="curve"/>
      <point x="757.03719" y="722"/>
      <point x="371.36281" y="722"/>
      <point x="-14.3" y="722" type="curve"/>
    </contour>
    <contour>
      <point x="478.7" y="710"/>
      <point x="639.3" y="710"/>
      <point x="478.7" y="710" type="curve"/>
      <point x="478.7" y="473.3357"/>
      <point x="478.7" y="236.6643"/>
      <point x="478.7" y="7.86687121695e-15" type="curve"/>
      <point x="639.3" y="-1.57337424339e-14"/>
      <point x="478.7" y="7.86687121695e-15"/>
      <point x="639.3" y="-1.57337424339e-14" type="curve"/>
      <point x="639.3" y="236.6643"/>
      <point x="639.3" y="473.3357"/>
      <point x="639.3" y="710" type="curve"/>
    </contour>
    <contour>
      <point x="503.6" y="356.967293447"/>
      <point x="613.1" y="321.927293447"/>
      <point x="503.6" y="356.967293447" type="curve"/>
      <point x="466.444958892" y="283.883021252"/>
      <point x="391.800801473" y="278.014245014"/>
      <point x="314.6" y="278.014245014" type="curve"/>
      <point x="245.473149961" y="278.014245014"/>
      <point x="180.4" y="301.124722899"/>
      <point x="180.4" y="363.683703704" type="curve"/>
      <point x="180.4" y="428.675738709"/>
      <point x="247.324981797" y="452.606837607"/>
      <point x="319.8" y="452.606837607" type="curve"/>
      <point x="394.407728607" y="452.606837607"/>
      <point x="461.090333657" y="441.863347207"/>
      <point x="508.3" y="378.159088319" type="curve"/>
      <point x="603.2" y="424.879088319"/>
      <point x="508.3" y="378.159088319"/>
      <point x="603.2" y="424.879088319" type="curve"/>
      <point x="537.933418366" y="527.896264404"/>
      <point x="435.352771917" y="569.406837607"/>
      <point x="319.8" y="569.406837607" type="curve"/>
      <point x="162.891818478" y="569.406837607"/>
      <point x="19.8" y="511.942348425"/>
      <point x="19.8" y="369.523703704" type="curve"/>
      <point x="19.8" y="225.946434714"/>
      <point x="159.015050915" y="161.214245014"/>
      <point x="314.6" y="161.214245014" type="curve"/>
      <point x="444.057331067" y="161.214245014"/>
      <point x="555.045582096" y="200.090423143"/>
      <point x="613.1" y="321.927293447" type="curve"/>
    </contour>
    <contour>
      <point x="611.4" y="376.045356125"/>
      <point x="509.2" y="399.405356125"/>
      <point x="611.4" y="376.045356125" type="curve"/>
      <point x="642" y="440"/>
      <point x="709.322822238" y="453.468945869"/>
      <point x="789.1" y="453.468945869" type="curve"/>
      <point x="862.166989634" y="453.468945869"/>
      <point x="927.2" y="444.78199146"/>
      <point x="927.2" y="380.731111111" type="curve"/>
      <point x="927.2" y="325.454763147"/>
      <point x="882.136882048" y="304.920598052"/>
      <point x="831.1" y="280.127977208" type="curve"/>
      <point x="918.7" y="186.687977208"/>
      <point x="831.1" y="280.127977208"/>
      <point x="918.7" y="186.687977208" type="curve"/>
      <point x="1012.64729186" y="229.898388813"/>
      <point x="1087.8" y="274.639599476"/>
      <point x="1087.8" y="374.891111111" type="curve"/>
      <point x="1087.8" y="521.947229778"/>
      <point x="952" y="569"/>
      <point x="789" y="569" type="curve"/>
      <point x="656" y="569"/>
      <point x="555.76896061" y="524.887623257"/>
      <point x="509.2" y="399.405356125" type="curve"/>
    </contour>
  </outline>
</glyph>
<glyph name="dvGHA" format="1">
  <advance width="840"/>
  <unicode hex="0918"/>
  <outline>
    <contour>
      <point x="628" y="304"/>
      <point x="704" y="228"/>
      <point x="628" y="304" type="curve"/>
      <point x="548" y="252"/>
      <point x="486" y="235"/>
      <point x="398" y="235" type="curve"/>
      <point x="301" y="235"/>
      <point x="202" y="237"/>
      <point x="202" y="312" type="curve"/>
      <point x="202" y="394"/>
      <point x="294" y="388"/>
      <point x="383" y="388" type="curve"/>
      <point x="383" y="487"/>
      <point x="383" y="388"/>
      <point x="383" y="487" type="curve"/>
      <point x="210" y="487"/>
      <point x="42" y="464"/>
      <point x="42" y="306" type="curve"/>
      <point x="42" y="156"/>
      <point x="209" y="118"/>
      <point x="391" y="118" type="curve"/>
      <point x="518" y="118"/>
      <point x="642" y="171"/>
      <point x="704" y="228" type="curve"/>
    </contour>
    <contour>
      <point x="223" y="701"/>
      <point x="325" y="625"/>
      <point x="223" y="701" type="curve"/>
      <point x="138" y="690"/>
      <point x="49" y="639"/>
      <point x="50" y="551" type="curve"/>
      <point x="50" y="407"/>
      <point x="213" y="388"/>
      <point x="383" y="388" type="curve"/>
      <point x="383" y="493"/>
      <point x="383" y="388"/>
      <point x="383" y="493" type="curve"/>
      <point x="299" y="493"/>
      <point x="210" y="486"/>
      <point x="210" y="557" type="curve"/>
      <point x="209" y="607"/>
      <point x="274" y="616"/>
      <point x="325" y="625" type="curve"/>
    </contour>
    <contour>
      <point x="593" y="710"/>
      <point x="754" y="710"/>
      <point x="593" y="710" type="curve"/>
      <point x="593" y="473"/>
      <point x="593" y="237"/>
      <point x="593" y="0" type="curve"/>
      <point x="754" y="0"/>
      <point x="593" y="0"/>
      <point x="754" y="0" type="curve"/>
      <point x="754" y="237"/>
      <point x="754" y="473"/>
      <point x="754" y="710" type="curve"/>
    </contour>
    <contour>
      <point x="858" y="722"/>
      <point x="858" y="605"/>
      <point x="858" y="722" type="curve"/>
      <point x="577" y="722"/>
      <point x="276" y="722"/>
      <point x="-5" y="722" type="curve"/>
      <point x="-5" y="605"/>
      <point x="-5" y="722"/>
      <point x="-5" y="605" type="curve"/>
      <point x="276" y="605"/>
      <point x="577" y="605"/>
      <point x="858" y="605" type="curve"/>
    </contour>
  </outline>
</glyph>
<glyph name="dvCA" format="1">
  <advance width="931"/>
  <unicode hex="091A"/>
  <outline>
    <contour>
      <point x="85.8" y="426.743589744"/>
      <point x="85.8" y="543.543589744"/>
      <point x="85.8" y="426.743589744" type="curve"/>
      <point x="237.031821" y="426.743589744"/>
      <point x="388.268179" y="426.743589744"/>
      <point x="539.5" y="426.743589744" type="curve"/>
      <point x="539.5" y="543.543589744"/>
      <point x="539.5" y="426.743589744"/>
      <point x="539.5" y="543.543589744" type="curve"/>
      <point x="388.268179" y="543.543589744"/>
      <point x="237.031821" y="543.543589744"/>
      <point x="85.8" y="543.543589744" type="curve"/>
    </contour>
    <contour>
      <point x="684.1" y="710"/>
      <point x="844.7" y="710"/>
      <point x="684.1" y="710" type="curve"/>
      <point x="684.1" y="473.3357"/>
      <point x="684.1" y="236.6643"/>
      <point x="684.1" y="7.86687121695e-15" type="curve"/>
      <point x="844.7" y="-1.57337424339e-14"/>
      <point x="684.1" y="7.86687121695e-15"/>
      <point x="844.7" y="-1.57337424339e-14" type="curve"/>
      <point x="844.7" y="236.6643"/>
      <point x="844.7" y="473.3357"/>
      <point x="844.7" y="710" type="curve"/>
    </contour>
    <contour>
      <point x="706" y="330"/>
      <point x="794" y="286"/>
      <point x="706" y="329.94980057" type="curve"/>
      <point x="664.994386757" y="272.600716382"/>
      <point x="592.832247741" y="251.288888889"/>
      <point x="513" y="251.288888889" type="curve"/>
      <point x="428.378591318" y="251.288888889"/>
      <point x="357.2" y="259.268739847"/>
      <point x="357.2" y="329.866723647" type="curve"/>
      <point x="357.2" y="415.079655985"/>
      <point x="437" y="426"/>
      <point x="540" y="426" type="curve"/>
      <point x="540" y="531"/>
      <point x="539.5" y="431.721481481"/>
      <point x="539.5" y="536.841481481" type="curve"/>
      <point x="341.660570607" y="536.841481481"/>
      <point x="196.6" y="490.105244151"/>
      <point x="196.6" y="324.026723647" type="curve"/>
      <point x="196.6" y="180.561193733"/>
      <point x="330.923814865" y="134.488888889"/>
      <point x="498.4" y="134.488888889" type="curve"/>
      <point x="636.244903434" y="134.488888889"/>
      <point x="720" y="176"/>
      <point x="794" y="286" type="curve"/>
    </contour>
    <contour>
      <point x="946.4" y="722"/>
      <point x="946.4" y="605.2"/>
      <point x="946.4" y="722" type="curve"/>
      <point x="625.73654" y="722"/>
      <point x="305.06346" y="722"/>
      <point x="-15.6" y="722" type="curve"/>
      <point x="-15.6" y="605.2"/>
      <point x="-15.6" y="722"/>
      <point x="-15.6" y="605.2" type="curve"/>
      <point x="305.06346" y="605.2"/>
      <point x="625.73654" y="605.2"/>
      <point x="946.4" y="605.2" type="curve"/>
    </contour>
  </outline>
</glyph>
<glyph name="dvDDA" format="1">
  <advance width="757.0"/>
  <unicode hex="0921"/>
  <outline>
    <contour>
      <point x="213" y="209"/>
      <point x="231" y="348"/>
      <point x="213" y="209" type="curve"/>
      <point x="295" y="232"/>
      <point x="348" y="250"/>
      <point x="433" y="251" type="curve"/>
      <point x="506" y="251"/>
      <point x="561" y="245"/>
      <point x="561" y="187" type="curve"/>
      <point x="561" y="112"/>
      <point x="468" y="111"/>
      <point x="366" y="111" type="curve"/>
      <point x="285" y="111"/>
      <point x="232" y="120"/>
      <point x="122" y="165" type="curve"/>
      <point x="59" y="58"/>
      <point x="122" y="165"/>
      <point x="59" y="58" type="curve"/>
      <point x="153" y="8"/>
      <point x="238" y="-12"/>
      <point x="366" y="-12" type="curve"/>
      <point x="561" y="-12"/>
      <point x="722" y="19"/>
      <point x="722" y="187" type="curve"/>
      <point x="720" y="322"/>
      <point x="607" y="375"/>
      <point x="447" y="375" type="curve"/>
      <point x="366" y="376"/>
      <point x="313" y="377"/>
      <point x="231" y="348" type="curve"/>
    </contour>
    <contour>
      <point x="-19" y="605"/>
      <point x="-19" y="722"/>
      <point x="-19" y="605" type="curve"/>
      <point x="237" y="605"/>
      <point x="527" y="605"/>
      <point x="784" y="605" type="curve"/>
      <point x="784" y="722"/>
      <point x="784" y="605"/>
      <point x="784" y="722" type="curve"/>
      <point x="527" y="722"/>
      <point x="237" y="722"/>
      <point x="-19" y="722" type="curve"/>
    </contour>
    <contour>
      <point x="481" y="568"/>
      <point x="641" y="451"/>
      <point x="481" y="568" type="curve"/>
      <point x="421" y="568"/>
      <point x="362" y="568"/>
      <point x="303" y="568" type="curve"/>
      <point x="151" y="568"/>
      <point x="28" y="534"/>
      <point x="28" y="401" type="curve"/>
      <point x="28" y="294"/>
      <point x="109" y="252"/>
      <point x="213" y="209" type="curve"/>
      <point x="231" y="348"/>
      <point x="213" y="209"/>
      <point x="231" y="348" type="curve"/>
      <point x="207" y="362"/>
      <point x="189" y="374"/>
      <point x="189" y="401" type="curve"/>
      <point x="189" y="453"/>
      <point x="243" y="451"/>
      <point x="303" y="451" type="curve"/>
      <point x="416" y="451"/>
      <point x="529" y="451"/>
      <point x="641" y="451" type="curve"/>
    </contour>
    <contour>
      <point x="641" y="451"/>
      <point x="481" y="568"/>
      <point x="641" y="451" type="curve"/>
      <point x="641" y="522"/>
      <point x="641" y="592"/>
      <point x="641" y="663" type="curve"/>
      <point x="481" y="663"/>
      <point x="641" y="663"/>
      <point x="481" y="663" type="curve"/>
      <point x="481" y="631"/>
      <point x="481" y="599"/>
      <point x="481" y="568" type="curve"/>
    </contour>
  </outline>
</glyph>
<glyph name="dvNNA" format="1">
  <advance width="1112"/>
  <unicode hex="0923"/>
  <outline>
    <contour>
      <point x="919" y="0"/>
      <point x="919" y="117"/>
      <point x="919" y="0" type="curve"/>
      <point x="979" y="0"/>
      <point x="1039" y="0"/>
      <point x="1100" y="0" type="curve"/>
      <point x="1100" y="117"/>
      <point x="1100" y="0"/>
      <point x="1100" y="117" type="curve"/>
      <point x="919" y="117"/>
      <point x="1100" y="117"/>
      <point x="919" y="117" type="curve"/>
    </contour>
    <contour>
      <point x="919" y="117"/>
      <point x="919" y="0"/>
      <point x="919" y="117" type="curve"/>
      <point x="725" y="117"/>
      <point x="919" y="117"/>
      <point x="725" y="117" type="curve"/>
      <point x="725" y="0"/>
      <point x="725" y="117"/>
      <point x="725" y="0" type="curve"/>
      <point x="789" y="0"/>
      <point x="854" y="0"/>
      <point x="919" y="0" type="curve"/>
    </contour>
    <contour>
      <point x="1128" y="722"/>
      <point x="1128" y="605"/>
      <point x="1128" y="722" type="curve"/>
      <point x="779" y="722"/>
      <point x="340" y="722"/>
      <point x="-9" y="722" type="curve"/>
      <point x="-9" y="605"/>
      <point x="-9" y="722"/>
      <point x="-9" y="605" type="curve"/>
      <point x="340" y="605"/>
      <point x="779" y="605"/>
      <point x="1128" y="605" type="curve"/>
    </contour>
    <contour>
      <point x="83" y="662"/>
      <point x="244" y="662"/>
      <point x="83" y="662" type="curve"/>
      <point x="83" y="575"/>
      <point x="83" y="489"/>
      <point x="83" y="402" type="curve"/>
      <point x="83" y="253"/>
      <point x="217" y="183"/>
      <point x="382" y="183" type="curve"/>
      <point x="547" y="183"/>
      <point x="679" y="254"/>
      <point x="679" y="402" type="curve"/>
      <point x="679" y="489"/>
      <point x="679" y="575"/>
      <point x="679" y="662" type="curve"/>
      <point x="519" y="662"/>
      <point x="679" y="662"/>
      <point x="519" y="662" type="curve"/>
      <point x="519" y="569"/>
      <point x="519" y="477"/>
      <point x="519" y="385" type="curve"/>
      <point x="519" y="320"/>
      <point x="455" y="300"/>
      <point x="382" y="300" type="curve"/>
      <point x="308" y="300"/>
      <point x="244" y="321"/>
      <point x="244" y="385" type="curve"/>
      <point x="244" y="477"/>
      <point x="244" y="569"/>
      <point x="244" y="662" type="curve"/>
    </contour>
    <contour>
      <point x="838" y="710"/>
      <point x="999" y="710"/>
      <point x="838" y="710" type="curve"/>
      <point x="838" y="473"/>
      <point x="838" y="237"/>
      <point x="838" y="0" type="curve"/>
      <point x="999" y="0"/>
      <point x="838" y="0"/>
      <point x="999" y="0" type="curve"/>
      <point x="999" y="237"/>
      <point x="999" y="473"/>
      <point x="999" y="710" type="curve"/>
    </contour>
  </outline>
</glyph>
<glyph name="dvTA" format="1">
  <advance width="856"/>
  <unicode hex="0924"/>
  <outline>
    <contour>
      <point x="396" y="108"/>
      <point x="342" y="3"/>
      <point x="395.7" y="108.373675214" type="curve"/>
      <point x="285.30949036" y="143.941272468"/>
      <point x="190.8" y="174.486603363"/>
      <point x="190.8" y="271.340740741" type="curve"/>
      <point x="190.8" y="364.300957296"/>
      <point x="273.491479536" y="386.224501425"/>
      <point x="359.2" y="386.224501425" type="curve"/>
      <point x="459.598996" y="386.224501425"/>
      <point x="560.001004" y="386.224501425"/>
      <point x="660.4" y="386.224501425" type="curve"/>
      <point x="660.4" y="503.024501425"/>
      <point x="660.4" y="386.224501425"/>
      <point x="660.4" y="503.024501425" type="curve"/>
      <point x="557.567695" y="503.024501425"/>
      <point x="454.732305" y="503.024501425"/>
      <point x="351.9" y="503.024501425" type="curve"/>
      <point x="185.796420449" y="503.024501425"/>
      <point x="30.2" y="452.01332162"/>
      <point x="30.2" y="271.340740741" type="curve"/>
      <point x="30.2" y="127.031492494"/>
      <point x="148" y="54"/>
      <point x="342" y="3" type="curve"/>
    </contour>
    <contour>
      <point x="661.7" y="0"/>
      <point x="661.7" y="116.8"/>
      <point x="661.7" y="0" type="curve"/>
      <point x="721.999397" y="0"/>
      <point x="782.300603" y="0"/>
      <point x="842.6" y="0" type="curve"/>
      <point x="842.6" y="116.8"/>
      <point x="842.6" y="0"/>
      <point x="842.6" y="116.8" type="curve"/>
      <point x="661.7" y="116.8"/>
      <point x="842.6" y="116.8"/>
      <point x="661.7" y="116.8" type="curve"/>
    </contour>
    <contour>
      <point x="739.4" y="0"/>
      <point x="578.8" y="7.86687121695e-15"/>
      <point x="739.4" y="0" type="curve"/>
      <point x="739.4" y="236.6643"/>
      <point x="739.4" y="473.3357"/>
      <point x="739.4" y="710" type="curve"/>
      <point x="578.8" y="710"/>
      <point x="739.4" y="710"/>
      <point x="578.8" y="710" type="curve"/>
      <point x="578.8" y="473.3357"/>
      <point x="578.8" y="236.6643"/>
      <point x="578.8" y="7.86687121695e-15" type="curve"/>
    </contour>
    <contour>
      <point x="-16" y="617"/>
      <point x="-16" y="710"/>
      <point x="-16" y="605" type="curve"/>
      <point x="270" y="605"/>
      <point x="591" y="605"/>
      <point x="876" y="605" type="curve"/>
      <point x="876" y="710"/>
      <point x="876" y="617"/>
      <point x="876" y="722" type="curve"/>
      <point x="591" y="722"/>
      <point x="270" y="722"/>
      <point x="-16" y="722" type="curve"/>
    </contour>
  </outline>
</glyph>
<glyph name="dvTHA" format="1">
  <advance width="803.0"/>
  <unicode hex="0925"/>
  <outline>
    <contour>
      <point x="704" y="0"/>
      <point x="704" y="117"/>
      <point x="704" y="0" type="curve"/>
      <point x="764" y="0"/>
      <point x="825" y="0"/>
      <point x="885" y="0" type="curve"/>
      <point x="885" y="117"/>
      <point x="885" y="0"/>
      <point x="885" y="117" type="curve"/>
      <point x="704" y="117"/>
      <point x="885" y="117"/>
      <point x="704" y="117" type="curve"/>
    </contour>
    <contour>
      <point x="704" y="117"/>
      <point x="704" y="0"/>
      <point x="704" y="117" type="curve"/>
      <point x="510" y="117"/>
      <point x="704" y="117"/>
      <point x="510" y="117" type="curve"/>
      <point x="510" y="0"/>
      <point x="510" y="117"/>
      <point x="510" y="0" type="curve"/>
      <point x="575" y="0"/>
      <point x="639" y="0"/>
      <point x="704" y="0" type="curve"/>
    </contour>
    <contour>
      <point x="688" y="617"/>
      <point x="688" y="710"/>
      <point x="688" y="605" type="curve"/>
      <point x="758" y="605"/>
      <point x="839" y="605"/>
      <point x="909" y="605" type="curve"/>
      <point x="909" y="710"/>
      <point x="909" y="617"/>
      <point x="909" y="722" type="curve"/>
      <point x="839" y="722"/>
      <point x="758" y="722"/>
      <point x="688" y="722" type="curve"/>
    </contour>
    <contour>
      <point x="783" y="0"/>
      <point x="622" y="0"/>
      <point x="783" y="0" type="curve"/>
      <point x="783" y="241"/>
      <point x="783" y="481"/>
      <point x="783" y="722" type="curve"/>
      <point x="622" y="722"/>
      <point x="783" y="722"/>
      <point x="622" y="722" type="curve"/>
      <point x="622" y="481"/>
      <point x="622" y="241"/>
      <point x="622" y="0" type="curve"/>
    </contour>
    <contour>
      <point x="181" y="340"/>
      <point x="26" y="444"/>
      <point x="181" y="340" type="curve"/>
      <point x="357" y="328"/>
      <point x="522" y="366"/>
      <point x="522" y="540" type="curve"/>
      <point x="521" y="667"/>
      <point x="426" y="727"/>
      <point x="288" y="727" type="curve"/>
      <point x="163" y="727"/>
      <point x="68" y="687"/>
      <point x="66" y="575" type="curve"/>
      <point x="66" y="504"/>
      <point x="138" y="460"/>
      <point x="224" y="456" type="curve"/>
      <point x="263" y="546"/>
      <point x="224" y="456"/>
      <point x="263" y="546" type="curve"/>
      <point x="242" y="555"/>
      <point x="233" y="556"/>
      <point x="233" y="579" type="curve"/>
      <point x="233" y="603"/>
      <point x="252" y="610"/>
      <point x="281" y="610" type="curve"/>
      <point x="328" y="610"/>
      <point x="360" y="586"/>
      <point x="361" y="540" type="curve"/>
      <point x="361" y="424"/>
      <point x="187" y="444"/>
      <point x="26" y="444" type="curve"/>
    </contour>
    <contour>
      <point x="26" y="444"/>
      <point x="181" y="340"/>
      <point x="26" y="444" type="curve"/>
      <point x="9" y="236"/>
      <point x="159" y="130"/>
      <point x="375" y="130" type="curve"/>
      <point x="537" y="130"/>
      <point x="652" y="159"/>
      <point x="757" y="285" type="curve"/>
      <point x="647" y="326"/>
      <point x="757" y="285"/>
      <point x="647" y="326" type="curve"/>
      <point x="580" y="254"/>
      <point x="500" y="247"/>
      <point x="397" y="247" type="curve"/>
      <point x="276" y="247"/>
      <point x="181" y="284"/>
      <point x="181" y="340" type="curve"/>
    </contour>
  </outline>
</glyph>
<glyph name="dvRA" format="1">
  <advance width="591"/>
  <unicode hex="0930"/>
  <outline>
    <contour>
      <point x="493.7" y="86.5431339031"/>
      <point x="333.1" y="16.4631339031"/>
      <point x="493.7" y="86.5431339031" type="curve"/>
      <point x="383.434952758" y="204.027273366"/>
      <point x="263.065047242" y="311.60811125"/>
      <point x="152.8" y="429.092250712" type="curve"/>
      <point x="21.4" y="376.532250712"/>
      <point x="152.8" y="429.092250712"/>
      <point x="21.4" y="376.532250712" type="curve"/>
      <point x="128.851405914" y="259.632230784"/>
      <point x="225.648594086" y="133.363153831"/>
      <point x="333.1" y="16.4631339031" type="curve"/>
    </contour>
    <contour>
      <point x="607.1" y="722"/>
      <point x="607.1" y="605.2"/>
      <point x="607.1" y="722" type="curve"/>
      <point x="399.535409" y="722"/>
      <point x="191.964591" y="722"/>
      <point x="-15.6" y="722" type="curve"/>
      <point x="-15.6" y="605.2"/>
      <point x="-15.6" y="722"/>
      <point x="-15.6" y="605.2" type="curve"/>
      <point x="191.964591" y="605.2"/>
      <point x="399.535409" y="605.2"/>
      <point x="607.1" y="605.2" type="curve"/>
    </contour>
    <contour>
      <point x="234.5" y="618.506837607"/>
      <point x="344" y="706.106837607"/>
      <point x="234.5" y="618.506837607" type="curve"/>
      <point x="316" y="581"/>
      <point x="378.6" y="541.50261871"/>
      <point x="378.6" y="459.377720798" type="curve"/>
      <point x="378.6" y="403.553464601"/>
      <point x="325.527308366" y="379.743019943"/>
      <point x="262.6" y="379.743019943" type="curve"/>
      <point x="217.377826559" y="379.743019943"/>
      <point x="182.727361829" y="395.094703386"/>
      <point x="152.8" y="429.092250712" type="curve"/>
      <point x="21.4" y="376.532250712"/>
      <point x="152.8" y="429.092250712"/>
      <point x="21.4" y="376.532250712" type="curve"/>
      <point x="85.4544488215" y="316.618111375"/>
      <point x="153.662807993" y="262.943019943"/>
      <point x="262.6" y="262.943019943" type="curve"/>
      <point x="414.693422583" y="262.943019943"/>
      <point x="539.2" y="328.073189628"/>
      <point x="539.2" y="465.217720798" type="curve"/>
      <point x="539.2" y="582.939129261"/>
      <point x="445.329234078" y="641.52856831"/>
      <point x="344" y="706.106837607" type="curve"/>
    </contour>
  </outline>
</glyph>
<glyph name="dvLA" format="1">
  <advance width="1054"/>
  <unicode hex="0932"/>
  <outline>
    <contour>
      <point x="783" y="662"/>
      <point x="944" y="662"/>
      <point x="783" y="662" type="curve"/>
      <point x="783" y="458"/>
      <point x="783" y="254"/>
      <point x="783" y="50" type="curve"/>
      <point x="944" y="50"/>
      <point x="783" y="50"/>
      <point x="944" y="50" type="curve"/>
      <point x="944" y="254"/>
      <point x="944" y="458"/>
      <point x="944" y="662" type="curve"/>
    </contour>
    <contour>
      <point x="1063" y="722"/>
      <point x="1063" y="605"/>
      <point x="1063" y="722" type="curve"/>
      <point x="714" y="722"/>
      <point x="342" y="722"/>
      <point x="-7" y="722" type="curve"/>
      <point x="-7" y="605"/>
      <point x="-7" y="722"/>
      <point x="-7" y="605" type="curve"/>
      <point x="342" y="605"/>
      <point x="714" y="605"/>
      <point x="1063" y="605" type="curve"/>
    </contour>
    <contour>
      <point x="886" y="495"/>
      <point x="835" y="395"/>
      <point x="886" y="495" type="curve"/>
      <point x="825" y="521"/>
      <point x="774" y="539"/>
      <point x="706" y="539" type="curve"/>
      <point x="541" y="539"/>
      <point x="435" y="451"/>
      <point x="435" y="289" type="curve"/>
      <point x="567" y="289"/>
      <point x="435" y="289"/>
      <point x="567" y="289" type="curve"/>
      <point x="567" y="367"/>
      <point x="611" y="422"/>
      <point x="691" y="422" type="curve"/>
      <point x="745" y="422"/>
      <point x="785" y="418"/>
      <point x="835" y="395" type="curve"/>
    </contour>
    <contour>
      <point x="436" y="99"/>
      <point x="373" y="-10"/>
      <point x="436" y="99" type="curve"/>
      <point x="309" y="158"/>
      <point x="185" y="196"/>
      <point x="185" y="335" type="curve"/>
      <point x="185" y="396"/>
      <point x="233" y="425"/>
      <point x="295" y="425" type="curve"/>
      <point x="374" y="425"/>
      <point x="430" y="406"/>
      <point x="494" y="359" type="curve"/>
      <point x="567" y="453"/>
      <point x="494" y="359"/>
      <point x="567" y="453" type="curve"/>
      <point x="485" y="513"/>
      <point x="411" y="542"/>
      <point x="309" y="542" type="curve"/>
      <point x="152" y="542"/>
      <point x="24" y="478"/>
      <point x="24" y="329" type="curve"/>
      <point x="24" y="145"/>
      <point x="177" y="76"/>
      <point x="373" y="-10" type="curve"/>
    </contour>
    <contour>
      <point x="861" y="0"/>
      <point x="861" y="117"/>
      <point x="861" y="0" type="curve"/>
      <point x="921" y="0"/>
      <point x="982" y="0"/>
      <point x="1042" y="0" type="curve"/>
      <point x="1042" y="117"/>
      <point x="1042" y="0"/>
      <point x="1042" y="117" type="curve"/>
      <point x="861" y="117"/>
      <point x="1042" y="117"/>
      <point x="861" y="117" type="curve"/>
    </contour>
    <contour>
      <point x="861" y="117"/>
      <point x="861" y="0"/>
      <point x="861" y="117" type="curve"/>
      <point x="667" y="117"/>
      <point x="861" y="117"/>
      <point x="667" y="117" type="curve"/>
      <point x="667" y="0"/>
      <point x="667" y="117"/>
      <point x="667" y="0" type="curve"/>
      <point x="732" y="0"/>
      <point x="796" y="0"/>
      <point x="861" y="0" type="curve"/>
    </contour>
  </outline>
</glyph>
<glyph name="dvSHA" format="1">
  <advance width="1102"/>
  <unicode hex="0936"/>
  <outline>
    <contour>
      <point x="580" y="97"/>
      <point x="449" y="-8"/>
      <point x="580" y="97" type="curve"/>
      <point x="450" y="181"/>
      <point x="313" y="256"/>
      <point x="182" y="340" type="curve"/>
      <point x="36" y="276"/>
      <point x="182" y="340"/>
      <point x="36" y="276" type="curve"/>
      <point x="176" y="184"/>
      <point x="309" y="84"/>
      <point x="449" y="-8" type="curve"/>
    </contour>
    <contour>
      <point x="806" y="722"/>
      <point x="967" y="722"/>
      <point x="806" y="722" type="curve"/>
      <point x="806" y="481"/>
      <point x="806" y="241"/>
      <point x="806" y="0" type="curve"/>
      <point x="967" y="0"/>
      <point x="806" y="0"/>
      <point x="967" y="0" type="curve"/>
      <point x="967" y="241"/>
      <point x="967" y="481"/>
      <point x="967" y="722" type="curve"/>
    </contour>
    <contour>
      <point x="1111" y="722"/>
      <point x="1111" y="605"/>
      <point x="1111" y="722" type="curve"/>
      <point x="1045" y="722"/>
      <point x="938" y="722"/>
      <point x="872" y="722" type="curve"/>
      <point x="872" y="605"/>
      <point x="872" y="722"/>
      <point x="872" y="605" type="curve"/>
      <point x="938" y="605"/>
      <point x="1045" y="605"/>
      <point x="1111" y="605" type="curve"/>
    </contour>
    <contour>
      <point x="301" y="516"/>
      <point x="176" y="423"/>
      <point x="301" y="516" type="curve"/>
      <point x="284" y="526"/>
      <point x="269" y="535"/>
      <point x="269" y="554" type="curve"/>
      <point x="270" y="607"/>
      <point x="329" y="610"/>
      <point x="391" y="610" type="curve"/>
      <point x="469" y="610"/>
      <point x="529" y="567"/>
      <point x="529" y="492" type="curve"/>
      <point x="529" y="353"/>
      <point x="391" y="301"/>
      <point x="233" y="301" type="curve"/>
      <point x="205" y="301"/>
      <point x="184" y="315"/>
      <point x="182" y="340" type="curve"/>
      <point x="36" y="276"/>
      <point x="182" y="340"/>
      <point x="36" y="276" type="curve"/>
      <point x="37" y="190"/>
      <point x="133" y="186"/>
      <point x="233" y="184" type="curve"/>
      <point x="481" y="184"/>
      <point x="690" y="281"/>
      <point x="690" y="504" type="curve"/>
      <point x="690" y="654"/>
      <point x="561" y="727"/>
      <point x="398" y="727" type="curve"/>
      <point x="244" y="727"/>
      <point x="110" y="685"/>
      <point x="108" y="548" type="curve"/>
      <point x="108" y="494"/>
      <point x="130" y="452"/>
      <point x="176" y="423" type="curve"/>
    </contour>
    <contour>
      <point x="892" y="0"/>
      <point x="892" y="117"/>
      <point x="892" y="0" type="curve"/>
      <point x="952" y="0"/>
      <point x="1012" y="0"/>
      <point x="1073" y="0" type="curve"/>
      <point x="1073" y="117"/>
      <point x="1073" y="0"/>
      <point x="1073" y="117" type="curve"/>
      <point x="892" y="117"/>
      <point x="1073" y="117"/>
      <point x="892" y="117" type="curve"/>
    </contour>
    <contour>
      <point x="892" y="117"/>
      <point x="892" y="0"/>
      <point x="892" y="117" type="curve"/>
      <point x="698" y="117"/>
      <point x="892" y="117"/>
      <point x="698" y="117" type="curve"/>
      <point x="698" y="0"/>
      <point x="698" y="117"/>
      <point x="698" y="0" type="curve"/>
      <point x="762" y="0"/>
      <point x="827" y="0"/>
      <point x="892" y="0" type="curve"/>
    </contour>
  </outline>
</glyph>
<glyph name="dvSSA" format="1">
  <advance width="804"/>
  <unicode hex="0937"/>
  <outline>
    <contour>
      <point x="-11" y="605"/>
      <point x="-11" y="722"/>
      <point x="-11" y="605" type="curve"/>
      <point x="248" y="605"/>
      <point x="556" y="605"/>
      <point x="814" y="605" type="curve"/>
      <point x="814" y="722"/>
      <point x="814" y="605"/>
      <point x="814" y="722" type="curve"/>
      <point x="556" y="722"/>
      <point x="248" y="722"/>
      <point x="-11" y="722" type="curve"/>
    </contour>
    <contour>
      <point x="611" y="117"/>
      <point x="611" y="0"/>
      <point x="611" y="117" type="curve"/>
      <point x="417" y="117"/>
      <point x="611" y="117"/>
      <point x="417" y="117" type="curve"/>
      <point x="417" y="0"/>
      <point x="417" y="117"/>
      <point x="417" y="0" type="curve"/>
      <point x="481" y="0"/>
      <point x="546" y="0"/>
      <point x="611" y="0" type="curve"/>
    </contour>
    <contour>
      <point x="611" y="0"/>
      <point x="611" y="117"/>
      <point x="611" y="0" type="curve"/>
      <point x="671" y="0"/>
      <point x="731" y="0"/>
      <point x="791" y="0" type="curve"/>
      <point x="791" y="117"/>
      <point x="791" y="0"/>
      <point x="791" y="117" type="curve"/>
      <point x="611" y="117"/>
      <point x="791" y="117"/>
      <point x="611" y="117" type="curve"/>
    </contour>
    <contour>
      <point x="107" y="592"/>
      <point x="216" y="668"/>
      <point x="107" y="592" type="curve"/>
      <point x="258" y="486"/>
      <point x="407" y="377"/>
      <point x="558" y="271" type="curve"/>
      <point x="660" y="365"/>
      <point x="558" y="271"/>
      <point x="660" y="365" type="curve"/>
      <point x="513" y="467"/>
      <point x="363" y="566"/>
      <point x="216" y="668" type="curve"/>
    </contour>
    <contour>
      <point x="558" y="388"/>
      <point x="667" y="341"/>
      <point x="558" y="388" type="curve"/>
      <point x="516" y="324"/>
      <point x="453" y="323"/>
      <point x="376" y="323" type="curve"/>
      <point x="300" y="323"/>
      <point x="240" y="343"/>
      <point x="240" y="408" type="curve"/>
      <point x="240" y="493"/>
      <point x="240" y="577"/>
      <point x="240" y="662" type="curve"/>
      <point x="79" y="662"/>
      <point x="240" y="662"/>
      <point x="79" y="662" type="curve"/>
      <point x="79" y="583"/>
      <point x="79" y="504"/>
      <point x="79" y="425" type="curve"/>
      <point x="79" y="275"/>
      <point x="204" y="206"/>
      <point x="368" y="206" type="curve"/>
      <point x="498" y="206"/>
      <point x="599" y="232"/>
      <point x="667" y="341" type="curve"/>
    </contour>
    <contour>
      <point x="688" y="0"/>
      <point x="528" y="0"/>
      <point x="688" y="0" type="curve"/>
      <point x="688" y="237"/>
      <point x="688" y="473"/>
      <point x="688" y="710" type="curve"/>
      <point x="528" y="710"/>
      <point x="688" y="710"/>
      <point x="528" y="710" type="curve"/>
      <point x="528" y="473"/>
      <point x="528" y="237"/>
      <point x="528" y="0" type="curve"/>
    </contour>
  </outline>
</glyph>
<glyph name="dvHA" format="1">
  <advance width="724"/>
  <unicode hex="0939"/>
  <outline>
    <contour>
      <point x="599" y="67"/>
      <point x="499" y="158"/>
      <point x="599" y="67" type="curve"/>
      <point x="669" y="118"/>
      <point x="700.4" y="155.019273832"/>
      <point x="700.4" y="218.654757835" type="curve"/>
      <point x="700.4" y="361.904298258"/>
      <point x="552.592537636" y="399.571509972"/>
      <point x="387.4" y="399.571509972" type="curve"/>
      <point x="197.916183034" y="399.571509972"/>
      <point x="35.4" y="337.495308819"/>
      <point x="35.4" y="169.611965812" type="curve"/>
      <point x="35.4" y="-14.9693955358"/>
      <point x="221.522001301" y="-74.2386894587"/>
      <point x="433.4" y="-74.2386894587" type="curve"/>
      <point x="448" y="36.7213105413"/>
      <point x="433.4" y="-74.2386894587"/>
      <point x="448" y="36.7213105413" type="curve"/>
      <point x="316.191067686" y="36.7213105413"/>
      <point x="196" y="56.7770166051"/>
      <point x="196" y="169.611965812" type="curve"/>
      <point x="196" y="257.466591426"/>
      <point x="286.289550621" y="282.771509972"/>
      <point x="387.4" y="282.771509972" type="curve"/>
      <point x="464.899220719" y="282.771509972"/>
      <point x="539.8" y="279.586265256"/>
      <point x="539.8" y="212.814757835" type="curve"/>
      <point x="539.8" y="186.447335531"/>
      <point x="521.332734442" y="172.593563105"/>
      <point x="499.3" y="158.000740741" type="curve"/>
    </contour>
    <contour>
      <point x="730.6" y="722"/>
      <point x="730.6" y="605.2"/>
      <point x="730.6" y="722" type="curve"/>
      <point x="481.869154" y="722"/>
      <point x="233.130846" y="722"/>
      <point x="-15.6" y="722" type="curve"/>
      <point x="-15.6" y="605.2"/>
      <point x="-15.6" y="722"/>
      <point x="-15.6" y="605.2" type="curve"/>
      <point x="233.130846" y="605.2"/>
      <point x="481.869154" y="605.2"/>
      <point x="730.6" y="605.2" type="curve"/>
    </contour>
    <contour>
      <point x="304.1" y="358.774586895"/>
      <point x="187.3" y="277.014586895"/>
      <point x="304.1" y="358.774586895" type="curve"/>
      <point x="255.243206243" y="380.041487213"/>
      <point x="192" y="370"/>
      <point x="192" y="424" type="curve"/>
      <point x="192" y="451"/>
      <point x="243.470047902" y="449.158404558"/>
      <point x="289.8" y="449.158404558" type="curve"/>
      <point x="391.13232" y="449.158404558"/>
      <point x="492.46768" y="449.158404558"/>
      <point x="593.8" y="449.158404558" type="curve"/>
      <point x="433.2" y="565.958404558"/>
      <point x="593.8" y="449.158404558"/>
      <point x="433.2" y="565.958404558" type="curve"/>
      <point x="378.100551" y="565.958404558"/>
      <point x="322.999449" y="565.958404558"/>
      <point x="267.9" y="565.958404558" type="curve"/>
      <point x="141.691440807" y="565.958404558"/>
      <point x="31.5" y="535.701493676"/>
      <point x="31.5" y="426.52022792" type="curve"/>
      <point x="31.5" y="338.946531295"/>
      <point x="101.533581115" y="309.721406731"/>
      <point x="187.3" y="277.014586895" type="curve"/>
    </contour>
    <contour>
      <point x="433.2" y="662.737891738"/>
      <point x="593.8" y="662.737891738"/>
      <point x="433.2" y="662.737891738" type="curve"/>
      <point x="433.2" y="630.478385276"/>
      <point x="433.2" y="598.21791102"/>
      <point x="433.2" y="565.958404558" type="curve"/>
      <point x="593.8" y="449.158404558"/>
      <point x="433.2" y="565.958404558"/>
      <point x="593.8" y="449.158404558" type="curve"/>
      <point x="593.8" y="520.35085502"/>
      <point x="593.8" y="591.545441276"/>
      <point x="593.8" y="662.737891738" type="curve"/>
    </contour>
  </outline>
</glyph>
<glyph name="dvNukta" format="1">
  <advance width="0"/>
  <unicode hex="093C"/>
  <outline>
    <contour>
      <point x="-289.795" y="-26.0866096866"/>
      <point x="-499.305" y="-26.0866096866"/>
      <point x="-289.795" y="-26.0866096866" type="curve"/>
      <point x="-289.795" y="28.0160798833"/>
      <point x="-335.398559901" y="55.6733903134"/>
      <point x="-393.9" y="55.6733903134" type="curve"/>
      <point x="-455.792179058" y="55.6733903134"/>
      <point x="-499.305" y="22.9839961345"/>
      <point x="-499.305" y="-26.0866096866" type="curve"/>
      <point x="-289.795" y="-26.0866096866"/>
      <point x="-499.305" y="-26.0866096866"/>
      <point x="-289.795" y="-26.0866096866" type="curve"/>
      <point x="-289.795" y="-84.6978567207"/>
      <point x="-335.398559901" y="-107.846609687"/>
      <point x="-393.9" y="-107.846609687" type="curve"/>
      <point x="-455.792179058" y="-107.846609687"/>
      <point x="-499.305" y="-79.6181796732"/>
      <point x="-499.305" y="-26.0866096866" type="curve"/>
    </contour>
  </outline>
</glyph>
<glyph name="dvmI" format="1">
  <advance width="426.0"/>
  <unicode hex="093F"/>
  <outline>
    <contour>
      <point x="280" y="689"/>
      <point x="163" y="636"/>
      <point x="280" y="689" type="curve"/>
      <point x="264" y="741"/>
      <point x="258" y="744"/>
      <point x="258" y="776" type="curve"/>
      <point x="258" y="826"/>
      <point x="345" y="828"/>
      <point x="424" y="828" type="curve"/>
      <point x="612" y="828"/>
      <point x="771" y="776"/>
      <point x="909" y="622" type="curve"/>
      <point x="1012" y="689"/>
      <point x="909" y="622"/>
      <point x="1012" y="689" type="curve"/>
      <point x="860" y="868"/>
      <point x="673" y="945"/>
      <point x="438" y="945" type="curve"/>
      <point x="268" y="945"/>
      <point x="107" y="912"/>
      <point x="107" y="765" type="curve"/>
      <point x="107" y="713"/>
      <point x="142" y="668"/>
      <point x="163" y="636" type="curve"/>
    </contour>
    <contour>
      <point x="136" y="710"/>
      <point x="297" y="710"/>
      <point x="136" y="710" type="curve"/>
      <point x="136" y="473"/>
      <point x="136" y="237"/>
      <point x="136" y="0" type="curve"/>
      <point x="297" y="0"/>
      <point x="136" y="0"/>
      <point x="297" y="0" type="curve"/>
      <point x="297" y="237"/>
      <point x="297" y="473"/>
      <point x="297" y="710" type="curve"/>
    </contour>
    <contour>
      <point x="447" y="729"/>
      <point x="447" y="600"/>
      <point x="447" y="729" type="curve"/>
      <point x="320" y="729"/>
      <point x="107" y="729"/>
      <point x="-20" y="729" type="curve"/>
      <point x="-20" y="600"/>
      <point x="-20" y="729"/>
      <point x="-20" y="600" type="curve"/>
      <point x="107" y="600"/>
      <point x="320" y="600"/>
      <point x="447" y="600" type="curve"/>
    </contour>
    <contour>
      <point x="218" y="0"/>
      <point x="218" y="117"/>
      <point x="218" y="0" type="curve"/>
      <point x="278" y="0"/>
      <point x="338" y="0"/>
      <point x="399" y="0" type="curve"/>
      <point x="399" y="117"/>
      <point x="399" y="0"/>
      <point x="399" y="117" type="curve"/>
      <point x="218" y="117"/>
      <point x="399" y="117"/>
      <point x="218" y="117" type="curve"/>
    </contour>
    <contour>
      <point x="218" y="117"/>
      <point x="218" y="0"/>
      <point x="218" y="117" type="curve"/>
      <point x="24" y="117"/>
      <point x="218" y="117"/>
      <point x="24" y="117" type="curve"/>
      <point x="24" y="0"/>
      <point x="24" y="117"/>
      <point x="24" y="0" type="curve"/>
      <point x="89" y="0"/>
      <point x="153" y="0"/>
      <point x="218" y="0" type="curve"/>
    </contour>
  </outline>
</glyph>
<glyph name="dvmII" format="1">
  <advance width="399"/>
  <unicode hex="0940"/>
  <outline>
    <contour>
      <point x="-99" y="715"/>
      <point x="-187" y="615"/>
      <point x="-99" y="715" type="curve"/>
      <point x="-133" y="731"/>
      <point x="-175" y="756"/>
      <point x="-175" y="800" type="curve"/>
      <point x="-175" y="836"/>
      <point x="-138" y="844"/>
      <point x="-97" y="844" type="curve"/>
      <point x="30" y="844"/>
      <point x="103" y="760"/>
      <point x="139" y="635" type="curve"/>
      <point x="285" y="688"/>
      <point x="139" y="635"/>
      <point x="285" y="688" type="curve"/>
      <point x="232" y="865"/>
      <point x="102" y="961"/>
      <point x="-82" y="961" type="curve"/>
      <point x="-218" y="961"/>
      <point x="-328" y="910"/>
      <point x="-328" y="789" type="curve"/>
      <point x="-328" y="702"/>
      <point x="-253" y="649"/>
      <point x="-187" y="615" type="curve"/>
    </contour>
    <contour>
      <point x="129" y="710"/>
      <point x="290" y="710"/>
      <point x="129" y="710" type="curve"/>
      <point x="129" y="473"/>
      <point x="129" y="237"/>
      <point x="129" y="0" type="curve"/>
      <point x="290" y="0"/>
      <point x="129" y="0"/>
      <point x="290" y="0" type="curve"/>
      <point x="290" y="237"/>
      <point x="290" y="473"/>
      <point x="290" y="710" type="curve"/>
    </contour>
    <contour>
      <point x="419" y="729"/>
      <point x="419" y="600"/>
      <point x="419" y="729" type="curve"/>
      <point x="292" y="729"/>
      <point x="115" y="729"/>
      <point x="-12" y="729" type="curve"/>
      <point x="-12" y="600"/>
      <point x="-12" y="729"/>
      <point x="-12" y="600" type="curve"/>
      <point x="115" y="600"/>
      <point x="292" y="600"/>
      <point x="419" y="600" type="curve"/>
    </contour>
    <contour>
      <point x="211" y="0"/>
      <point x="211" y="117"/>
      <point x="211" y="0" type="curve"/>
      <point x="271" y="0"/>
      <point x="331" y="0"/>
      <point x="392" y="0" type="curve"/>
      <point x="392" y="117"/>
      <point x="392" y="0"/>
      <point x="392" y="117" type="curve"/>
      <point x="211" y="117"/>
      <point x="392" y="117"/>
      <point x="211" y="117" type="curve"/>
    </contour>
    <contour>
      <point x="211" y="117"/>
      <point x="211" y="0"/>
      <point x="211" y="117" type="curve"/>
      <point x="17" y="117"/>
      <point x="211" y="117"/>
      <point x="17" y="117" type="curve"/>
      <point x="17" y="0"/>
      <point x="17" y="117"/>
      <point x="17" y="0" type="curve"/>
      <point x="82" y="0"/>
      <point x="146" y="0"/>
      <point x="211" y="0" type="curve"/>
    </contour>
  </outline>
</glyph>
<glyph name="dvmvR" format="1">
  <advance width="0"/>
  <unicode hex="0943"/>
  <outline>
    <contour>
      <point x="-3.1" y="-87.2275213675"/>
      <point x="77.2" y="-186.507521368"/>
      <point x="-3.1" y="-87.2275213675" type="curve"/>
      <point x="-82.0981021688" y="-122.231307951"/>
      <point x="-148.144516912" y="-150.453561254"/>
      <point x="-234.9" y="-150.453561254" type="curve"/>
      <point x="-301.796853909" y="-150.453561254"/>
      <point x="-363" y="-135.751531111"/>
      <point x="-363" y="-77.8131054131" type="curve"/>
      <point x="-363" y="-21.9441357829"/>
      <point x="-302.464309169" y="-10.3452991453"/>
      <point x="-237.5" y="-10.3452991453" type="curve"/>
      <point x="-204.700328" y="-10.3452991453"/>
      <point x="-171.899672" y="-10.3452991453"/>
      <point x="-139.1" y="-10.3452991453" type="curve"/>
      <point x="-139.1" y="106.454700855"/>
      <point x="-139.1" y="-10.3452991453"/>
      <point x="-139.1" y="106.454700855" type="curve"/>
      <point x="-174.332981" y="106.454700855"/>
      <point x="-209.567019" y="106.454700855"/>
      <point x="-244.8" y="106.454700855" type="curve"/>
      <point x="-393.603353138" y="106.454700855"/>
      <point x="-523.6" y="54.0949165947"/>
      <point x="-523.6" y="-77.8131054131" type="curve"/>
      <point x="-523.6" y="-212.281742724"/>
      <point x="-393.012308406" y="-267.253561254"/>
      <point x="-242.2" y="-267.253561254" type="curve"/>
      <point x="-122.587321155" y="-267.253561254"/>
      <point x="-30.4855377126" y="-236.729039981"/>
      <point x="77.2" y="-186.507521368" type="curve"/>
    </contour>
  </outline>
</glyph>
<glyph name="dvmEcandra" format="1">
  <advance width="0"/>
  <unicode hex="0945"/>
  <outline>
    <contour>
      <point x="-79" y="937.75042735"/>
      <point x="81.6" y="937.75042735"/>
      <point x="-79" y="937.75042735" type="curve"/>
      <point x="-79" y="873.882521375"/>
      <point x="-139.508072928" y="855.626780627"/>
      <point x="-212.8" y="855.626780627" type="curve"/>
      <point x="-286.694977724" y="855.626780627"/>
      <point x="-346.1" y="874.039835662"/>
      <point x="-346.1" y="937.75042735" type="curve"/>
      <point x="-506.7" y="937.75042735"/>
      <point x="-346.1" y="937.75042735"/>
      <point x="-506.7" y="937.75042735" type="curve"/>
      <point x="-506.7" y="793.836726409"/>
      <point x="-381.096294241" y="738.826780627"/>
      <point x="-220.1" y="738.826780627" type="curve"/>
      <point x="-52.0550073084" y="738.826780627"/>
      <point x="81.6" y="788.510554798"/>
      <point x="81.6" y="937.75042735" type="curve"/>
    </contour>
  </outline>
</glyph>
<glyph name="dvmAI" format="1">
  <advance width="-1"/>
  <unicode hex="0948"/>
  <outline>
    <contour>
      <point x="-489" y="735"/>
      <point x="-546" y="847"/>
      <point x="-489" y="735" type="curve"/>
      <point x="-466" y="746"/>
      <point x="-422.386749571" y="753.677378917"/>
      <point x="-396" y="753.677378917" type="curve"/>
      <point x="-281.953453935" y="753.677378917"/>
      <point x="-188.196736608" y="707.713563069"/>
      <point x="-128.5" y="645.120512821" type="curve"/>
      <point x="10.2" y="674.320512821"/>
      <point x="-128.5" y="645.120512821"/>
      <point x="10.2" y="674.320512821" type="curve"/>
      <point x="-108" y="750"/>
      <point x="-207.207110589" y="882.157378917"/>
      <point x="-381.4" y="882.157378917" type="curve"/>
      <point x="-437.870223896" y="882.157378917"/>
      <point x="-494.369530734" y="870.74896968"/>
      <point x="-546.1" y="847.20045584" type="curve"/>
    </contour>
    <contour>
      <point x="-437" y="886"/>
      <point x="-489" y="987"/>
      <point x="-437" y="886" type="curve"/>
      <point x="-402" y="895"/>
      <point x="-380" y="899"/>
      <point x="-343" y="899" type="curve"/>
      <point x="-217" y="899"/>
      <point x="-157" y="755"/>
      <point x="-128.5" y="645.120512821" type="curve"/>
      <point x="10.2" y="674.320512821"/>
      <point x="-128.5" y="645.120512821"/>
      <point x="10.2" y="674.320512821" type="curve"/>
      <point x="-61.7764116278" y="861.452264316"/>
      <point x="-141.53497914" y="1022.68102564"/>
      <point x="-328.1" y="1022.68102564" type="curve"/>
      <point x="-384.342312053" y="1022.68102564"/>
      <point x="-437.356541122" y="1009.21218511"/>
      <point x="-488.9" y="986.861994302" type="curve"/>
    </contour>
  </outline>
</glyph>
<glyph name="dvvRR" format="1">
  <advance width="1278"/>
  <unicode hex="0960"/>
  <outline>
    <contour>
      <point x="216.3" y="150.674188034"/>
      <point x="136" y="255.794188034"/>
      <point x="216.3" y="150.674188034" type="curve"/>
      <point x="353.666631648" y="210.425136886"/>
      <point x="488.833368352" y="275.122270521"/>
      <point x="626.2" y="334.873219373" type="curve"/>
      <point x="538.6" y="422.473219373"/>
      <point x="626.2" y="334.873219373"/>
      <point x="538.6" y="422.473219373" type="curve"/>
      <point x="405.100412856" y="365.240352036"/>
      <point x="269.499587144" y="313.027055372"/>
      <point x="136" y="255.794188034" type="curve"/>
    </contour>
    <contour>
      <point x="1302" y="722"/>
      <point x="1302" y="605"/>
      <point x="1302" y="722" type="curve"/>
      <point x="863" y="722"/>
      <point x="423.595608" y="722.0"/>
      <point x="-15.6" y="722" type="curve"/>
      <point x="-15.6" y="605.2"/>
      <point x="-15.6" y="722"/>
      <point x="-15.6" y="605.2" type="curve"/>
      <point x="423.595608" y="605.2"/>
      <point x="863" y="605"/>
      <point x="1302" y="605" type="curve"/>
    </contour>
    <contour>
      <point x="551.8" y="316.393732194"/>
      <point x="588.3" y="433.193732194"/>
      <point x="551.8" y="316.393732194" type="curve"/>
      <point x="613.799274794" y="300.744973003"/>
      <point x="657.4563777" y="294.841025641"/>
      <point x="721.1" y="294.841025641" type="curve"/>
      <point x="864.15779228" y="294.841025641"/>
      <point x="962.2" y="357.604514012"/>
      <point x="962.2" y="483.794586895" type="curve"/>
      <point x="962.2" y="540.724775184"/>
      <point x="917.583712562" y="570.309220574"/>
      <point x="855.8" y="563.094245014" type="curve"/>
      <point x="753.6" y="481.334245014"/>
      <point x="855.8" y="563.094245014"/>
      <point x="753.6" y="481.334245014" type="curve"/>
      <point x="779.96567621" y="471.979876951"/>
      <point x="816.2" y="472.05224353"/>
      <point x="816.2" y="454.594586895" type="curve"/>
      <point x="816.2" y="416.609420845"/>
      <point x="774.053478156" y="411.641025641"/>
      <point x="728.4" y="411.641025641" type="curve"/>
      <point x="674.929899989" y="411.641025641"/>
      <point x="640.142960515" y="420.791953376"/>
      <point x="588.3" y="433.193732194" type="curve"/>
    </contour>
    <contour>
      <point x="121" y="408"/>
      <point x="40" y="503"/>
      <point x="121" y="408" type="curve"/>
      <point x="180" y="437"/>
      <point x="214.346724197" y="451.744729345"/>
      <point x="264.4" y="451.744729345" type="curve"/>
      <point x="376.501241241" y="451.744729345"/>
      <point x="481.550055252" y="356.741739439"/>
      <point x="551.5" y="314.572136752" type="curve"/>
      <point x="617.2" y="425.532136752"/>
      <point x="551.5" y="314.572136752"/>
      <point x="617.2" y="425.532136752" type="curve"/>
      <point x="541.096820442" y="476.215653221"/>
      <point x="415.812378229" y="568.544729345"/>
      <point x="279" y="568.544729345" type="curve"/>
      <point x="185.177913479" y="568.544729345"/>
      <point x="122.490557011" y="547.230367381"/>
      <point x="40.3" y="502.649287749" type="curve"/>
    </contour>
    <contour>
      <point x="500.8" y="711"/>
      <point x="661.4" y="711"/>
      <point x="500.8" y="711" type="curve"/>
      <point x="500.8" y="474.00237"/>
      <point x="500.8" y="236.99763"/>
      <point x="500.8" y="7.86687121695e-15" type="curve"/>
      <point x="661.4" y="-1.57337424339e-14"/>
      <point x="500.8" y="7.86687121695e-15"/>
      <point x="661.4" y="-1.57337424339e-14" type="curve"/>
      <point x="661.4" y="236.99763"/>
      <point x="661.4" y="474.00237"/>
      <point x="661.4" y="711" type="curve"/>
    </contour>
    <contour>
      <point x="1155" y="188"/>
      <point x="1232" y="93"/>
      <point x="1155.3" y="188.077150997" type="curve"/>
      <point x="1118.76746524" y="167.134001053"/>
      <point x="1092.35628101" y="153.008547009"/>
      <point x="1052.1" y="153.008547009" type="curve"/>
      <point x="1013.45125942" y="153.008547009"/>
      <point x="976.613614785" y="167.051586128"/>
      <point x="977.3" y="206.487863248" type="curve"/>
      <point x="978.433092694" y="235.909168573"/>
      <point x="1013.02213075" y="249.939667707"/>
      <point x="1038.5" y="253.557207977" type="curve"/>
      <point x="1089.6" y="376.197207977"/>
      <point x="1038.5" y="253.557207977"/>
      <point x="1089.6" y="376.197207977" type="curve"/>
      <point x="953.774181723" y="358.106915844"/>
      <point x="817.582758516" y="316.501716304"/>
      <point x="816.7" y="194.807863248" type="curve"/>
      <point x="816.310194294" y="77.3822993921"/>
      <point x="928.029321363" y="36.2085470085"/>
      <point x="1044.8" y="36.2085470085" type="curve"/>
      <point x="1125.91976039" y="36.2085470085"/>
      <point x="1187" y="63"/>
      <point x="1232" y="93" type="curve"/>
    </contour>
    <contour>
      <point x="753.6" y="481.334245014"/>
      <point x="855.8" y="563.094245014"/>
      <point x="753.6" y="481.334245014" type="curve"/>
      <point x="848.67780746" y="405.549632467"/>
      <point x="943.42219254" y="329.341820524"/>
      <point x="1038.5" y="253.557207977" type="curve"/>
      <point x="1089.6" y="376.197207977"/>
      <point x="1038.5" y="253.557207977"/>
      <point x="1089.6" y="376.197207977" type="curve"/>
      <point x="1011.7628069" y="438.614796129"/>
      <point x="933.637193099" y="500.676656862"/>
      <point x="855.8" y="563.094245014" type="curve"/>
    </contour>
    <contour>
      <point x="578.5" y="0"/>
      <point x="578.5" y="116.8"/>
      <point x="578.5" y="0" type="curve"/>
      <point x="638.799397" y="0"/>
      <point x="699.100603" y="0"/>
      <point x="759.4" y="0" type="curve"/>
      <point x="759.4" y="116.8"/>
      <point x="759.4" y="0"/>
      <point x="759.4" y="116.8" type="curve"/>
      <point x="578.5" y="116.8"/>
      <point x="759.4" y="116.8"/>
      <point x="578.5" y="116.8" type="curve"/>
    </contour>
    <contour>
      <point x="578.5" y="116.8"/>
      <point x="578.5" y="0"/>
      <point x="578.5" y="116.8" type="curve"/>
      <point x="384.6" y="116.8"/>
      <point x="578.5" y="116.8"/>
      <point x="384.6" y="116.8" type="curve"/>
      <point x="384.6" y="0"/>
      <point x="384.6" y="116.8"/>
      <point x="384.6" y="0" type="curve"/>
      <point x="449.232687" y="-7.91495991648e-15"/>
      <point x="513.867313" y="7.91495991648e-15"/>
      <point x="578.5" y="0" type="curve"/>
    </contour>
  </outline>
</glyph>
<glyph name="danda" format="1">
  <advance width="434"/>
  <unicode hex="0964"/>
  <outline>
    <contour>
      <point x="201.8" y="722"/>
      <point x="362.4" y="722"/>
      <point x="201.8" y="722" type="curve"/>
      <point x="201.8" y="481.33574"/>
      <point x="201.8" y="240.66426"/>
      <point x="201.8" y="7.86687121695e-15" type="curve"/>
      <point x="362.4" y="-1.57337424339e-14"/>
      <point x="201.8" y="7.86687121695e-15"/>
      <point x="362.4" y="-1.57337424339e-14" type="curve"/>
      <point x="362.4" y="240.66426"/>
      <point x="362.4" y="481.33574"/>
      <point x="362.4" y="722" type="curve"/>
    </contour>
  </outline>
</glyph>
<glyph name="dvThree" format="1">
  <advance width="709.0"/>
  <unicode hex="0969"/>
  <outline>
    <contour>
      <point x="122" y="573"/>
      <point x="76" y="666"/>
      <point x="122" y="573" type="curve"/>
      <point x="205.0" y="605.0"/>
      <point x="255.0" y="612.0"/>
      <point x="316" y="612" type="curve"/>
      <point x="392.0" y="612.0"/>
      <point x="466.0" y="608.0"/>
      <point x="465" y="535" type="curve"/>
      <point x="465" y="448"/>
      <point x="336.0" y="444.0"/>
      <point x="208" y="444" type="curve"/>
      <point x="208" y="345"/>
      <point x="208" y="444"/>
      <point x="208" y="345" type="curve"/>
      <point x="421" y="345"/>
      <point x="625" y="355"/>
      <point x="625" y="537" type="curve"/>
      <point x="626" y="679"/>
      <point x="479" y="717"/>
      <point x="316" y="717" type="curve"/>
      <point x="227" y="717"/>
      <point x="156" y="703"/>
      <point x="76" y="666" type="curve"/>
    </contour>
    <contour>
      <point x="477" y="-16"/>
      <point x="350" y="-126"/>
      <point x="477" y="-16" type="curve"/>
      <point x="377" y="59"/>
      <point x="268" y="120"/>
      <point x="156" y="206" type="curve"/>
      <point x="44" y="130"/>
      <point x="156" y="206"/>
      <point x="44" y="130" type="curve"/>
      <point x="145" y="52"/>
      <point x="237" y="-37"/>
      <point x="350" y="-126" type="curve"/>
    </contour>
    <contour>
      <point x="208" y="342"/>
      <point x="208" y="441"/>
      <point x="208" y="342" type="curve"/>
      <point x="349" y="342"/>
      <point x="497" y="350"/>
      <point x="497" y="245" type="curve"/>
      <point x="500" y="152"/>
      <point x="395" y="148"/>
      <point x="286" y="150" type="curve"/>
      <point x="227" y="150"/>
      <point x="168" y="143"/>
      <point x="156" y="206" type="curve"/>
      <point x="44" y="130"/>
      <point x="156" y="206"/>
      <point x="44" y="130" type="curve"/>
      <point x="44" y="26"/>
      <point x="164" y="34"/>
      <point x="286" y="34" type="curve"/>
      <point x="485" y="29"/>
      <point x="662" y="76"/>
      <point x="658" y="245" type="curve"/>
      <point x="653" y="441"/>
      <point x="435" y="441"/>
      <point x="208" y="441" type="curve"/>
    </contour>
  </outline>
</glyph>
<glyph name="dvFive" format="1">
  <advance width="869.0"/>
  <unicode hex="096B"/>
  <outline>
    <contour>
      <point x="563" y="51"/>
      <point x="541" y="168"/>
      <point x="563" y="51" type="curve"/>
      <point x="711" y="58"/>
      <point x="836" y="113"/>
      <point x="836" y="247" type="curve"/>
      <point x="836" y="387"/>
      <point x="719" y="448"/>
      <point x="623" y="549" type="curve"/>
      <point x="513" y="473"/>
      <point x="623" y="549"/>
      <point x="513" y="473" type="curve"/>
      <point x="587" y="396"/>
      <point x="676" y="348"/>
      <point x="676" y="241" type="curve"/>
      <point x="676" y="191"/>
      <point x="611" y="170"/>
      <point x="541" y="168" type="curve"/>
    </contour>
    <contour>
      <point x="213" y="751"/>
      <point x="290" y="656"/>
      <point x="213" y="751" type="curve"/>
      <point x="90" y="677"/>
      <point x="41" y="607"/>
      <point x="41" y="507" type="curve"/>
      <point x="41" y="336"/>
      <point x="185" y="243"/>
      <point x="368" y="243" type="curve"/>
      <point x="552" y="243"/>
      <point x="710" y="306"/>
      <point x="710" y="469" type="curve"/>
      <point x="710" y="519"/>
      <point x="673" y="551"/>
      <point x="623" y="549" type="curve"/>
      <point x="513" y="473"/>
      <point x="623" y="549"/>
      <point x="513" y="473" type="curve"/>
      <point x="533" y="467"/>
      <point x="556" y="472"/>
      <point x="556" y="452" type="curve"/>
      <point x="556" y="372"/>
      <point x="454" y="360"/>
      <point x="375" y="360" type="curve"/>
      <point x="276" y="360"/>
      <point x="202" y="418"/>
      <point x="202" y="513" type="curve"/>
      <point x="202" y="577"/>
      <point x="236" y="620"/>
      <point x="290" y="656" type="curve"/>
    </contour>
  </outline>
</glyph>
<glyph name="dvEight" format="1">
  <advance width="784"/>
  <unicode hex="096E"/>
  <outline>
    <contour>
      <point x="671" y="172"/>
      <point x="740" y="69"/>
      <point x="671" y="172" type="curve"/>
      <point x="570" y="130"/>
      <point x="507.176066185" y="104.73048433"/>
      <point x="422.9" y="104.73048433" type="curve"/>
      <point x="302.375845826" y="104.73048433"/>
      <point x="196.0" y="138.311645422"/>
      <point x="196" y="250" type="curve"/>
      <point x="196.0" y="469.164914479"/>
      <point x="489.748276807" y="555.395117363"/>
      <point x="622.7" y="625.598461538" type="curve"/>
      <point x="560" y="730"/>
      <point x="623" y="626"/>
      <point x="560" y="730" type="curve"/>
      <point x="293.872162595" y="612.385450136"/>
      <point x="35.0" y="507.576612903"/>
      <point x="35" y="244" type="curve"/>
      <point x="35.0" y="56.6849939331"/>
      <point x="211.106483761" y="-12.0695156695"/>
      <point x="415.6" y="-12.0695156695" type="curve"/>
      <point x="537.159831858" y="-12.0695156695"/>
      <point x="632.562810221" y="11.1590295976"/>
      <point x="739.7" y="68.6765242165" type="curve"/>
    </contour>
  </outline>
</glyph>
<glyph name="dvJ_NYA" format="1">
  <advance width="1065"/>
  <unicode hex="E042"/>
  <outline>
    <contour>
      <point x="848.9" y="0"/>
      <point x="848.9" y="116.8"/>
      <point x="848.9" y="0" type="curve"/>
      <point x="913.532687" y="0"/>
      <point x="978.167313" y="0"/>
      <point x="1042.8" y="0" type="curve"/>
      <point x="1042.8" y="116.8"/>
      <point x="1042.8" y="0"/>
      <point x="1042.8" y="116.8" type="curve"/>
      <point x="848.9" y="116.8"/>
      <point x="1042.8" y="116.8"/>
      <point x="848.9" y="116.8" type="curve"/>
    </contour>
    <contour>
      <point x="848.9" y="116.8"/>
      <point x="848.9" y="0"/>
      <point x="848.9" y="116.8" type="curve"/>
      <point x="668" y="116.8"/>
      <point x="848.9" y="116.8"/>
      <point x="668" y="116.8" type="curve"/>
      <point x="668" y="0"/>
      <point x="668" y="116.8"/>
      <point x="668" y="0" type="curve"/>
      <point x="728.299397" y="-7.38430246979e-15"/>
      <point x="788.600603" y="7.38430246979e-15"/>
      <point x="848.9" y="0" type="curve"/>
    </contour>
    <contour>
      <point x="768.6" y="710"/>
      <point x="929.2" y="710"/>
      <point x="768.6" y="710" type="curve"/>
      <point x="768.6" y="473.3357"/>
      <point x="768.6" y="236.6643"/>
      <point x="768.6" y="7.86687121695e-15" type="curve"/>
      <point x="929.2" y="-1.57337424339e-14"/>
      <point x="768.6" y="7.86687121695e-15"/>
      <point x="929.2" y="-1.57337424339e-14" type="curve"/>
      <point x="929.2" y="236.6643"/>
      <point x="929.2" y="473.3357"/>
      <point x="929.2" y="710" type="curve"/>
    </contour>
    <contour>
      <point x="-15.6" y="605.2"/>
      <point x="-15.6" y="722"/>
      <point x="-15.6" y="605.2" type="curve"/>
      <point x="349.263018" y="605.2"/>
      <point x="714" y="605"/>
      <point x="1079" y="605" type="curve"/>
      <point x="1079" y="722"/>
      <point x="1079" y="605"/>
      <point x="1079" y="722" type="curve"/>
      <point x="714" y="722"/>
      <point x="349.263018" y="722.0"/>
      <point x="-15.6" y="722" type="curve"/>
    </contour>
    <contour>
      <point x="848.9" y="551.302564103"/>
      <point x="848.9" y="434.502564103"/>
      <point x="848.9" y="551.302564103" type="curve"/>
      <point x="665.168504" y="551.302564103"/>
      <point x="481.431496" y="551.302564103"/>
      <point x="297.7" y="551.302564103" type="curve"/>
      <point x="297.7" y="434.502564103"/>
      <point x="297.7" y="551.302564103"/>
      <point x="297.7" y="434.502564103" type="curve"/>
      <point x="481.431496" y="434.502564103"/>
      <point x="665.168504" y="434.502564103"/>
      <point x="848.9" y="434.502564103" type="curve"/>
    </contour>
    <contour>
      <point x="297.7" y="434.502564103"/>
      <point x="297.7" y="551.302564103"/>
      <point x="297.7" y="434.502564103" type="curve"/>
      <point x="412.538559583" y="434.502564103"/>
      <point x="519.0" y="421.874596247"/>
      <point x="519.0" y="323.261994302" type="curve"/>
      <point x="519.0" y="252.38131774"/>
      <point x="447.527502244" y="236.633048433"/>
      <point x="369.6" y="236.633048433" type="curve"/>
      <point x="281.359484171" y="236.633048433"/>
      <point x="202.680782004" y="259.020816508"/>
      <point x="165.4" y="337.041424501" type="curve"/>
      <point x="41.3" y="296.161424501"/>
      <point x="165.4" y="337.041424501"/>
      <point x="41.3" y="296.161424501" type="curve"/>
      <point x="97.2891852924" y="166.691488471"/>
      <point x="219.714330095" y="119.833048433"/>
      <point x="362.3" y="119.833048433" type="curve"/>
      <point x="531.684401605" y="119.833048433"/>
      <point x="679.6" y="177.408034759"/>
      <point x="679.6" y="334.941994302" type="curve"/>
      <point x="679.6" y="507.233699588"/>
      <point x="497.214714258" y="551.302564103"/>
      <point x="297.7" y="551.302564103" type="curve"/>
    </contour>
    <contour>
      <point x="41.3" y="296.161424501"/>
      <point x="165.4" y="337.041424501"/>
      <point x="41.3" y="296.161424501" type="curve"/>
      <point x="75.5535792329" y="215.336718027"/>
      <point x="108.046420767" y="133.774222144"/>
      <point x="142.3" y="52.9495156695" type="curve"/>
      <point x="273.7" y="87.9895156695"/>
      <point x="142.3" y="52.9495156695"/>
      <point x="273.7" y="87.9895156695" type="curve"/>
      <point x="238.181832886" y="171.257632076"/>
      <point x="200.918167114" y="253.773308095"/>
      <point x="165.4" y="337.041424501" type="curve"/>
    </contour>
  </outline>
</glyph>
<glyph name="dvReph" format="1">
  <advance width="0"/>
  <unicode hex="E043"/>
  <outline>
    <contour>
      <point x="-93.7" y="688.586837607"/>
      <point x="-210.5" y="636.026837607"/>
      <point x="-93.7" y="688.586837607" type="curve"/>
      <point x="-112" y="720"/>
      <point x="-124" y="739"/>
      <point x="-124" y="771" type="curve"/>
      <point x="-124" y="813"/>
      <point x="-84.238691257" y="828.486039886"/>
      <point x="-48.9" y="828.486039886" type="curve"/>
      <point x="46.7596787746" y="828.486039886"/>
      <point x="118.552912515" y="779.770949724"/>
      <point x="183.4" y="703.368660969" type="curve"/>
      <point x="300.2" y="761.768660969"/>
      <point x="183.4" y="703.368660969"/>
      <point x="300.2" y="761.768660969" type="curve"/>
      <point x="208.000426628" y="872.75101358"/>
      <point x="108.803778696" y="945.286039886"/>
      <point x="-34.3" y="945.286039886" type="curve"/>
      <point x="-163.337518888" y="945.286039886"/>
      <point x="-261" y="884"/>
      <point x="-261" y="765" type="curve"/>
      <point x="-261" y="713"/>
      <point x="-239.445378955" y="678.955040511"/>
      <point x="-210.5" y="636.026837607" type="curve"/>
    </contour>
  </outline>
</glyph>
<glyph name="dvK" format="1">
  <advance width="1058.0"/>
  <unicode hex="E044"/>
  <outline>
    <contour>
      <point x="543" y="362"/>
      <point x="645" y="315"/>
      <point x="543" y="362" type="curve"/>
      <point x="503" y="286"/>
      <point x="423" y="278"/>
      <point x="335" y="278" type="curve"/>
      <point x="260" y="278"/>
      <point x="195" y="300"/>
      <point x="195" y="366" type="curve"/>
      <point x="195" y="433"/>
      <point x="263" y="453"/>
      <point x="341" y="453" type="curve"/>
      <point x="426" y="453"/>
      <point x="499" y="440"/>
      <point x="547" y="370" type="curve"/>
      <point x="642" y="423"/>
      <point x="547" y="370"/>
      <point x="642" y="423" type="curve"/>
      <point x="575" y="532"/>
      <point x="470" y="569"/>
      <point x="341" y="569" type="curve"/>
      <point x="175" y="569"/>
      <point x="34" y="512"/>
      <point x="34" y="366" type="curve"/>
      <point x="34" y="221"/>
      <point x="173" y="161"/>
      <point x="335" y="161" type="curve"/>
      <point x="471" y="161"/>
      <point x="589" y="195"/>
      <point x="645" y="315" type="curve"/>
    </contour>
    <contour>
      <point x="518" y="710"/>
      <point x="678" y="710"/>
      <point x="518" y="710" type="curve"/>
      <point x="518" y="473"/>
      <point x="518" y="237"/>
      <point x="518" y="0" type="curve"/>
      <point x="678" y="0"/>
      <point x="518" y="0"/>
      <point x="678" y="0" type="curve"/>
      <point x="678" y="237"/>
      <point x="678" y="473"/>
      <point x="678" y="710" type="curve"/>
    </contour>
    <contour>
      <point x="1002" y="724"/>
      <point x="1002" y="602"/>
      <point x="1002" y="724" type="curve"/>
      <point x="688" y="724"/>
      <point x="272" y="724"/>
      <point x="-41" y="724" type="curve"/>
      <point x="-41" y="602"/>
      <point x="-41" y="724"/>
      <point x="-41" y="602" type="curve"/>
      <point x="272" y="602"/>
      <point x="688" y="602"/>
      <point x="1002" y="602" type="curve"/>
    </contour>
    <contour>
      <point x="659" y="382"/>
      <point x="535" y="382"/>
      <point x="659" y="382" type="curve"/>
      <point x="688" y="452"/>
      <point x="771" y="452"/>
      <point x="842" y="452" type="curve"/>
      <point x="877" y="452"/>
      <point x="910" y="447"/>
      <point x="968" y="431" type="curve"/>
      <point x="1034" y="535"/>
      <point x="968" y="431"/>
      <point x="1034" y="535" type="curve"/>
      <point x="981" y="557"/>
      <point x="917" y="569"/>
      <point x="849" y="569" type="curve"/>
      <point x="706" y="569"/>
      <point x="585" y="514"/>
      <point x="535" y="382" type="curve"/>
    </contour>
    <contour>
      <point x="598" y="0"/>
      <point x="598" y="117"/>
      <point x="598" y="0" type="curve"/>
      <point x="658" y="0"/>
      <point x="719" y="0"/>
      <point x="779" y="0" type="curve"/>
      <point x="779" y="117"/>
      <point x="779" y="0"/>
      <point x="779" y="117" type="curve"/>
      <point x="598" y="117"/>
      <point x="779" y="117"/>
      <point x="598" y="117" type="curve"/>
    </contour>
    <contour>
      <point x="598" y="117"/>
      <point x="598" y="0"/>
      <point x="598" y="117" type="curve"/>
      <point x="404" y="117"/>
      <point x="598" y="117"/>
      <point x="404" y="117" type="curve"/>
      <point x="404" y="0"/>
      <point x="404" y="117"/>
      <point x="404" y="0" type="curve"/>
      <point x="469" y="0"/>
      <point x="533" y="0"/>
      <point x="598" y="0" type="curve"/>
    </contour>
  </outline>
</glyph>
<glyph name="dvGH" format="1">
  <advance width="725"/>
  <unicode hex="E047"/>
  <outline>
    <contour>
      <point x="640" y="308"/>
      <point x="709" y="216"/>
      <point x="640" y="308" type="curve"/>
      <point x="534" y="252"/>
      <point x="472" y="235"/>
      <point x="384" y="235" type="curve"/>
      <point x="287" y="235"/>
      <point x="188" y="236"/>
      <point x="188" y="312" type="curve"/>
      <point x="188" y="394"/>
      <point x="280" y="388"/>
      <point x="369" y="388" type="curve"/>
      <point x="369" y="487"/>
      <point x="369" y="388"/>
      <point x="369" y="487" type="curve"/>
      <point x="196" y="487"/>
      <point x="28" y="464"/>
      <point x="28" y="306" type="curve"/>
      <point x="28" y="156"/>
      <point x="195" y="118"/>
      <point x="377" y="118" type="curve"/>
      <point x="504" y="118"/>
      <point x="597" y="142"/>
      <point x="709" y="216" type="curve"/>
    </contour>
    <contour>
      <point x="209" y="701"/>
      <point x="311" y="625"/>
      <point x="209" y="701" type="curve"/>
      <point x="124" y="690"/>
      <point x="35" y="639"/>
      <point x="36" y="551" type="curve"/>
      <point x="36" y="407"/>
      <point x="199" y="388"/>
      <point x="369" y="388" type="curve"/>
      <point x="369" y="493"/>
      <point x="369" y="388"/>
      <point x="369" y="493" type="curve"/>
      <point x="285" y="493"/>
      <point x="197" y="483"/>
      <point x="196" y="557" type="curve"/>
      <point x="195" y="607"/>
      <point x="260" y="616"/>
      <point x="311" y="625" type="curve"/>
    </contour>
    <contour>
      <point x="692" y="722"/>
      <point x="692" y="605"/>
      <point x="692" y="722" type="curve"/>
      <point x="467" y="722"/>
      <point x="214" y="722"/>
      <point x="-12" y="722" type="curve"/>
      <point x="-12" y="605"/>
      <point x="-12" y="722"/>
      <point x="-12" y="605" type="curve"/>
      <point x="214" y="605"/>
      <point x="467" y="605"/>
      <point x="692" y="605" type="curve"/>
    </contour>
  </outline>
</glyph>
<glyph name="dvJ" format="1">
  <advance width="923.0"/>
  <unicode hex="E04A"/>
  <outline>
    <contour>
      <point x="-20" y="605"/>
      <point x="-20" y="722"/>
      <point x="-20" y="605" type="curve"/>
      <point x="269" y="605"/>
      <point x="593" y="605"/>
      <point x="881" y="605" type="curve"/>
      <point x="881" y="722"/>
      <point x="881" y="605"/>
      <point x="881" y="722" type="curve"/>
      <point x="593" y="722"/>
      <point x="269" y="722"/>
      <point x="-20" y="722" type="curve"/>
    </contour>
    <contour>
      <point x="881" y="517"/>
      <point x="881" y="400"/>
      <point x="881" y="517" type="curve"/>
      <point x="689" y="517"/>
      <point x="496" y="517"/>
      <point x="304" y="517" type="curve"/>
      <point x="304" y="400"/>
      <point x="304" y="517"/>
      <point x="304" y="400" type="curve"/>
      <point x="496" y="400"/>
      <point x="689" y="400"/>
      <point x="881" y="400" type="curve"/>
    </contour>
    <contour>
      <point x="304" y="400"/>
      <point x="304" y="517"/>
      <point x="304" y="400" type="curve"/>
      <point x="418.0" y="400.0"/>
      <point x="525" y="389"/>
      <point x="525" y="302" type="curve"/>
      <point x="525" y="217"/>
      <point x="448.0" y="202.0"/>
      <point x="363" y="202" type="curve"/>
      <point x="273" y="202"/>
      <point x="192" y="224"/>
      <point x="155" y="303" type="curve"/>
      <point x="30" y="262"/>
      <point x="155" y="303"/>
      <point x="30" y="262" type="curve"/>
      <point x="86" y="132"/>
      <point x="211" y="85"/>
      <point x="355" y="85" type="curve"/>
      <point x="533" y="85"/>
      <point x="686" y="142"/>
      <point x="686" y="300" type="curve"/>
      <point x="686" y="473"/>
      <point x="503" y="517"/>
      <point x="304" y="517" type="curve"/>
    </contour>
  </outline>
</glyph>
<glyph name="dvJH" format="1">
  <advance width="1053"/>
  <unicode hex="E04B"/>
  <outline>
    <contour>
      <point x="988" y="722"/>
      <point x="988" y="605"/>
      <point x="988" y="722" type="curve"/>
      <point x="655" y="722"/>
      <point x="323" y="722"/>
      <point x="-10" y="722" type="curve"/>
      <point x="-10" y="605"/>
      <point x="-10" y="722"/>
      <point x="-10" y="605" type="curve"/>
      <point x="323" y="605"/>
      <point x="655" y="605"/>
      <point x="988" y="605" type="curve"/>
    </contour>
    <contour>
      <point x="646" y="451"/>
      <point x="486" y="568"/>
      <point x="646" y="451" type="curve"/>
      <point x="646" y="522"/>
      <point x="646" y="592"/>
      <point x="646" y="663" type="curve"/>
      <point x="486" y="663"/>
      <point x="646" y="663"/>
      <point x="486" y="663" type="curve"/>
      <point x="486" y="631"/>
      <point x="486" y="599"/>
      <point x="486" y="568" type="curve"/>
    </contour>
    <contour>
      <point x="486" y="568"/>
      <point x="646" y="451"/>
      <point x="486" y="568" type="curve"/>
      <point x="426" y="568"/>
      <point x="367" y="568"/>
      <point x="308" y="568" type="curve"/>
      <point x="156" y="568"/>
      <point x="33" y="546"/>
      <point x="33" y="409" type="curve"/>
      <point x="33" y="305"/>
      <point x="117" y="270"/>
      <point x="218" y="228" type="curve"/>
      <point x="237" y="361"/>
      <point x="218" y="228"/>
      <point x="237" y="361" type="curve"/>
      <point x="213" y="372"/>
      <point x="194" y="387"/>
      <point x="194" y="409" type="curve"/>
      <point x="194" y="457"/>
      <point x="249" y="451"/>
      <point x="308" y="451" type="curve"/>
      <point x="421" y="451"/>
      <point x="534" y="451"/>
      <point x="646" y="451" type="curve"/>
    </contour>
    <contour>
      <point x="218" y="228"/>
      <point x="237" y="361"/>
      <point x="218" y="228" type="curve"/>
      <point x="307" y="256"/>
      <point x="363" y="267"/>
      <point x="458" y="267" type="curve"/>
      <point x="516" y="267"/>
      <point x="566" y="271"/>
      <point x="566" y="212" type="curve"/>
      <point x="566" y="130"/>
      <point x="474" y="141"/>
      <point x="371" y="141" type="curve"/>
      <point x="299" y="141"/>
      <point x="246" y="149"/>
      <point x="221" y="213" type="curve"/>
      <point x="89" y="131"/>
      <point x="221" y="213"/>
      <point x="89" y="131" type="curve"/>
      <point x="131" y="12"/>
      <point x="238" y="24"/>
      <point x="371" y="24" type="curve"/>
      <point x="568" y="24"/>
      <point x="727" y="49"/>
      <point x="727" y="220" type="curve"/>
      <point x="725" y="346"/>
      <point x="617" y="384"/>
      <point x="473" y="384" type="curve"/>
      <point x="383" y="385"/>
      <point x="339" y="382"/>
      <point x="237" y="361" type="curve"/>
    </contour>
    <contour>
      <point x="89" y="131"/>
      <point x="221" y="213"/>
      <point x="89" y="131" type="curve"/>
      <point x="189" y="53"/>
      <point x="284" y="-30"/>
      <point x="411" y="-124" type="curve"/>
      <point x="530" y="-22"/>
      <point x="411" y="-124"/>
      <point x="530" y="-22" type="curve"/>
      <point x="428" y="58"/>
      <point x="323" y="133"/>
      <point x="221" y="213" type="curve"/>
    </contour>
    <contour>
      <point x="486" y="290"/>
      <point x="493" y="383"/>
      <point x="486" y="290" type="curve"/>
      <point x="543" y="285"/>
      <point x="642" y="246"/>
      <point x="743" y="246" type="curve"/>
      <point x="847" y="245"/>
      <point x="970" y="267"/>
      <point x="1024" y="299" type="curve"/>
      <point x="967" y="393"/>
      <point x="1024" y="299"/>
      <point x="967" y="393" type="curve"/>
      <point x="906" y="371"/>
      <point x="831" y="363"/>
      <point x="758" y="363" type="curve"/>
      <point x="658" y="363"/>
      <point x="563" y="383"/>
      <point x="493" y="383" type="curve"/>
    </contour>
  </outline>
</glyph>
<glyph name="dvNY" format="1"><advance width="656"/><unicode hex="E04C"/><outline><contour><point x="548.6" y="272.62096866096863"/><point x="548.6" y="401.10096866096865"/><point x="548.6" y="272.62096866096863" type="curve"/><point x="664.1704570225355" y="247.3164668142283"/><point x="734.782145893999" y="248.83683672361457"/><point x="847.8" y="284.3983475783475" type="curve"/><point x="796.7" y="395.35834757834755"/><point x="847.8" y="284.3983475783475"/><point x="796.7" y="395.35834757834755" type="curve"/><point x="702.1521753719319" y="365.66574397174236"/><point x="645.1900202586727" y="380.34223669031246"/><point x="548.6" y="401.10096866096865" type="curve"/></contour><contour><point x="182.1" y="422.04353276353277"/><point x="109.1" y="515.4835327635327"/><point x="182.1" y="422.04353276353277" type="curve"/><point x="225.63715871689658" y="444.842946068389"/><point x="262.43048050974636" y="452.6068376068376"/><point x="312" y="452.6068376068376" type="curve"/><point x="398.8478067751856" y="452.6068376068376"/><point x="466.1264457282362" y="416.598785053411"/><point x="467.00000000000006" y="337.7230769230769" type="curve"/><point x="467.92259046277087" y="251.4737380563068"/><point x="385.7203653608344" y="223.7014245014245"/><point x="286.4" y="223.7014245014245" type="curve"/><point x="217.00291315029" y="223.7014245014245"/><point x="163.49491428464432" y="237.69936562058575"/><point x="116.5" y="287.60911680911676" type="curve"/><point x="6.999999999999993" y="229.20911680911678"/><point x="116.5" y="287.60911680911676"/><point x="6.999999999999993" y="229.20911680911678" type="curve"/><point x="84.14223034601775" y="146.00079741475184"/><point x="164.85307463328314" y="106.9014245014245"/><point x="279.1" y="106.90142450142449" type="curve"/><point x="470.0608294541464" y="106.90142450142446"/><point x="627.9512809308621" y="168.504615409612"/><point x="627.6" y="337.7230769230769" type="curve"/><point x="627.2565874878715" y="497.72593008452793"/><point x="487.918708395876" y="569.4068376068376"/><point x="312" y="569.4068376068376" type="curve"/><point x="233.55653539520216" y="569.4068376068376"/><point x="177.1405685945235" y="554.2079839120298"/><point x="109.1" y="515.4835327635327" type="curve"/></contour><contour><point x="825.5" y="722"/><point x="825.5" y="605.2"/><point x="825.5" y="722" type="curve"/><point x="545.5694659999999" y="722"/><point x="265.630534" y="722"/><point x="-14.299999999999995" y="722" type="curve"/><point x="-14.300000000000015" y="605.2"/><point x="-14.299999999999995" y="722"/><point x="-14.300000000000015" y="605.2" type="curve"/><point x="265.63053400000007" y="605.2"/><point x="545.5694659999999" y="605.2"/><point x="825.5" y="605.2" type="curve"/></contour></outline></glyph>
<glyph name="dvT" format="1"><advance width="532"/><unicode hex="E04E"/><outline><contour><point x="395.7" y="108.37367521367521"/><point x="315.40000000000003" y="3.2536752136751943"/><point x="395.7" y="108.37367521367521" type="curve"/><point x="285.30949036031313" y="143.9412724680385"/><point x="190.8" y="174.48660336281668"/><point x="190.8" y="271.3407407407407" type="curve"/><point x="190.8" y="364.300957296"/><point x="273.49147953604904" y="386.2245014245014"/><point x="359.2" y="386.2245014245014" type="curve"/><point x="459.59899600000006" y="386.2245014245014"/><point x="560.001004" y="386.2245014245014"/><point x="660.4" y="386.2245014245014" type="curve"/><point x="660.4" y="503.02450142450135"/><point x="660.4" y="386.2245014245014"/><point x="660.4" y="503.02450142450135" type="curve"/><point x="557.567695" y="503.02450142450135"/><point x="454.732305" y="503.02450142450135"/><point x="351.90000000000003" y="503.02450142450135" type="curve"/><point x="185.79642044886054" y="503.02450142450135"/><point x="30.200000000000014" y="452.01332162024306"/><point x="30.200000000000003" y="271.3407407407407" type="curve"/><point x="30.199999999999996" y="127.03149249387789"/><point x="148.2498613699045" y="54.3402181406536"/><point x="315.40000000000003" y="3.2536752136751943" type="curve"/></contour><contour><point x="-15.599999999999998" y="611.9021082621082"/><point x="-15.599999999999998" y="717.0221082621083"/><point x="-15.599999999999998" y="611.9021082621082" type="curve"/><point x="208.86442200000005" y="611.9021082621082"/><point x="433.33557799999994" y="611.9021082621082"/><point x="657.8000000000001" y="611.9021082621082" type="curve"/><point x="657.8000000000001" y="717.0221082621083"/><point x="657.8000000000001" y="611.9021082621082"/><point x="657.8000000000001" y="717.0221082621083" type="curve"/><point x="433.33557799999994" y="717.0221082621083"/><point x="208.86442200000005" y="717.0221082621083"/><point x="-15.599999999999998" y="717.0221082621083" type="curve"/></contour></outline></glyph>
